<svg xmlns="http://www.w3.org/2000/svg" width="101.4" height="33.5" viewBox="0 0 101.4 33.5"><defs><style>.a{fill:#fff;}</style></defs><path class="a" d="M88.1,24a2.855,2.855,0,0,0-.3-2.6,3.094,3.094,0,0,0-2.1-1.1l-17.4-.2c-.1,0-.2-.1-.3-.1a.188.188,0,0,1,0-.3c.1-.2.2-.3.4-.3l17.5-.2A6.292,6.292,0,0,0,91,15.4l1-2.6c0-.1.1-.2,0-.3a11.4,11.4,0,0,0-21.9-1.2,5.459,5.459,0,0,0-3.6-1,5.209,5.209,0,0,0-4.6,4.6,5.462,5.462,0,0,0,.1,1.8A7.3,7.3,0,0,0,54.9,24a4.1,4.1,0,0,0,.1,1.1.319.319,0,0,0,.3.3H87.4c.2,0,.4-.1.4-.3Zm5.5-11.2h-.5c-.1,0-.2.1-.3.2l-.7,2.4a2.855,2.855,0,0,0,.3,2.6,3.094,3.094,0,0,0,2.1,1.1l3.7.2c.1,0,.2.1.3.1a.188.188,0,0,1,0,.3c-.1.2-.2.3-.4.3l-3.8.2A6.292,6.292,0,0,0,89.2,24l-.2.9c-.1.1,0,.3.2.3h13.2a.265.265,0,0,0,.3-.3,10.871,10.871,0,0,0,.4-2.6,9.56,9.56,0,0,0-9.5-9.5m10.8,18a.9.9,0,1,1,.9-.9.9.9,0,0,1-.9.9m0-1.6a.7.7,0,1,0,.7.7.684.684,0,0,0-.7-.7m.4,1.2h-.2l-.2-.3h-.2v.3H104v-.9h.5a.265.265,0,0,1,.3.3c0,.1-.1.2-.2.3l.2.3Zm-.3-.5c.1,0,.1,0,.1-.1a.1.1,0,0,0-.1-.1h-.3V30l.3-.1ZM14.8,29H17v6h3.8v1.9h-6V29Zm8.3,3.9a4.1,4.1,0,0,1,4.3-4.1,4.02,4.02,0,0,1,4.2,4.1A4.1,4.1,0,0,1,27.3,37a4.079,4.079,0,0,1-4.2-4.1m6.3,0a2.056,2.056,0,0,0-2-2.2,2.1,2.1,0,0,0,0,4.2c1.2.2,2-.8,2-2m4.9.5V29h2.2v4.4c0,1.1.6,1.7,1.5,1.7a1.4,1.4,0,0,0,1.5-1.6V29h2.2v4.4c0,2.6-1.5,3.7-3.7,3.7-2.3-.1-3.7-1.2-3.7-3.7M45,29h3.1c2.8,0,4.5,1.6,4.5,3.9s-1.7,4-4.5,4h-3Zm3.1,5.9a2.009,2.009,0,1,0,0-4h-.9v4ZM55.7,29H62v1.9H57.9v1.3h3.7V34H57.9v2.9H55.7V29Zm9.4,0h2.2v6h3.8v1.9h-6V29Zm11.7-.1H79l3.4,8H80l-.6-1.4H76.3l-.6,1.4H73.4l3.4-8Zm2,4.9-.9-2.2L77,33.8ZM85.2,29h3.7a3.418,3.418,0,0,1,2.6.9,2.624,2.624,0,0,1-.9,4.2l1.9,2.8H90l-1.6-2.4h-1v2.4H85.2V29Zm3.6,3.8c.7,0,1.2-.4,1.2-.9,0-.6-.5-.9-1.2-.9H87.4v1.9h1.4v-.1ZM95.3,29h6.4v1.8H97.5V32h3.8v1.8H97.5V35h4.3v1.9H95.3V29ZM10,33.9a1.975,1.975,0,0,1-1.8,1.2,2.1,2.1,0,0,1,0-4.2,2.1,2.1,0,0,1,1.9,1.3h2.3a4.135,4.135,0,0,0-4.2-3.3A4.165,4.165,0,0,0,3.9,33a4.079,4.079,0,0,0,4.2,4.1,4.318,4.318,0,0,0,4.2-3.2Z" transform="translate(-3.9 -3.6)"/></svg>