<svg xmlns="http://www.w3.org/2000/svg" width="170.043" height="52.075" viewBox="0 0 170.043 52.075"><defs><style>.a{fill:#f9f9f9;}.b{fill:#12cf6c;}.c{fill:#fff;}</style></defs><g transform="translate(0)"><path class="a" d="M6.4,39.544V4.521A1,1,0,0,1,7.421,3.5h168a1.024,1.024,0,0,1,1.021,1.021V39.578H6.4Z" transform="translate(-6.4 -3.5)"/><path class="b" d="M53.764,26.5A11.147,11.147,0,1,0,64.928,37.63,11.17,11.17,0,0,0,53.764,26.5Zm5.242,18.958-5.242-4.05-5.207,4.05,2.008-6.569-5.139-4.05h6.263l2.076-6.263,2.11,6.263h6.263L57,38.889Z" transform="translate(-30.279 -18.672)"/><path d="M123,33.721a1.018,1.018,0,0,1,.987-1.021h6.705a7.088,7.088,0,0,1,5.105,1.8,4.961,4.961,0,0,1,1.4,3.54v.068c0,2.961-2.008,4.663-4.8,5.207l4.459,5.752a1.163,1.163,0,0,1,.34.749,1.041,1.041,0,0,1-1.021.987,1.212,1.212,0,0,1-.953-.545l-5.037-6.569h-5.139v6.092a1,1,0,1,1-2.008,0Zm7.556,8.135c2.689,0,4.629-1.4,4.629-3.71v-.068c0-2.212-1.7-3.54-4.595-3.54h-5.548v7.284Z" transform="translate(-83.314 -22.762)"/><path d="M176.8,49.616V33.721a1.018,1.018,0,0,1,.987-1.021h11.164a.919.919,0,0,1,0,1.838H178.808v6.126h8.985a.937.937,0,0,1,.919.919.915.915,0,0,1-.919.919h-8.985v6.3h10.245a.919.919,0,1,1,0,1.838h-11.3a.99.99,0,0,1-.953-1.021Z" transform="translate(-118.803 -22.762)"/><path d="M229.911,49.726,223,33.764a1.087,1.087,0,0,1-.1-.477,1.041,1.041,0,0,1,1.021-.987,1.135,1.135,0,0,1,1.055.783l6.195,14.874L237.4,33.015a1.156,1.156,0,0,1,.987-.715.987.987,0,0,1,.987.987,1.462,1.462,0,0,1-.068.408L232.362,49.76a1.247,1.247,0,0,1-1.191.851h-.1A1.236,1.236,0,0,1,229.911,49.726Z" transform="translate(-149.212 -22.498)"/><path d="M282.3,33.321a1,1,0,1,1,2.008,0V49.488a1,1,0,1,1-2.008,0Z" transform="translate(-188.395 -22.498)"/><path d="M303,49.616V33.721a1.018,1.018,0,0,1,.987-1.021h11.164a.919.919,0,0,1,0,1.838H305.008v6.126h8.985a.937.937,0,0,1,.919.919.915.915,0,0,1-.919.919h-8.985v6.3h10.245a.919.919,0,1,1,0,1.838h-11.3A.99.99,0,0,1,303,49.616Z" transform="translate(-202.05 -22.762)"/><path d="M349.3,33.8a1.2,1.2,0,0,1-.1-.477,1.054,1.054,0,0,1,1.055-1.021,1.157,1.157,0,0,1,1.055.851l4.969,14.261,4.7-14.329a1.014,1.014,0,0,1,.987-.783h.136a1.022,1.022,0,0,1,.987.783l4.7,14.329,4.969-14.329a1.014,1.014,0,0,1,.987-.783,1.041,1.041,0,0,1,1.021.987,1.107,1.107,0,0,1-.136.477l-5.752,15.963a1.15,1.15,0,0,1-1.055.885h-.17a1.15,1.15,0,0,1-1.055-.885l-4.629-13.785-4.629,13.785a1.15,1.15,0,0,1-1.055.885h-.17a1.111,1.111,0,0,1-1.055-.885Z" transform="translate(-232.525 -22.498)"/><path d="M431.074,47.965a.923.923,0,0,1-.374-.783.967.967,0,0,1,.987-.987.845.845,0,0,1,.613.238,8.208,8.208,0,0,0,5.684,2.144c2.417,0,4.016-1.293,4.016-3.063v-.068c0-1.668-.885-2.621-4.663-3.4-4.118-.885-6.024-2.246-6.024-5.173V36.8c0-2.825,2.485-4.9,5.888-4.9a9.089,9.089,0,0,1,5.718,1.77,1.087,1.087,0,0,1,.442.817.988.988,0,0,1-.987.987,1.055,1.055,0,0,1-.579-.17,7.525,7.525,0,0,0-4.629-1.566c-2.348,0-3.812,1.293-3.812,2.893V36.7c0,1.7.919,2.655,4.867,3.506,4.016.885,5.854,2.348,5.854,5.071v.068c0,3.063-2.553,5.071-6.126,5.071a10.608,10.608,0,0,1-6.875-2.451Z" transform="translate(-286.286 -22.234)"/><path class="b" d="M6.4,108.5v15.316a1,1,0,0,0,1.021,1.021h168a1.024,1.024,0,0,0,1.021-1.021V108.5Z" transform="translate(-6.4 -72.762)"/><g transform="translate(46.119 40.298)"><path class="c" d="M144.521,123.283H141.9V122.5h6.126v.783h-2.655v6.807h-.851Z" transform="translate(-141.9 -122.296)"/><path class="c" d="M169.539,130.09h-1.055l-2.042-2.859h-1.191v2.859H164.4V122.5h2.485c1.532,0,2.757.715,2.757,2.417a2.119,2.119,0,0,1-2.314,2.178ZM166,126.584c1.464,0,2.791.136,2.791-1.634,0-1.157-.613-1.7-2.042-1.7h-1.5v3.336Z" transform="translate(-156.742 -122.296)"/><path class="c" d="M185.885,122.5v4.833a2.029,2.029,0,0,0,2.246,2.144,1.987,1.987,0,0,0,2.212-2.144V122.5h.851v4.867a2.763,2.763,0,0,1-3.063,2.893c-1.77,0-3.131-.953-3.131-2.893V122.5Z" transform="translate(-170.331 -122.296)"/><path class="c" d="M208.168,128.707l.579-.579a3.2,3.2,0,0,0,2.314.987c.953,0,1.94-.476,1.94-1.429,0-.851-.885-1.123-2.144-1.464-1.293-.34-2.757-.783-2.757-2.178,0-1.464,1.259-2.144,2.927-2.144a3.435,3.435,0,0,1,2.587,1.021l-.442.477a3.156,3.156,0,0,0-2.11-.885c-1.055,0-2.076.613-2.076,1.532,0,.817.953,1.123,2.212,1.464,1.327.34,2.655.817,2.655,2.212s-1.225,2.144-2.791,2.144A3.953,3.953,0,0,1,208.168,128.707Z" transform="translate(-185.568 -121.9)"/><path class="c" d="M230.821,123.283H228.2V122.5h6.126v.783h-2.655v6.807h-.851Z" transform="translate(-198.827 -122.296)"/><path class="c" d="M250.7,122.5h5.173v.783h-4.323v2.859h4.118v.783h-4.118v2.417h4.391v.783H250.7Z" transform="translate(-213.669 -122.296)"/><path class="c" d="M271.3,122.5H273c2.553,0,4.459,1.021,4.459,3.812,0,2.655-1.8,3.778-4.289,3.778H271.3Zm1.429,6.807h.851a2.677,2.677,0,0,0,2.893-3c0-2.451-1.4-3-3.744-3h-.579v6.024h.579Z" transform="translate(-227.258 -122.296)"/><path class="c" d="M302.468,128.707l.579-.579a3.2,3.2,0,0,0,2.314.987c.953,0,1.94-.476,1.94-1.429,0-.851-.885-1.123-2.144-1.464-1.293-.34-2.757-.783-2.757-2.178,0-1.464,1.259-2.144,2.927-2.144a3.435,3.435,0,0,1,2.587,1.021l-.443.477a3.156,3.156,0,0,0-2.11-.885c-1.055,0-2.076.613-2.076,1.532,0,.817.953,1.123,2.212,1.464,1.327.34,2.655.817,2.655,2.212s-1.225,2.144-2.791,2.144A3.953,3.953,0,0,1,302.468,128.707Z" transform="translate(-247.773 -121.9)"/><path class="c" d="M324.8,122.5h.885v7.59H324.8Z" transform="translate(-262.548 -122.296)"/><path class="c" d="M334.421,123.283H331.8V122.5h6.126v.783h-2.655v6.807h-.851Z" transform="translate(-267.166 -122.296)"/><path class="c" d="M354.3,122.5h5.173v.783h-4.323v2.859h4.118v.783h-4.118v2.417h4.391v.783H354.3Z" transform="translate(-282.008 -122.296)"/></g></g></svg>