<svg xmlns="http://www.w3.org/2000/svg" width="166.913" height="134.427" viewBox="0 0 166.913 134.427"><defs><style>.a{fill:#dbdbdb;}.b{fill:#f4f3f4;}.c{fill:#3cbb91;}.d{fill:#020203;}.e{fill:#fef07d;}</style></defs><g transform="translate(-5.2 -4.91)"><g transform="translate(5.2 48.362)"><path class="a" d="M172.113,159.013a1.9,1.9,0,0,1-1.891,1.891H7.091A1.9,1.9,0,0,1,5.2,159.013V71.821A1.9,1.9,0,0,1,7.091,69.93H170.215a1.9,1.9,0,0,1,1.891,1.891v87.192Z" transform="translate(-5.2 -69.93)"/></g><g transform="translate(5.2 46.424)"><path class="b" d="M172.113,156.12a1.9,1.9,0,0,1-1.891,1.891H7.091A1.9,1.9,0,0,1,5.2,156.12v-87.2A1.9,1.9,0,0,1,7.091,67.03H170.215a1.9,1.9,0,0,1,1.891,1.891v87.2Z" transform="translate(-5.2 -67.03)"/></g><g transform="translate(5.2 4.91)"><path class="c" d="M172.113,94a1.9,1.9,0,0,1-1.891,1.891H7.091A1.9,1.9,0,0,1,5.2,94V6.8A1.9,1.9,0,0,1,7.091,4.91H170.215A1.9,1.9,0,0,1,172.106,6.8V94Z" transform="translate(-5.2 -4.91)"/></g><g transform="translate(28.376 108.382)"><path class="d" d="M75.85,168.9c2,0,3.428-1.029,3.428-2.74v-.04c0-1.637-1.256-2.626-3.408-2.626H71.76V168.9Zm-5.594-6.035A.758.758,0,0,1,71,162.1h4.985a5.272,5.272,0,0,1,3.789,1.33,3.673,3.673,0,0,1,1.029,2.626v.04c0,2.192-1.484,3.468-3.562,3.863l3.315,4.264a.8.8,0,0,1,.247.548.785.785,0,0,1-.762.742.866.866,0,0,1-.7-.4L75.59,170.24H71.754v4.511a.752.752,0,1,1-1.5,0l.007-11.889Z" transform="translate(-49.954 -160.523)"/><path class="d" d="M90.57,174.664v-11.8a.758.758,0,0,1,.742-.762h8.28a.688.688,0,0,1,0,1.377H92.074v4.551h6.663a.7.7,0,0,1,.688.688.682.682,0,0,1-.688.682H92.074v4.665h7.619a.685.685,0,0,1,0,1.37h-8.38a.768.768,0,0,1-.742-.769" transform="translate(-56.694 -160.523)"/><path class="d" d="M113.193,174.9l-5.139-11.862a.655.655,0,0,1-.074-.341.771.771,0,0,1,.762-.742.845.845,0,0,1,.782.568l4.611,11.04,4.625-11.08a.888.888,0,0,1,.742-.535.736.736,0,0,1,.742.722.788.788,0,0,1-.06.307L115.024,174.9a.925.925,0,0,1-.875.628h-.074a.9.9,0,0,1-.882-.628" transform="translate(-62.469 -160.473)"/><path class="d" d="M130.48,162.712a.752.752,0,1,1,1.5,0v12a.752.752,0,1,1-1.5,0Z" transform="translate(-69.933 -160.473)"/><path class="d" d="M138.28,174.664v-11.8a.758.758,0,0,1,.742-.762h8.28a.688.688,0,1,1,0,1.377h-7.518v4.551h6.663a.7.7,0,0,1,.688.688.682.682,0,0,1-.688.682h-6.663v4.665H147.4a.685.685,0,0,1,0,1.37h-8.38a.768.768,0,0,1-.742-.769" transform="translate(-72.52 -160.523)"/><path class="d" d="M155.844,163.063a1.041,1.041,0,0,1-.074-.341.793.793,0,0,1,.782-.762.855.855,0,0,1,.782.628l3.676,10.586,3.482-10.626a.754.754,0,0,1,.742-.588h.094a.771.771,0,0,1,.742.588l3.482,10.626,3.7-10.626a.766.766,0,0,1,.722-.588.785.785,0,0,1,.762.742,1.438,1.438,0,0,1-.094.361L170.372,174.9a.846.846,0,0,1-.782.648h-.114a.846.846,0,0,1-.782-.648l-3.462-10.245L161.785,174.9a.846.846,0,0,1-.782.648h-.114a.823.823,0,0,1-.782-.648l-4.264-11.842Z" transform="translate(-78.321 -160.476)"/><path class="d" d="M186.817,173.732a.679.679,0,0,1-.287-.575.728.728,0,0,1,.722-.742.641.641,0,0,1,.454.174,6.051,6.051,0,0,0,4.21,1.584c1.791,0,2.967-.956,2.967-2.266v-.04c0-1.236-.668-1.945-3.462-2.533-3.067-.668-4.478-1.657-4.478-3.849v-.04c0-2.092,1.844-3.636,4.377-3.636a6.792,6.792,0,0,1,4.244,1.317.762.762,0,0,1,.321.608.739.739,0,0,1-1.163.588,5.563,5.563,0,0,0-3.448-1.163c-1.731,0-2.84.949-2.84,2.152v.04c0,1.256.688,1.958,3.615,2.593,2.967.648,4.344,1.731,4.344,3.769v.04c0,2.286-1.9,3.769-4.551,3.769a7.853,7.853,0,0,1-5.026-1.791" transform="translate(-88.525 -160.427)"/><path class="d" d="M204.438,179.78a.488.488,0,0,1,.5.5v.214a.5.5,0,1,1-1.009,0v-.214a.49.49,0,0,1,.508-.5" transform="translate(-94.296 -166.387)"/><path class="d" d="M208.084,172.589a.415.415,0,0,1,.408-.414.408.408,0,0,1,.414.414v4.785a.4.4,0,0,1-.408.414.408.408,0,0,1-.414-.414Zm-.074-2.085a.487.487,0,0,1,.969,0v.14a.487.487,0,0,1-.969,0Z" transform="translate(-95.65 -163.167)"/><path class="d" d="M216.589,176.024V176a2.083,2.083,0,0,0-2.045-2.152,2.034,2.034,0,0,0-2.012,2.132V176a2.064,2.064,0,0,0,2.032,2.139,2.029,2.029,0,0,0,2.025-2.118m-4.9,0V176a2.87,2.87,0,0,1,5.741-.02V176a2.855,2.855,0,0,1-2.887,2.874,2.818,2.818,0,0,1-2.854-2.854" transform="translate(-96.871 -164.182)"/><path class="d" d="M39.88,168.02a8.28,8.28,0,1,0,8.28-8.28A8.283,8.283,0,0,0,39.88,168.02Zm5.9,1.036-3.836-2.867H46.6l1.544-4.658,1.557,4.658h4.658l-3.823,2.88,1.5,4.745-3.9-2.987-3.863,2.987Z" transform="translate(-39.88 -159.74)"/></g><g transform="translate(25.042 15.228)"><path class="e" d="M40.971,32.279,34.89,27.735h7.385l2.446-7.385,2.473,7.385h7.385L48.516,32.3,50.9,39.817l-6.175-4.738-6.128,4.738Z" transform="translate(-34.89 -20.35)"/><g transform="translate(26.885)"><path class="e" d="M81.2,32.279,75.12,27.735H82.5l2.446-7.385,2.473,7.385h7.385L88.747,32.3l2.379,7.518-6.175-4.738-6.128,4.738Z" transform="translate(-75.12 -20.35)"/></g><g transform="translate(53.771)"><path class="e" d="M121.431,32.279l-6.081-4.544h7.385l2.446-7.385,2.473,7.385h7.385L128.977,32.3l2.379,7.518-6.175-4.738-6.128,4.738Z" transform="translate(-115.35 -20.35)"/></g><g transform="translate(80.663)"><path class="e" d="M161.671,32.279l-6.081-4.544h7.385l2.446-7.385,2.473,7.385h7.385L169.217,32.3l2.379,7.518-6.175-4.738-6.128,4.738C159.286,39.817,161.671,32.279,161.671,32.279Z" transform="translate(-155.59 -20.35)"/></g><g transform="translate(107.548)"><path class="e" d="M201.9,32.279l-6.081-4.544H203.2l2.446-7.385,2.473,7.385h7.385L209.446,32.3l2.379,7.518-6.175-4.738-6.128,4.738Z" transform="translate(-195.82 -20.35)"/></g></g></g></svg>