<svg xmlns="http://www.w3.org/2000/svg" width="78.355" height="51.742" viewBox="0 0 78.355 51.742"><defs><style>.a{fill:#e37320;}.b{fill:#ea4335;}.c{fill:#fbbc05;}.d{fill:#4285f4;}.e{fill:#34a853;}</style></defs><g transform="translate(0 0)"><g transform="translate(6.524 26.743)"><path class="a" d="M54.607,169.3l1.857,3.763,4.166.614-3,2.923.711,4.15-3.73-1.954-3.714,1.954.711-4.15-3-2.923,4.15-.614Z" transform="translate(-48.6 -169.3)"/><path class="a" d="M137.124,169.3l1.857,3.763,4.15.614-3,2.923.711,4.15-3.714-1.954-3.714,1.954.711-4.15-3.02-2.923,4.166-.614Z" transform="translate(-117.777 -169.3)"/><path class="a" d="M219.707,169.3l1.873,3.763,4.15.614-3,2.923.711,4.15-3.73-1.954-3.714,1.954.711-4.15-3-2.923,4.15-.614Z" transform="translate(-187.038 -169.3)"/><path class="a" d="M302.224,169.3l1.857,3.763,4.167.614-3.02,2.923.711,4.15-3.714-1.954-3.714,1.954.711-4.15-3.02-2.923,4.166-.614Z" transform="translate(-256.215 -169.3)"/><path class="a" d="M384.824,169.3l1.857,3.763,4.15.614-3,2.923.711,4.15-3.714-1.954-3.73,1.954.711-4.15-3-2.923,4.15-.614Z" transform="translate(-325.476 -169.3)"/><path class="a" d="M173.347,274.215H172.2v2.116h-1.373v-2.116H167v-1.437l3.827-5.378H172.2v5.668h1.147Zm-5.248-1.147h2.713v-3.94h-.032Z" transform="translate(-147.879 -251.558)"/><path class="a" d="M212.4,312.1h1.776v1.728H212.4Z" transform="translate(-185.948 -289.039)"/><path class="a" d="M231.147,273.08a1.37,1.37,0,0,0,.388.888,1.244,1.244,0,0,0,.92.339,1.338,1.338,0,0,0,.937-.307,2.057,2.057,0,0,0,.549-.775,3.963,3.963,0,0,0,.258-1c.048-.355.081-.678.113-.985l-.032-.032a1.906,1.906,0,0,1-.807.791,2.388,2.388,0,0,1-1.13.275,3.039,3.039,0,0,1-1.163-.21,2.438,2.438,0,0,1-.888-.614,2.957,2.957,0,0,1-.581-.953,3.786,3.786,0,0,1-.21-1.243,3.293,3.293,0,0,1,.21-1.211,2.716,2.716,0,0,1,.6-.969,2.757,2.757,0,0,1,.969-.646,3.7,3.7,0,0,1,1.308-.226,3.08,3.08,0,0,1,1.566.371,2.745,2.745,0,0,1,.969,1,4.129,4.129,0,0,1,.484,1.486,10.855,10.855,0,0,1,.145,1.825,8.13,8.13,0,0,1-.178,1.631,4.815,4.815,0,0,1-.565,1.486,3.4,3.4,0,0,1-1.05,1.1,2.944,2.944,0,0,1-1.6.42,3.063,3.063,0,0,1-1.017-.178,2.58,2.58,0,0,1-.84-.5,2.615,2.615,0,0,1-.6-.775,2.243,2.243,0,0,1-.258-1h1.5Zm1.4-5.652a1.569,1.569,0,0,0-.694.145,1.3,1.3,0,0,0-.484.4,1.963,1.963,0,0,0-.291.581,2.488,2.488,0,0,0-.1.694,2.6,2.6,0,0,0,.1.711,1.871,1.871,0,0,0,.291.6,1.521,1.521,0,0,0,.484.42,1.34,1.34,0,0,0,.694.161,1.4,1.4,0,0,0,.711-.161,1.272,1.272,0,0,0,.5-.42,2.317,2.317,0,0,0,.307-.6,2.6,2.6,0,0,0,.1-.711,2.488,2.488,0,0,0-.1-.694,1.437,1.437,0,0,0-.307-.581,1.534,1.534,0,0,0-.5-.4A1.642,1.642,0,0,0,232.552,267.427Z" transform="translate(-200.286 -250.552)"/><path class="a" d="M270.966,264.9h1.389l-3.666,9.56H267.3Z" transform="translate(-231.982 -249.461)"/><path class="a" d="M298.814,267.4h4.635v1.308h-3.537l-.452,2.277.032.032a1.837,1.837,0,0,1,.743-.5,2.573,2.573,0,0,1,.9-.178,3.15,3.15,0,0,1,1.2.226,2.345,2.345,0,0,1,.888.63,2.782,2.782,0,0,1,.549.953,3.568,3.568,0,0,1,.178,1.2,3.8,3.8,0,0,1-.178,1.1,2.908,2.908,0,0,1-.549,1.034,2.94,2.94,0,0,1-2.374,1.082,4.14,4.14,0,0,1-1.211-.178,3.023,3.023,0,0,1-.985-.517,2.746,2.746,0,0,1-.678-.856,2.946,2.946,0,0,1-.275-1.179h1.453a1.639,1.639,0,0,0,.5,1.114,1.671,1.671,0,0,0,1.147.388,1.844,1.844,0,0,0,.775-.145,1.322,1.322,0,0,0,.517-.42,1.594,1.594,0,0,0,.275-.63,3.937,3.937,0,0,0,.081-.775,2.6,2.6,0,0,0-.1-.711,1.905,1.905,0,0,0-.307-.6,1.234,1.234,0,0,0-.533-.4,1.818,1.818,0,0,0-.759-.145,2.135,2.135,0,0,0-.856.178,1.014,1.014,0,0,0-.581.646h-1.453Z" transform="translate(-257.473 -251.558)"/></g><path class="b" d="M148.919,54.343a6.46,6.46,0,1,1-6.46-6.443A6.363,6.363,0,0,1,148.919,54.343Zm-2.826,0a3.643,3.643,0,1,0-3.634,3.908A3.708,3.708,0,0,0,146.093,54.343Z" transform="translate(-115.361 -40.762)"/><path class="c" d="M235.219,54.343a6.46,6.46,0,1,1-6.46-6.443A6.363,6.363,0,0,1,235.219,54.343Zm-2.826,0a3.643,3.643,0,1,0-3.634,3.908A3.708,3.708,0,0,0,232.393,54.343Z" transform="translate(-187.725 -40.762)"/><path class="d" d="M321.038,48.371V59.934c0,4.764-2.81,6.7-6.12,6.7a6.146,6.146,0,0,1-5.717-3.8l2.471-1.034a3.566,3.566,0,0,0,3.246,2.293c2.132,0,3.44-1.308,3.44-3.779V59.4h-.1a4.41,4.41,0,0,1-3.391,1.47,6.441,6.441,0,0,1,0-12.871,4.45,4.45,0,0,1,3.391,1.437h.1v-1.05Zm-2.487,6.072a3.625,3.625,0,0,0-3.44-3.924,3.914,3.914,0,0,0,0,7.8A3.59,3.59,0,0,0,318.551,54.443Z" transform="translate(-260.172 -40.846)"/><path class="e" d="M398.161,8.3V27.178H395.4V8.3Z" transform="translate(-332.871 -7.557)"/><path class="b" d="M429.46,56.459l2.2,1.47a6.42,6.42,0,0,1-5.362,2.858,6.3,6.3,0,0,1-6.4-6.443,6.127,6.127,0,0,1,6.072-6.443,5.976,5.976,0,0,1,5.507,4.1l.291.727L423.162,56.3a3.277,3.277,0,0,0,3.117,1.954A3.663,3.663,0,0,0,429.46,56.459Zm-6.75-2.309,5.765-2.39a2.508,2.508,0,0,0-2.39-1.373A3.532,3.532,0,0,0,422.71,54.15Z" transform="translate(-353.414 -40.762)"/><path class="d" d="M18.374,15.6V12.873h9.2a8.523,8.523,0,0,1,.129,1.647,9.032,9.032,0,0,1-2.374,6.4,9.176,9.176,0,0,1-6.976,2.81A10.157,10.157,0,0,1,8.2,13.712,10.146,10.146,0,0,1,18.358,3.7a9.551,9.551,0,0,1,6.863,2.761L23.3,8.383a6.991,6.991,0,0,0-4.925-1.938,7.175,7.175,0,0,0-7.17,7.267,7.175,7.175,0,0,0,7.17,7.267,6.693,6.693,0,0,0,5.055-2,5.709,5.709,0,0,0,1.486-3.391Z" transform="translate(-8.2 -3.7)"/></g></svg>