<svg xmlns="http://www.w3.org/2000/svg" width="95.093" height="55.751" viewBox="0 0 95.093 55.751"><defs><style>.a{fill:#fff;}</style></defs><path class="a" d="M3.6,4.786A4.855,4.855,0,0,1,8.515,0a4.8,4.8,0,0,1,4.848,4.786A4.749,4.749,0,0,1,8.515,9.509,4.765,4.765,0,0,1,3.6,4.786M.249,39.28H2.61A1.718,1.718,0,0,0,4.1,37.726V19.143A1.851,1.851,0,0,0,2.61,17.465H0V12.058H11.622c.994,0,1.492.994,1.492,3.418V37.664a1.724,1.724,0,0,0,1.554,1.554H17.03v5.1H.249Z"/><path class="a" d="M30.7,35.419C30.7,25.04,38.1,18.7,47.854,18.7a19.429,19.429,0,0,1,9.882,2.237v6.65H54.318a9.369,9.369,0,0,0-6.464-2.362c-4.661,0-8.08,3.418-8.08,10.193,0,6.961,3.232,9.882,7.831,9.882a9.65,9.65,0,0,0,7.21-2.61h3.108v6.153a18.791,18.791,0,0,1-10.442,2.983C36.915,51.889,30.7,45.736,30.7,35.419" transform="translate(-11.619 -7.078)"/><path class="a" d="M103.467,35.481c0-7.023-3.045-10.442-7.4-10.442s-7.4,3.418-7.4,10.442c0,6.961,3.045,9.944,7.4,9.944,4.413.062,7.4-2.983,7.4-9.944m-23.867,0C79.6,25.1,87,18.7,96.07,18.7c9.136,0,16.47,6.4,16.47,16.781,0,10.317-7.4,16.408-16.47,16.408S79.6,45.8,79.6,35.481" transform="translate(-30.127 -7.078)"/><path class="a" d="M136.8,61.072a5.036,5.036,0,1,1,5.034,4.91,4.91,4.91,0,0,1-5.034-4.91" transform="translate(-51.776 -21.233)"/><path class="a" d="M92.921,84.786c.062-.622.373-.87.746-.87.435,0,.684.186.684.87Zm.746-1.43a1.591,1.591,0,0,0-1.554,1.74,1.539,1.539,0,0,0,1.616,1.74h0a1.961,1.961,0,0,0,1.243-.373h0v-.5h-.249a1.23,1.23,0,0,1-.87.311c-.559,0-.87-.249-.932-.994h2.237v-.311c-.062-1.057-.559-1.616-1.492-1.616m-2.175,2.61a1.047,1.047,0,0,1-.746.311c-.559,0-.87-.373-.87-1.119a1.031,1.031,0,0,1,.932-1.181.881.881,0,0,1,.684.249H91.8v-.559h0a1.757,1.757,0,0,0-.994-.249,1.649,1.649,0,0,0-1.678,1.74,1.569,1.569,0,0,0,1.616,1.74,1.518,1.518,0,0,0,1.057-.373h0v-.559ZM88.135,82.3a.435.435,0,1,0,.435.435.467.467,0,0,0-.435-.435m.062,1.119h-.435v3.356h.746v-2.8a.922.922,0,0,0-.062-.435c0-.062-.124-.124-.249-.124M86.892,82.3a.85.85,0,0,0-.932.932v.249h-.373v.5h.373v2.859h.746V83.978h.684v-.559h-.684v-.186c0-.311.124-.373.373-.373h.249v-.5h-.062c0-.062-.124-.062-.373-.062m-1.989,0a.85.85,0,0,0-.932.932v.249H83.6v.5h.373v2.859h.746V83.978H85.4v-.559h-.684v-.186c0-.311.124-.373.373-.373H85.4v-.5h-.062c-.062-.062-.186-.062-.435-.062m-3.667,3.978c-.684,0-1.243-.5-1.243-1.678s.559-1.678,1.243-1.678,1.243.559,1.243,1.678c-.062,1.119-.559,1.616-1.243,1.678m0-3.978a2.315,2.315,0,1,0,2.051,2.3,2.134,2.134,0,0,0-2.051-2.3m-4.91,2.424c-.5-.062-.684-.186-.684-.373,0-.249.124-.373.559-.373a1.179,1.179,0,0,1,.746.249H77.2v-.559h0a1.926,1.926,0,0,0-.994-.249c-.746,0-1.243.373-1.243.994s.435.932,1.057.994c.559.062.622.186.622.435,0,.311-.186.435-.622.435a.981.981,0,0,1-.808-.311h-.249v.559h0a2.189,2.189,0,0,0,1.119.311h0c.87,0,1.305-.435,1.305-1.057.062-.684-.311-.932-1.057-1.057M74.461,82.3a.416.416,0,0,0-.435.373.287.287,0,0,0,.186.311c.124.062.124.062.124.124s-.062.124-.249.186h-.062v.435h.062A.818.818,0,0,0,74.9,82.8a.443.443,0,0,0-.435-.5m-1.119,1.119a1.087,1.087,0,0,0-.87.435c0-.311-.124-.373-.311-.373h-.435v3.356h.746V84.413a1.3,1.3,0,0,1,.932-.373h.186v-.622h-.249m-4.351,1.367c.062-.622.373-.87.746-.87.435,0,.684.186.684.87Zm.746-1.43a1.591,1.591,0,0,0-1.554,1.74,1.539,1.539,0,0,0,1.616,1.74h0a1.961,1.961,0,0,0,1.243-.373h0v-.5h-.249a1.23,1.23,0,0,1-.87.311c-.559,0-.87-.249-.932-.994h2.237v-.311c-.062-1.057-.622-1.616-1.492-1.616m-2.983,0a1.962,1.962,0,0,0-1.181.435c0-.249-.124-.373-.311-.373h-.435v3.356h.746V84.289a2.07,2.07,0,0,1,.932-.311c.311,0,.435.062.435.5v2.3h.746V84.289a.848.848,0,0,0-.932-.932m-3.232,1.8c0,.808-.311,1.119-.87,1.119-.5,0-.87-.373-.87-1.119,0-.808.373-1.181.87-1.181.559,0,.87.373.87,1.181Zm-.87-1.8a1.745,1.745,0,1,0,1.616,1.74,1.6,1.6,0,0,0-1.616-1.74m-2.486.062h-.435v3.356h.746v-2.8a.922.922,0,0,0-.062-.435.323.323,0,0,0-.249-.124M60.1,82.3a.435.435,0,1,0,.435.435A.467.467,0,0,0,60.1,82.3m-2.051,2.424c-.5-.062-.684-.186-.684-.373,0-.249.124-.373.559-.373a1.179,1.179,0,0,1,.746.249h.249v-.559h0a1.926,1.926,0,0,0-.994-.249c-.746,0-1.243.373-1.243.994s.435.932,1.057.994c.559.062.622.186.622.435,0,.311-.186.435-.622.435a.981.981,0,0,1-.808-.311h-.186v.559h0a2.189,2.189,0,0,0,1.119.311h0c.87,0,1.305-.435,1.305-1.057,0-.684-.373-.932-1.119-1.057m-2.8,0c-.5-.062-.684-.186-.684-.373,0-.249.124-.373.559-.373a1.179,1.179,0,0,1,.746.249h.249v-.559h0a1.926,1.926,0,0,0-.994-.249c-.746,0-1.243.373-1.243.994s.435.932,1.057.994c.559.062.622.186.622.435,0,.311-.186.435-.622.435a.981.981,0,0,1-.808-.311h-.249v.559h0a2.189,2.189,0,0,0,1.119.311h0c.87,0,1.305-.435,1.305-1.057.062-.684-.311-.932-1.057-1.057m-2.3-2.424a.435.435,0,1,0,.435.435.467.467,0,0,0-.435-.435m.062,1.119h-.435v3.356h.746v-2.8a.922.922,0,0,0-.062-.435.323.323,0,0,0-.249-.124m-2.051-.062a1.962,1.962,0,0,0-1.181.435.788.788,0,0,0-.808-.435,1.787,1.787,0,0,0-1.119.435c0-.249-.124-.373-.311-.373h-.435v3.356h.746V84.289a1.309,1.309,0,0,1,.808-.311c.311,0,.373.062.435.435v2.362h.746V84.289a1.832,1.832,0,0,1,.808-.311c.311,0,.435.062.435.435v2.362h.746V84.289c0-.684-.373-.932-.87-.932m-5.407,0a1.962,1.962,0,0,0-1.181.435.754.754,0,0,0-.746-.435,1.787,1.787,0,0,0-1.119.435c0-.249-.124-.373-.311-.373h-.435v3.356h.684V84.289a1.309,1.309,0,0,1,.808-.311c.311,0,.373.062.435.435v2.362h.746V84.289a1.832,1.832,0,0,1,.808-.311c.311,0,.435.062.435.435v2.362h.746V84.289a.832.832,0,0,0-.87-.932m-6.029,2.921c-.5,0-.87-.373-.87-1.119,0-.808.373-1.181.87-1.181s.87.373.87,1.181c0,.746-.311,1.119-.87,1.119m0-2.921a1.745,1.745,0,1,0,1.616,1.74,1.6,1.6,0,0,0-1.616-1.74m-2.3,2.424a1.44,1.44,0,0,1-1.119.435c-.808,0-1.243-.559-1.243-1.678s.5-1.616,1.305-1.616a1.19,1.19,0,0,1,.932.373h.373v-.622h0a2.329,2.329,0,0,0-1.305-.373,2.065,2.065,0,0,0-2.051,2.3,2.022,2.022,0,0,0,1.989,2.3,1.988,1.988,0,0,0,1.43-.5h0v-.622Zm-5.967-2.424a1.962,1.962,0,0,0-1.181.435c0-.249-.124-.373-.311-.373h-.435v3.356h.746V84.289a2.07,2.07,0,0,1,.932-.311c.311,0,.435.062.435.5v2.3H32.2V84.289a.848.848,0,0,0-.932-.932m-3.232,1.8c0,.808-.311,1.119-.87,1.119-.5,0-.87-.373-.87-1.119,0-.808.373-1.181.87-1.181.559,0,.87.373.87,1.181Zm-.87-1.8a1.745,1.745,0,1,0,1.616,1.74,1.6,1.6,0,0,0-1.616-1.74M24.615,82.3a.435.435,0,1,0,.435.435.467.467,0,0,0-.435-.435m.062,1.119h-.435v3.356h.746v-2.8a.922.922,0,0,0-.062-.435.323.323,0,0,0-.249-.124M23,85.9V83.978h.746v-.559H23v-.87h-.746v.87H21.88v.559h.373v1.989c0,.622.373.87.932.87.249,0,.435-.062.559-.062h.062v-.5H23.5c-.435,0-.5-.062-.5-.373m-2.362.062a.947.947,0,0,1-.684.373.493.493,0,0,1-.559-.559c0-.373.249-.5.684-.5a1.721,1.721,0,0,1,.559.062Zm-.5-2.61a1.921,1.921,0,0,0-1.181.311h0v.559h.249a1.609,1.609,0,0,1,.87-.249c.435,0,.622.124.622.5v.373a2.331,2.331,0,0,0-.684-.062c-.746,0-1.305.311-1.305,1.057A.979.979,0,0,0,19.767,86.9h0a1.173,1.173,0,0,0,.932-.373c.062.249.186.311.435.311h.311V84.475c-.062-.808-.5-1.119-1.305-1.119m-2.859,0a1.962,1.962,0,0,0-1.181.435.754.754,0,0,0-.746-.435,1.787,1.787,0,0,0-1.119.435c0-.249-.124-.373-.311-.373H13.49v3.356h.746V84.289a1.309,1.309,0,0,1,.808-.311c.311,0,.373.062.435.435v2.362h.746V84.289a1.832,1.832,0,0,1,.808-.311c.311,0,.435.062.435.435v2.362h.746V84.289c-.062-.684-.435-.932-.932-.932m-4.537.062a1.087,1.087,0,0,0-.87.435c0-.311-.124-.373-.311-.373h-.435v3.356h.746V84.413a1.3,1.3,0,0,1,.932-.373h.186v-.622h-.249M8.953,86.278c-.5,0-.87-.373-.87-1.119,0-.808.373-1.181.87-1.181.559,0,.87.373.87,1.181,0,.746-.373,1.119-.87,1.119m0-2.921a1.745,1.745,0,1,0,1.616,1.74,1.6,1.6,0,0,0-1.616-1.74M6.715,82.3a.85.85,0,0,0-.932.932v.249H5.348v.5h.435v2.859h.746V83.978h.684v-.559H6.529v-.186c0-.311.124-.373.373-.373h.311v-.5H7.15C7.088,82.3,6.9,82.3,6.715,82.3M4.043,83.357a2.313,2.313,0,0,0-1.243.435c0-.249-.124-.373-.311-.373H2.116v3.356h.746V84.289a2.07,2.07,0,0,1,.932-.311c.311,0,.435.062.435.5v2.3h.746V84.289a.907.907,0,0,0-.932-.932M.5,86.837h.808V82.362H.5Z" transform="translate(-0.189 -31.149)"/></svg>