<svg xmlns="http://www.w3.org/2000/svg" xmlns:xlink="http://www.w3.org/1999/xlink" width="234.666" height="364.904" viewBox="0 0 234.666 364.904">
  <defs>
    <linearGradient id="linear-gradient" y1="0.5" x2="1" y2="0.5" gradientUnits="objectBoundingBox">
      <stop offset="0" stop-color="#d50073"/>
      <stop offset="1" stop-color="#d50073"/>
    </linearGradient>
  </defs>
  <g id="Group_203" data-name="Group 203" transform="translate(-619.334 -5542.828)">
    <g id="Group_190" data-name="Group 190" transform="translate(-3601.659 -1245.554)" opacity="0.1">
      <g id="Group_98" data-name="Group 98" transform="translate(4277.412 7087.046)">
        <path id="Path_851" data-name="Path 851" d="M4383.32,7463.879v2.6c0,.849,10.412,1.539,24.026,1.554v-4.341C4399.321,7463.774,4391.3,7463.855,4383.32,7463.879Z" transform="translate(-4318.223 -7434.955)"/>
        <path id="Path_852" data-name="Path 852" d="M4439.441,7463.879v2.6c0,.849-10.411,1.539-24.026,1.554v-4.341C4423.441,7463.774,4431.462,7463.855,4439.441,7463.879Z" transform="translate(-4326.292 -7434.955)"/>
        <path id="Path_853" data-name="Path 853" d="M4398.192,7137.711c-7.122.835-51.282,5.558-51.282,12.85v14.091c0,1.836,22.792,3.328,51.282,3.359Z" transform="translate(-4309.069 -7137.711)"/>
        <path id="Path_854" data-name="Path 854" d="M4415.415,7137.711c7.123.835,51.283,5.558,51.283,12.85v14.091c0,1.836-22.792,3.328-51.283,3.359Z" transform="translate(-4326.292 -7137.711)"/>
        <path id="Path_855" data-name="Path 855" d="M4483.921,7372.656h.208c3.421.411,6.911.839,10.239,1.283,32.664,4.351,27.023,8.242,27.023,8.242s-17.526-2.128-37.469-4Z" transform="translate(-4343.515 -7351.944)"/>
        <path id="Path_856" data-name="Path 856" d="M4334.2,7372.656h-.208c-3.421.411-6.91.839-10.239,1.283-32.664,4.351-27.022,8.242-27.022,8.242s17.527-2.128,37.469-4Z" transform="translate(-4296.36 -7351.944)"/>
        <path id="Path_857" data-name="Path 857" d="M4408.507,7387.306s-20.568,2.756-20.568,6.155,20.568,6.155,20.568,6.155Z" transform="translate(-4319.384 -7365.303)"/>
        <path id="Path_858" data-name="Path 858" d="M4415.415,7387.306s20.567,2.756,20.567,6.155-20.567,6.155-20.567,6.155Z" transform="translate(-4326.292 -7365.303)"/>
        <path id="Path_859" data-name="Path 859" d="M4408.467,7306.916l-12.794,2.533-6.392-2.7Z" transform="translate(-4319.722 -7291.85)"/>
        <path id="Path_860" data-name="Path 860" d="M4382.139,7299.988l-12.795,2.533-6.391-2.7Z" transform="translate(-4313.103 -7285.533)"/>
        <path id="Path_861" data-name="Path 861" d="M4398.192,7137.711c-7.122.835-51.282,5.558-51.282,12.85,0,3.335,102.565,3.335,102.565,0C4449.475,7143.269,4405.315,7138.546,4398.192,7137.711Z" transform="translate(-4309.069 -7137.711)"/>
        <path id="Path_1481" data-name="Path 1481" d="M10.325.19c5.7.1,10.41.736,10.514,1.41S16.406,2.735,10.7,2.63.294,1.894.19,1.22,4.623.085,10.325.19Z" transform="matrix(1, -0.021, 0.021, 1, 98.317, 9.525)"/>
        <path id="Path_862" data-name="Path 862" d="M4444.306,7254.637c0,.247-1.7.448-3.8.448s-3.8-.2-3.8-.448,1.7-.448,3.8-.448S4444.306,7254.389,4444.306,7254.637Z" transform="translate(-4331.643 -7243.92)"/>
        <path id="Path_1482" data-name="Path 1482" d="M10.324.217c5.7.12,10.421.764,10.54,1.438s-4.405,1.124-10.107,1S.336,1.9.217,1.221,4.622.1,10.324.217Z" transform="matrix(1, -0.024, 0.024, 1, 58.727, 9.529)"/>
        <path id="Path_863" data-name="Path 863" d="M4391.458,7254.637c0,.247-1.7.448-3.8.448s-3.8-.2-3.8-.448,1.7-.448,3.8-.448S4391.458,7254.389,4391.458,7254.637Z" transform="translate(-4318.356 -7243.92)"/>
        <path id="Path_864" data-name="Path 864" d="M4367.467,7264.439s3.24.773,11.537,1.123C4379,7265.562,4366,7265.457,4367.467,7264.439Z" transform="translate(-4314.208 -7253.268)"/>
      </g>
      <path id="Path_1480" data-name="Path 1480" d="M0,0,49.17,32.141l22.7,24.3L22.7,24.3Z" transform="matrix(0.782, -0.623, 0.623, 0.782, 4220.993, 7109.134)"/>
      <path id="Path_865" data-name="Path 865" d="M4268.793,7331.7l10.694-5.643-58.462,5.481Z" transform="translate(-0.008 -222.409)"/>
      <path id="Path_866" data-name="Path 866" d="M4281.245,7244.326l-6.284.088a18.784,18.784,0,0,1-5.531-.467l-.447-.25c-.783-.438-.374-.894,1.171-1.3l.226-.061v-8.792h14.981Z" transform="translate(-11.968 -138.047)"/>
      <path id="Path_867" data-name="Path 867" d="M4332.242,7336.534l-6.06.266-4.568-.266-12.634-7.873-4.929-5.069h0l3.067,4.909,1.862,8.034-7.235.266-3.339-.266-18.72-12.621-3.253-2.729,56.924-.077-3.827,7.25,1.843,2.4Z" transform="translate(-13.938 -217.894)"/>
      <path id="Path_868" data-name="Path 868" d="M4347.416,7497.112h-10.248l-.38-1.009h10.628Z" transform="translate(-29.112 -377.463)"/>
      <path id="Path_869" data-name="Path 869" d="M4313.684,7497.112l-1.681,1.341-16.863-.919,5.314-.8,2.6-.626h10.627Z" transform="translate(-18.641 -377.463)"/>
      <path id="Path_870" data-name="Path 870" d="M4333.312,7505.949h21.038v-.037c0-.326-.836-.644-2.4-.913l-3.447-.592a36.124,36.124,0,0,0-5.424-.336h-1.671a23.363,23.363,0,0,0-6.374.583l-1.412.653c-.2.095-.308.192-.308.29Z" transform="translate(-28.238 -384.729)"/>
      <path id="Path_871" data-name="Path 871" d="M4271.888,7507.534h35.95v-1.571l-1.763.1a78.913,78.913,0,0,1-8.2.032l-5.812-.29-17.166,1.043c-1.845.112-3.005.336-3.005.581Z" transform="translate(-12.796 -386.314)"/>
      <path id="Path_872" data-name="Path 872" d="M4353.777,7519.775c.371.147.573.3.573.457v.037h-21.038v-.351a.208.208,0,0,1,.075-.142Z" transform="translate(-28.238 -399.049)"/>
      <path id="Path_873" data-name="Path 873" d="M4307.838,7519.775v.493h-35.95v-.1c0-.146.453-.282,1.178-.394Z" transform="translate(-12.796 -399.049)"/>
      <path id="Path_874" data-name="Path 874" d="M4276.433,7320.061s1.052,4.658,6.932,8.04c.829.477,49.993-.009,49.993-.009s.346-6.516,0-8.107l-31.582-.108Z" transform="translate(-13.938 -216.771)"/>
      <path id="Path_875" data-name="Path 875" d="M4354.466,7243.023l-.162-.2-6.979-8.493,13.61-.21,1.412,4.483v4.36Z" transform="translate(-31.761 -138.578)"/>
      <path id="Path_876" data-name="Path 876" d="M4357.07,7334.874l-2.767-.031c-2.5-.028-4.4-.277-4.378-.573l.027-.311c.013-.149.6-.29,1.606-.382l3.352-.339.048-.391,8.043.14-.176,1.3C4362.673,7334.642,4360.053,7334.908,4357.07,7334.874Z" transform="translate(-32.415 -228.598)"/>
      <path id="Path_877" data-name="Path 877" d="M4330.767,7200.489h0c-1.654-1.5-2.934-2.96-9.069-4.295l-1.088-.236-5.366-1.226,12.07-2.249,1.333.97,12.067-.244-.864-1.872c-.44-.955-6.178-1.76-14.084-1.979l-13.212-.364-13.6.042-14.81.716c-3.389.164-5.65.547-5.782.978l-.117.388-2.787.984c-.831.293-.519.616.851.879l6.477,1.249-1.2,3.033-1.324,3.3Z" transform="translate(-13.578 -97.428)"/>
      <g id="Group_99" data-name="Group 99" transform="translate(4270.336 7085.839)">
        <path id="Path_878" data-name="Path 878" d="M4322.858,7124.6c.211,0,.425-.006.62-.02,4.242-.283,8.232-.29,11.578-.26a3.6,3.6,0,0,0,1.355-.137c.053-.082-.467-.153-1.161-.16-3.509-.031-8.155-.026-13.016.3-.606.041-.82.131-.477.2A6.382,6.382,0,0,0,4322.858,7124.6Z" transform="translate(-4295.628 -7124.015)"/>
        <path id="Path_879" data-name="Path 879" d="M4300.464,7124.6a6.37,6.37,0,0,0,1.1-.076c.342-.071.129-.162-.478-.2-4.859-.324-9.508-.329-13.014-.3-.694.007-1.215.078-1.161.16a3.5,3.5,0,0,0,1.354.137c3.342-.03,7.336-.023,11.58.26C4300.041,7124.6,4300.253,7124.6,4300.464,7124.6Z" transform="translate(-4286.908 -7124.015)"/>
      </g>
      <path id="Path_880" data-name="Path 880" d="M4327.869,7112.681s-36.895,2.182-63.645,1.446c11.214-1.252,11.226-6.489,11.226-6.489l.852-3.646,51.4-.817,5.423,2.662Z" transform="translate(-10.869 -19.173)"/>
      <path id="Path_881" data-name="Path 881" d="M4331.388,7199.053l-56.925.077s-4-3.4,2.7-6.447a27.975,27.975,0,0,1-6.91-1.208c-1.73-.3-2.124-.672-1.075-1.008l3.008-.963.122-.366c.163-.491,3-.927,7.257-1.113l16.568-.728,15.438-.043,14.742.368c9.335.233,16.109,1.1,16.629,2.12l1.021,2.007-16.426.339-.5-.223-2.078.415c-3.94.631-1.867,1.927-1.867,1.927,7.181,1.967,7.272,3.219,8.3,4.846Z" transform="translate(-11.968 -95.839)"/>
      <path id="Path_882" data-name="Path 882" d="M4321.437,7175.822c-8.82.97-15.238,1.4-16.153.575l.04-2.184h16.113Z" transform="translate(-21.192 -83.949)"/>
      <path id="Path_883" data-name="Path 883" d="M4305.3,7174.085l.014-1.609h16.114v1.149A157.757,157.757,0,0,1,4305.3,7174.085Z" transform="translate(-21.196 -82.364)"/>
      <path id="Path_884" data-name="Path 884" d="M4337.764,7132.053c.822-.547,4.038-.937,7.181-.872s5.025.562,4.2,1.109-4.038.937-7.182.872S4336.941,7132.6,4337.764,7132.053Z" transform="translate(-29.309 -44.704)"/>
      <path id="Path_885" data-name="Path 885" d="M4305.779,7112.392h0c-13.114,0-23.748-1.252-23.748-2.8v-3.614h47.5v3.614C4329.528,7111.14,4318.9,7112.392,4305.779,7112.392Z" transform="translate(-15.345 -21.732)"/>
      <path id="Path_886" data-name="Path 886" d="M4333.168,7134.347c0,.3-1.413.536-3.154.536s-3.152-.239-3.152-.536,1.411-.536,3.152-.536S4333.168,7134.051,4333.168,7134.347Z" transform="translate(-26.617 -47.109)"/>
      <path id="Path_887" data-name="Path 887" d="M4293.014,7134.347c0,.3,1.413.536,3.154.536s3.153-.239,3.153-.536-1.411-.536-3.153-.536S4293.014,7134.051,4293.014,7134.347Z" transform="translate(-18.107 -47.109)"/>
      <path id="Path_888" data-name="Path 888" d="M4289.516,7125.264a21.856,21.856,0,0,1,3.776-.344,49.881,49.881,0,0,1,5.49.157c1,.121-.7.293-1.812.172-.771-.083-2.46-.136-3.616-.118-1.234.02-2.087.126-3.1.187C4289.909,7125.339,4289.353,7125.3,4289.516,7125.264Z" transform="translate(-17.22 -38.986)"/>
      <path id="Path_889" data-name="Path 889" d="M4334.349,7125.264a21.863,21.863,0,0,0-3.777-.344,49.872,49.872,0,0,0-5.49.157c-1,.121.7.293,1.811.172.771-.083,2.461-.136,3.616-.118,1.234.02,2.088.126,3.1.187C4333.956,7125.339,4334.512,7125.3,4334.349,7125.264Z" transform="translate(-26.093 -38.986)"/>
      <g id="Group_100" data-name="Group 100" transform="translate(4281.193 7088.801)">
        <path id="Path_890" data-name="Path 890" d="M4309.86,7158.122c2.628,0,5.253-.085,7.858-.257.537-.035.728-.115.429-.178a7.14,7.14,0,0,0-1.514-.051,102.653,102.653,0,0,1-13.57,0,7.129,7.129,0,0,0-1.513.051c-.3.063-.1.143.432.179C4304.6,7158.036,4307.23,7158.122,4309.86,7158.122Z" transform="translate(-4301.411 -7157.619)"/>
      </g>
      <path id="Path_891" data-name="Path 891" d="M4335.912,7246.753l.609-2.758-.609-1.321a16.725,16.725,0,0,1-2.6-1.052c.131-.117,9.994-2.057,9.994-2.057s-5.217,1.213-4.61,1.981,8.224,1.777,8.962,5.208Z" transform="translate(-28.237 -143.539)"/>
      <path id="Path_892" data-name="Path 892" d="M4279.832,7248.847l4.2.288h-4.795Z" transform="translate(-14.642 -152.004)"/>
      <path id="Path_893" data-name="Path 893" d="M4333.653,7126.934c-1.045-.087-4.437-.112-10.461-.131s-13.032.319-14.719.367-3.333.045-3.333.045h-.964s-1.605,0-3.293-.045-8.674-.391-14.7-.373-9.4.047-10.442.134l-.4.417a12.136,12.136,0,0,1,1.767.106c.32.1.723,1.126,3.855,1.372s5.056.261,8.192.266,8.515.042,13.172-1.234c0,0,.241-.2,1.847-.2h.964c1.687,0,1.887.2,1.887.2,4.659,1.277,10.081,1.236,13.213,1.232s5.06-.018,8.193-.264,3.534-1.268,3.855-1.372a12.1,12.1,0,0,1,1.768-.1Zm-33.975,1.089c-.777.541-4.433.927-10.134.927-6.573,0-9.707-.369-10.108-.9-.155-.2-.032-.643,1.366-.823a79.637,79.637,0,0,1,9.077-.246,90.958,90.958,0,0,1,9.478.426C4300.5,7127.568,4299.963,7127.824,4299.678,7128.023Zm30.444,0c-.4.53-3.534.9-10.107.9-5.7,0-9.357-.386-10.133-.927-.285-.2-.82-.455.321-.615a90.954,90.954,0,0,1,9.478-.426,79.657,79.657,0,0,1,9.077.246C4330.155,7127.38,4330.278,7127.818,4330.123,7128.023Z" transform="translate(-13.664 -40.712)"/>
      <path id="Path_894" data-name="Path 894" d="M4317.12,7095.247c13.287-3.987,9.277-9.849,9.277-9.849a37.258,37.258,0,0,1-9.592,1.029c-5.291-.021-12.712-2.233-19.306-2.178-6.352.054-12.066,1.432-17.1,2.009-1.634.188-3.3.307-4.649.445-2.017-1.044-2.41-2.031,2.252-3.032h0c7.842-1.391,26.619-1.522,26.619-1.522,8.639,0,15.305.064,19.914.857h0a41.574,41.574,0,0,1,9.307.855h0c5.892,1.692,10.678,7.149,10.157,9.715,0,0-.844-.906-11.167-1.6Z" transform="translate(-13.406)"/>
    </g>
    <g id="Group_101" data-name="Group 101" transform="translate(-3601.659 -1539.32)">
      <g id="Group_98-2" data-name="Group 98" transform="translate(4277.412 7123.742)">
        <path id="Path_851-2" data-name="Path 851" d="M4383.32,7465.289v22.073c0,7.211,10.412,13.072,24.026,13.2v-36.867C4399.321,7464.391,4391.3,7465.079,4383.32,7465.289Z" transform="translate(-4318.223 -7219.666)" fill="#2b2b2b"/>
        <path id="Path_852-2" data-name="Path 852" d="M4439.441,7465.289v22.073c0,7.211-10.411,13.072-24.026,13.2v-36.867C4423.441,7464.391,4431.462,7465.079,4439.441,7465.289Z" transform="translate(-4326.292 -7219.666)" fill="#2b2b2b"/>
        <path id="Path_853-2" data-name="Path 853" d="M4398.192,7137.711c-7.122,7.1-51.282,47.2-51.282,109.117v119.66c0,15.589,22.792,28.256,51.282,28.521Z" transform="translate(-4309.069 -7137.711)" fill="#56184b"/>
        <path id="Path_854-2" data-name="Path 854" d="M4415.415,7137.711c7.123,7.1,51.283,47.2,51.283,109.117v119.66c0,15.589-22.792,28.256-51.283,28.521Z" transform="translate(-4326.292 -7137.711)" fill="url(#linear-gradient)"/>
        <path id="Path_855-2" data-name="Path 855" d="M4483.921,7372.663l.208-.007c3.421,3.491,6.911,7.13,10.239,10.9,32.664,36.946,27.023,69.989,27.023,69.989a448.622,448.622,0,0,0-37.469-33.945Z" transform="translate(-4343.515 -7196.778)" fill="#e64d12"/>
        <path id="Path_856-2" data-name="Path 856" d="M4334.2,7372.663l-.208-.007c-3.421,3.491-6.91,7.13-10.239,10.9-32.664,36.946-27.022,69.989-27.022,69.989A448.807,448.807,0,0,1,4334.2,7419.6Z" transform="translate(-4296.36 -7196.778)" fill="#da2c0a"/>
        <path id="Path_857-2" data-name="Path 857" d="M4408.507,7387.306s-20.568,23.4-20.568,52.269,20.568,52.271,20.568,52.271Z" transform="translate(-4319.384 -7200.461)" fill="#da2c0a"/>
        <path id="Path_858-2" data-name="Path 858" d="M4415.415,7387.306s20.567,23.4,20.567,52.269-20.567,52.271-20.567,52.271Z" transform="translate(-4326.292 -7200.461)" fill="#e64d12"/>
        <path id="Path_859-2" data-name="Path 859" d="M4408.467,7308.144l-12.794,21.509-6.392-22.9Z" transform="translate(-4319.722 -7180.209)" fill="#fff" stroke="#8d1f77" stroke-miterlimit="10" stroke-width="1.215"/>
        <path id="Path_860-2" data-name="Path 860" d="M4382.139,7301.216l-12.795,21.509-6.391-22.9Z" transform="translate(-4313.103 -7178.467)" fill="#fff" stroke="#8d1f77" stroke-miterlimit="10" stroke-width="1.215"/>
        <path id="Path_861-2" data-name="Path 861" d="M4398.192,7137.711c-7.122,7.1-51.282,47.2-51.282,109.117,0,28.323,102.565,28.323,102.565,0C4449.475,7184.907,4405.315,7144.807,4398.192,7137.711Z" transform="translate(-4309.069 -7137.711)" fill="#8d1f77"/>
        <circle id="Ellipse_10" data-name="Ellipse 10" cx="10.329" cy="10.329" r="10.329" transform="matrix(1, -0.021, 0.021, 1, 98.317, 80.887)" fill="#fff"/>
        <path id="Path_862-2" data-name="Path 862" d="M4444.306,7257.993a3.8,3.8,0,1,1-3.8-3.8A3.8,3.8,0,0,1,4444.306,7257.993Z" transform="translate(-4331.643 -7166.994)" fill="#2b2b2b"/>
        <circle id="Ellipse_11" data-name="Ellipse 11" cx="10.329" cy="10.329" r="10.329" transform="matrix(1, -0.024, 0.024, 1, 58.727, 80.919)" fill="#fff"/>
        <path id="Path_863-2" data-name="Path 863" d="M4391.458,7257.993a3.8,3.8,0,1,1-3.8-3.8A3.8,3.8,0,0,1,4391.458,7257.993Z" transform="translate(-4318.356 -7166.994)" fill="#2b2b2b"/>
        <path id="Path_864-2" data-name="Path 864" d="M4367.467,7264.439a21.415,21.415,0,0,0,11.537,9.533S4366,7273.081,4367.467,7264.439Z" transform="translate(-4314.208 -7169.571)" fill="#2b2b2b"/>
      </g>
      <rect id="Rectangle_489" data-name="Rectangle 489" width="74.762" height="52.813" transform="matrix(0.782, -0.623, 0.623, 0.782, 4220.993, 7311.306)" fill="#dff1f6"/>
      <path id="Path_865-2" data-name="Path 865" d="M4268.793,7373.975l10.694-47.917-58.462,46.549Z" transform="translate(-0.008 -61.321)" fill="#ffc32e"/>
      <path id="Path_866-2" data-name="Path 866" d="M4281.245,7325.121l-6.284.75a5.037,5.037,0,0,1-5.531-3.964l-.447-2.126a18.077,18.077,0,0,1,1.171-11.068l.226-.512v-74.66h14.981Z" transform="translate(-11.968 -38.062)" fill="#d79663"/>
      <path id="Path_867-2" data-name="Path 867" d="M4332.242,7452.108l-6.06,2.26-4.568-2.26-12.634-66.859-4.929-43.049h0l3.067,41.685,1.862,68.224-7.235,2.26-3.339-2.26-18.72-107.173-3.253-23.176,56.924-.65-3.827,61.564,1.843,20.419Z" transform="translate(-13.938 -60.076)" fill="#d79663"/>
      <path id="Path_868-2" data-name="Path 868" d="M4347.416,7504.671h-10.248l-.38-8.568h10.628Z" transform="translate(-29.112 -104.072)" fill="#d79663"/>
      <path id="Path_869-2" data-name="Path 869" d="M4313.684,7504.671,4312,7516.059l-16.863-7.808,5.314-6.831,2.6-5.316h10.627Z" transform="translate(-18.641 -104.072)" fill="#d79663"/>
      <path id="Path_870-2" data-name="Path 870" d="M4333.312,7520.014h21.038v-.31a13.706,13.706,0,0,0-2.4-7.749l-3.447-5.024a6.579,6.579,0,0,0-5.424-2.859h-1.671a6.581,6.581,0,0,0-6.374,4.954l-1.412,5.548a9.982,9.982,0,0,0-.308,2.461Z" transform="translate(-28.238 -106.076)" fill="#050606"/>
      <path id="Path_871-2" data-name="Path 871" d="M4271.888,7520.451h35.95v-13.339l-1.763.889a9.752,9.752,0,0,1-8.2.273l-5.812-2.464-17.166,8.861a5.554,5.554,0,0,0-3.005,4.934Z" transform="translate(-12.796 -106.513)" fill="#050606"/>
      <path id="Path_872-2" data-name="Path 872" d="M4353.777,7519.775a13.664,13.664,0,0,1,.573,3.877v.31h-21.038v-2.979a10.181,10.181,0,0,1,.075-1.208Z" transform="translate(-28.238 -110.023)" fill="#352e26"/>
      <path id="Path_873-2" data-name="Path 873" d="M4307.838,7519.775v4.187h-35.95v-.846a5.5,5.5,0,0,1,1.178-3.341Z" transform="translate(-12.796 -110.023)" fill="#352e26"/>
      <path id="Path_874-2" data-name="Path 874" d="M4276.433,7321.448s1.052,39.555,6.932,68.274c.829,4.047,49.993-.076,49.993-.076s.346-55.336,0-68.849l-31.582-.922Z" transform="translate(-13.938 -59.767)" fill="#1e1a18"/>
      <path id="Path_875-2" data-name="Path 875" d="M4354.466,7309.7l-.162-1.674-6.979-72.118,13.61-1.785,1.412,38.069v37.025Z" transform="translate(-31.761 -38.208)" fill="#d79663"/>
      <path id="Path_876-2" data-name="Path 876" d="M4357.07,7350.062l-2.767-.267a4.842,4.842,0,0,1-4.378-4.867l.027-2.636a4.161,4.161,0,0,1,1.606-3.244l3.352-2.88.048-3.322,8.043,1.189-.176,11.059A5.26,5.26,0,0,1,4357.07,7350.062Z" transform="translate(-32.415 -63.028)" fill="#d79663"/>
      <path id="Path_877-2" data-name="Path 877" d="M4330.767,7286.593h0c-1.654-12.778-2.934-25.141-9.069-36.471l-1.088-2.007-5.366-10.41,12.07-19.093,1.333,8.238,12.067-2.074-.864-15.892a18.274,18.274,0,0,0-14.084-16.8l-13.212-3.09-13.6.356-14.81,6.084a9.339,9.339,0,0,0-5.782,8.3l-.117,3.293-2.787,8.359a8.923,8.923,0,0,0,.851,7.47l6.477,10.6-1.2,25.758-1.324,28.022Z" transform="translate(-13.578 -26.862)" fill="#fec28a"/>
      <g id="Group_99-2" data-name="Group 99" transform="translate(4270.336 7113.489)">
        <path id="Path_878-2" data-name="Path 878" d="M4322.858,7129.006a1.249,1.249,0,0,0,.62-.164,19.26,19.26,0,0,1,11.578-2.206,1.261,1.261,0,1,0,.195-2.515,21.915,21.915,0,0,0-13.016,2.525,1.261,1.261,0,0,0,.623,2.359Z" transform="translate(-4295.628 -7124.015)" fill="#7a4043"/>
        <path id="Path_879-2" data-name="Path 879" d="M4300.464,7129.006a1.261,1.261,0,0,0,.622-2.359,21.912,21.912,0,0,0-13.014-2.525,1.262,1.262,0,0,0-1.161,1.355,1.244,1.244,0,0,0,1.354,1.16,19.27,19.27,0,0,1,11.58,2.206A1.247,1.247,0,0,0,4300.464,7129.006Z" transform="translate(-4286.908 -7124.015)" fill="#7a4043"/>
      </g>
      <path id="Path_880-2" data-name="Path 880" d="M4327.869,7183.9s-36.895,18.53-63.645,12.276c11.214-10.634,11.226-55.1,11.226-55.1l.852-30.967,51.4-6.937,5.423,22.608Z" transform="translate(-10.869 -5.286)" fill="#1a1410"/>
      <path id="Path_881-2" data-name="Path 881" d="M4331.388,7287.455l-56.925.65s-4-28.847,2.7-54.744c-4.654-3.086-6.91-10.26-6.91-10.26a9.4,9.4,0,0,1-1.075-8.56l3.008-8.183.122-3.107a10.72,10.72,0,0,1,7.257-9.455l16.568-6.177,15.438-.367,14.742,3.128c9.335,1.98,16.109,9.313,16.629,18l1.021,17.045-16.426,2.882-.5-1.892-2.078,3.521c-3.94,5.357-1.867,16.367-1.867,16.367,7.181,16.708,7.272,27.34,8.3,41.153Z" transform="translate(-11.968 -26.424)" fill="#ffd877"/>
      <path id="Path_882-2" data-name="Path 882" d="M4321.437,7187.878c-8.82,8.234-15.238,11.849-16.153,4.88l.04-18.544h16.113Z" transform="translate(-21.192 -23.146)" fill="#d79663"/>
      <path id="Path_883-2" data-name="Path 883" d="M4305.3,7186.14l.014-13.664h16.114v9.76C4317.549,7184.681,4309.513,7188.291,4305.3,7186.14Z" transform="translate(-21.196 -22.709)" fill="#b67c53"/>
      <path id="Path_884-2" data-name="Path 884" d="M4337.764,7138.635c.822-4.643,4.038-7.955,7.181-7.4s5.025,4.772,4.2,9.417-4.038,7.956-7.182,7.4S4336.941,7143.279,4337.764,7138.635Z" transform="translate(-29.309 -12.326)" fill="#fec28a"/>
      <path id="Path_885-2" data-name="Path 885" d="M4305.779,7160.422h0a23.75,23.75,0,0,1-23.748-23.75v-30.691h47.5v30.691A23.75,23.75,0,0,1,4305.779,7160.422Z" transform="translate(-15.345 -5.992)" fill="#d79663"/>
      <path id="Path_886-2" data-name="Path 886" d="M4333.168,7138.359c0,2.514-1.413,4.549-3.154,4.549s-3.152-2.035-3.152-4.549,1.411-4.548,3.152-4.548S4333.168,7135.846,4333.168,7138.359Z" transform="translate(-26.617 -12.988)" fill="#372013"/>
      <path id="Path_887-2" data-name="Path 887" d="M4293.014,7138.359c0,2.514,1.413,4.549,3.154,4.549s3.153-2.035,3.153-4.549-1.411-4.548-3.153-4.548S4293.014,7135.846,4293.014,7138.359Z" transform="translate(-18.107 -12.988)" fill="#372013"/>
      <path id="Path_888-2" data-name="Path 888" d="M4289.516,7127.963a5.63,5.63,0,0,1,3.776-2.922,6.728,6.728,0,0,1,5.49,1.333c1,1.024-.7,2.488-1.812,1.465a5.155,5.155,0,0,0-3.616-1c-1.234.167-2.087,1.07-3.1,1.584C4289.909,7128.6,4289.353,7128.3,4289.516,7127.963Z" transform="translate(-17.22 -10.749)" fill="#2a1710"/>
      <path id="Path_889-2" data-name="Path 889" d="M4334.349,7127.963a5.631,5.631,0,0,0-3.777-2.922,6.727,6.727,0,0,0-5.49,1.333c-1,1.024.7,2.488,1.811,1.465a5.157,5.157,0,0,1,3.616-1c1.234.167,2.088,1.07,3.1,1.584C4333.956,7128.6,4334.512,7128.3,4334.349,7127.963Z" transform="translate(-26.093 -10.749)" fill="#2a1710"/>
      <g id="Group_100-2" data-name="Group 100" transform="translate(4281.193 7138.645)">
        <path id="Path_890-2" data-name="Path 890" d="M4309.86,7161.884a15.993,15.993,0,0,0,7.858-2.182,1.113,1.113,0,0,0-1.085-1.943,13.023,13.023,0,0,1-13.57,0,1.114,1.114,0,0,0-1.081,1.947A16.1,16.1,0,0,0,4309.86,7161.884Z" transform="translate(-4301.411 -7157.619)" fill="#ba683c"/>
      </g>
      <path id="Path_891-2" data-name="Path 891" d="M4335.912,7300.607l.609-23.423-.609-11.218s-2.733-7.945-2.6-8.935,9.994-17.468,9.994-17.468-5.217,10.3-4.61,16.82,8.224,15.092,8.962,44.223Z" transform="translate(-28.237 -39.576)" fill="#ffc22d"/>
      <path id="Path_892-2" data-name="Path 892" d="M4279.832,7248.847l4.2,2.445h-4.795Z" transform="translate(-14.642 -41.91)" fill="#ffc22d"/>
      <path id="Path_893-2" data-name="Path 893" d="M4333.653,7127.962c-1.045-.737-4.437-.949-10.461-1.109s-13.032,2.713-14.719,3.114a15.552,15.552,0,0,1-3.333.385h-.964a15.3,15.3,0,0,1-3.293-.385c-1.686-.4-8.674-3.324-14.7-3.164s-9.4.4-10.442,1.136l-.4,3.539s1.445.018,1.767.9.723,9.564,3.855,11.654,5.056,2.218,8.192,2.253,8.515.36,13.172-10.482c0,0,.241-1.727,1.847-1.727h.964a1.933,1.933,0,0,1,1.887,1.729c4.659,10.843,10.081,10.5,13.213,10.462s5.06-.153,8.193-2.242,3.534-10.762,3.855-11.646,1.768-.891,1.768-.891Zm-33.975,9.251c-.777,4.593-4.433,7.873-10.134,7.873-6.573,0-9.707-3.134-10.108-7.632-.155-1.739-.032-5.462,1.366-6.987,1.965-2.147,5.532-2.463,9.077-2.089,4.33.457,7.617,1.4,9.478,3.614C4300.5,7133.349,4299.963,7135.526,4299.678,7137.213Zm30.444,0c-.4,4.5-3.534,7.631-10.107,7.631-5.7,0-9.357-3.279-10.133-7.871-.285-1.687-.82-3.864.321-5.221,1.861-2.212,5.147-3.159,9.478-3.614,3.543-.374,7.11-.06,9.077,2.088C4330.155,7131.752,4330.278,7135.473,4330.123,7137.213Z" transform="translate(-13.664 -11.225)" fill="#0e0e0e"/>
      <path id="Path_894-2" data-name="Path 894" d="M4317.12,7193.376c13.287-33.856,9.277-83.638,9.277-83.638s-3.628,8.938-9.592,8.742c-5.291-.175-12.712-18.962-19.306-18.491-6.352.452-12.066,12.153-17.1,17.058-1.634,1.589-3.3,2.608-4.649,3.776-2.017-8.866-2.41-17.251,2.252-25.747h0c7.842-11.81,26.619-12.926,26.619-12.926,8.639-.04,15.305.545,19.914,7.274h0c4.082,0,7.758,3.485,9.307,7.262h0c5.892,14.37,10.678,60.712,10.157,82.5,0,0-.844-7.7-11.167-13.621Z" transform="translate(-13.406)" fill="#2a1710"/>
    </g>
  </g>
</svg>
