<svg xmlns="http://www.w3.org/2000/svg" xmlns:xlink="http://www.w3.org/1999/xlink" width="123.394" height="149.902" viewBox="0 0 123.394 149.902"><defs><style>.a{fill:url(#a);}.b,.d{fill:#fff;}.b{stroke:#a53089;stroke-miterlimit:10;stroke-width:1.233px;}.c{fill:url(#b);}.e{fill:#393939;}</style><linearGradient id="a" x1="13.15" y1="45.643" x2="13.15" y2="45.187" gradientUnits="objectBoundingBox"><stop offset="0" stop-color="#b31e3c"/><stop offset="1" stop-color="#8a182c"/></linearGradient><linearGradient id="b" y1="0.5" x2="1" y2="0.5" gradientUnits="objectBoundingBox"><stop offset="0" stop-color="#e32285"/><stop offset="1" stop-color="#e32285"/></linearGradient></defs><g transform="translate(-20.17 -8.59)"><path class="a" d="M120.9,182.509a4.143,4.143,0,0,1-4.144,4.144H106.8a4.143,4.143,0,0,1-4.144-4.144V155.7a4.143,4.143,0,0,1,4.144-4.144h9.95A4.143,4.143,0,0,1,120.9,155.7v26.805Z" transform="translate(-16.248 -28.16)"/><path class="b" d="M91.767,170.767,84.5,182.989,80.87,169.98Z" transform="translate(-11.956 -31.788)"/><path class="b" d="M77.825,167.1,70.55,179.319,66.92,166.31Z" transform="translate(-9.208 -31.066)"/><path class="c" d="M24.6,64.06,20.17,143.97s81.259,16.39,123.386,4.907V68.26Z" transform="translate(0 -10.926)"/><path class="d" d="M140.808,141.229a8.729,8.729,0,1,1-8.729-8.729A8.732,8.732,0,0,1,140.808,141.229Z" transform="translate(-20.323 -24.406)"/><path class="e" d="M136.644,142.582a3.212,3.212,0,1,1-3.212-3.212A3.211,3.211,0,0,1,136.644,142.582Z" transform="translate(-21.676 -25.759)"/><path class="d" d="M70.228,141.229A8.729,8.729,0,1,1,61.5,132.5,8.732,8.732,0,0,1,70.228,141.229Z" transform="translate(-6.421 -24.406)"/><path class="e" d="M66.074,142.582a3.212,3.212,0,1,1-3.212-3.212A3.211,3.211,0,0,1,66.074,142.582Z" transform="translate(-7.776 -25.759)"/><path class="e" d="M50.036,147.44a18.079,18.079,0,0,0,9.749,8.054S48.8,154.748,50.036,147.44Z" transform="translate(-5.864 -27.349)"/><path class="c" d="M135.889,56.981V52.6L31.27,13.408,33.759,8.59,145.75,51.135v6.2L142.86,61.59Z" transform="translate(-2.186)"/></g></svg>