<svg xmlns="http://www.w3.org/2000/svg" xmlns:xlink="http://www.w3.org/1999/xlink" width="154.123" height="143.439" viewBox="0 0 154.123 143.439"><defs><style>.a,.c{fill:#fff;}.a{stroke:#a53089;stroke-miterlimit:10;stroke-width:1.22px;}.b{fill:url(#a);}.d{fill:#393939;}.e{fill:#41235a;}</style><linearGradient id="a" y1="0.5" x2="1" y2="0.5" gradientUnits="objectBoundingBox"><stop offset="0" stop-color="#e32285"/><stop offset="1" stop-color="#e32285"/></linearGradient></defs><g transform="translate(-5.79 -11.31)"><path class="a" d="M85.53,178.13l.766,5.719L96.788,185V178.13Z" transform="translate(-14.784 -30.928)"/><path class="a" d="M102.16,178.13V185h10.679l-2.672-6.867Z" transform="translate(-17.867 -30.928)"/><path class="b" d="M29.448,79.956l-4.008,71.97s77.241,15.575,117.294,4.668V79.956L117.71,71.679l-4.326,4.114A308.482,308.482,0,0,0,62.04,74.6L56.484,70.49C47.182,71.4,29.448,79.956,29.448,79.956Z" transform="translate(-3.643 -10.972)"/><path class="c" d="M139.782,149.651a8.3,8.3,0,1,1-8.3-8.3A8.3,8.3,0,0,1,139.782,149.651Z" transform="translate(-21.764 -24.109)"/><path class="d" d="M135.74,150.845a3.055,3.055,0,1,1-3.055-3.055A3.056,3.056,0,0,1,135.74,150.845Z" transform="translate(-22.96 -25.303)"/><path class="c" d="M73.652,149.651a8.3,8.3,0,1,1-8.3-8.3A8.3,8.3,0,0,1,73.652,149.651Z" transform="translate(-9.504 -24.109)"/><path class="d" d="M69.6,150.845a3.055,3.055,0,1,1-3.055-3.055A3.056,3.056,0,0,1,69.6,150.845Z" transform="translate(-10.697 -25.303)"/><path class="d" d="M51.4,155.35a17.225,17.225,0,0,0,9.27,7.657C60.669,163.015,50.226,162.3,51.4,155.35Z" transform="translate(-8.439 -26.705)"/><path class="e" d="M18.18,67.974l34.1-13.726,2.085-15.771s13.514-7.348,29.611-7.348,30.645,6.892,30.645,6.892l1.466,15.73,33.1,15.8,9.189-10.028,1.54-11.421S136.1,11.31,84.277,11.31,10.36,37.776,10.36,37.776L5.79,50.623Z"/></g></svg>