<svg xmlns="http://www.w3.org/2000/svg" xmlns:xlink="http://www.w3.org/1999/xlink" width="559" height="440.087" viewBox="0 0 559 440.087">
  <defs>
    <clipPath id="clip-path">
      <path id="Path_1095" data-name="Path 1095" d="M3032.008,8343.48c-.016-.2-1.785-.369-3.96-.369s-3.933.164-3.959.367h0v.363h1.561v-.358a12.877,12.877,0,0,1,4.8,0v.358h1.56v-.361Z" transform="translate(-3024.088 -8343.111)"/>
    </clipPath>
    <filter id="Path_1094" x="135.921" y="368.37" width="6.491" height="4.715" filterUnits="userSpaceOnUse">
      <feOffset dy="0.861" input="SourceAlpha"/>
      <feGaussianBlur stdDeviation="0.759" result="blur"/>
      <feFlood flood-color="#1b1919" flood-opacity="0.749"/>
      <feComposite operator="in" in2="blur"/>
      <feComposite in="SourceGraphic"/>
    </filter>
    <clipPath id="clip-path-2">
      <path id="Path_1098" data-name="Path 1098" d="M3003.286,8346.277l9.54.9-1.1.1-9.54-.9Z" transform="translate(-3002.183 -8346.277)"/>
    </clipPath>
    <filter id="Path_1097" x="126.941" y="367.916" width="6.48" height="4.721" filterUnits="userSpaceOnUse">
      <feOffset dx="-0.43" dy="-0.43" input="SourceAlpha"/>
      <feGaussianBlur stdDeviation="0.759" result="blur-2"/>
      <feFlood flood-color="#1b1919" flood-opacity="0.749"/>
      <feComposite operator="in" in2="blur-2"/>
      <feComposite in="SourceGraphic"/>
    </filter>
    <linearGradient id="linear-gradient" x1="4.477" y1="24.285" x2="4.477" y2="23.905" gradientUnits="objectBoundingBox">
      <stop offset="0" stop-color="#a10a2d"/>
      <stop offset="1" stop-color="#750b21"/>
    </linearGradient>
    <linearGradient id="linear-gradient-2" y1="0.5" x2="1" y2="0.5" gradientUnits="objectBoundingBox">
      <stop offset="0" stop-color="#d50073"/>
      <stop offset="1" stop-color="#d50073"/>
    </linearGradient>
    <linearGradient id="linear-gradient-3" x1="0.155" y1="1.198" x2="0.305" y2="0.886" xlink:href="#linear-gradient-2"/>
    <linearGradient id="linear-gradient-6" x1="-25.628" y1="0.5" x2="3.331" y2="0.5" gradientUnits="objectBoundingBox">
      <stop offset="0" stop-color="#412066"/>
      <stop offset="0.25" stop-color="#601e72"/>
      <stop offset="0.5" stop-color="#881874"/>
      <stop offset="0.75" stop-color="#a50e72"/>
      <stop offset="1" stop-color="#d50073"/>
    </linearGradient>
    <linearGradient id="linear-gradient-7" x1="-3.25" y1="0.5" x2="0.906" y2="0.5" xlink:href="#linear-gradient-6"/>
    <linearGradient id="linear-gradient-8" x1="-1.053" y1="0.5" x2="3.195" y2="0.5" xlink:href="#linear-gradient-6"/>
    <linearGradient id="linear-gradient-9" x1="-22.321" y1="0.5" x2="6.647" y2="0.5" xlink:href="#linear-gradient-6"/>
    <linearGradient id="linear-gradient-10" x1="-3.595" y1="0.5" x2="2.113" y2="0.5" xlink:href="#linear-gradient-6"/>
    <clipPath id="clip-path-3">
      <path id="Path_1095-2" data-name="Path 1095" d="M3032.008,8347.042a3.96,3.96,0,0,0-7.919-.019h0v3.857h1.561v-3.81a2.4,2.4,0,0,1,4.8,0v3.81h1.56v-3.839Z" transform="translate(-3024.088 -8343.111)" fill="none"/>
    </clipPath>
    <filter id="Path_1094-2" x="135.921" y="140.953" width="6.491" height="6.254" filterUnits="userSpaceOnUse">
      <feOffset dy="0.861" input="SourceAlpha"/>
      <feGaussianBlur stdDeviation="0.759" result="blur-3"/>
      <feFlood flood-color="#1b1919" flood-opacity="0.749"/>
      <feComposite operator="in" in2="blur-3"/>
      <feComposite in="SourceGraphic"/>
    </filter>
    <linearGradient id="linear-gradient-11" x1="-1.324" y1="0.5" x2="1.842" y2="0.5" xlink:href="#linear-gradient-6"/>
    <linearGradient id="linear-gradient-12" x1="-1.063" y1="0.5" x2="3.381" y2="0.5" xlink:href="#linear-gradient-6"/>
    <linearGradient id="linear-gradient-13" x1="-22.321" y1="0.5" x2="6.65" y2="0.5" xlink:href="#linear-gradient-6"/>
    <clipPath id="clip-path-4">
      <path id="Path_1098-2" data-name="Path 1098" d="M3003.286,8346.277l9.54,9.563-1.1,1.1-9.54-9.563Z" transform="translate(-3002.183 -8346.277)" fill="none"/>
    </clipPath>
    <linearGradient id="linear-gradient-14" x1="-10.351" y1="0.5" x2="13.14" y2="0.5" xlink:href="#linear-gradient-6"/>
    <filter id="Path_1097-2" x="126.941" y="148.564" width="6.48" height="6.32" filterUnits="userSpaceOnUse">
      <feOffset dx="-0.43" dy="-0.43" input="SourceAlpha"/>
      <feGaussianBlur stdDeviation="0.759" result="blur-4"/>
      <feFlood flood-color="#1b1919" flood-opacity="0.749"/>
      <feComposite operator="in" in2="blur-4"/>
      <feComposite in="SourceGraphic"/>
    </filter>
    <linearGradient id="linear-gradient-16" x1="-0.707" y1="0.5" x2="5.001" y2="0.5" xlink:href="#linear-gradient-6"/>
    <linearGradient id="linear-gradient-17" x1="0.244" y1="0.697" x2="1.078" y2="0.161" gradientUnits="objectBoundingBox">
      <stop offset="0" stop-color="#2c1a49"/>
      <stop offset="0.701" stop-color="#fbfafa"/>
    </linearGradient>
    <linearGradient id="linear-gradient-18" x1="0.096" y1="0.5" x2="5.803" y2="0.5" xlink:href="#linear-gradient-6"/>
  </defs>
  <g id="Group_192" data-name="Group 192" transform="translate(-998 -59)">
    <g id="Group_175" data-name="Group 175" transform="translate(-1850.791 -7750.283)" opacity="0.3">
      <g id="Group_129" data-name="Group 129" transform="translate(2848.791 8165.689)">
        <path id="Path_1024" data-name="Path 1024" d="M2848.791,8328.376l33.235-1.562,8.267,4.528Z" transform="translate(-2848.791 -8314.876)"/>
        <path id="Path_1025" data-name="Path 1025" d="M3194.41,8338.153l72.677.274-2.24.631-70.436-.575Z" transform="translate(-2921.935 -8325.375)"/>
        <path id="Path_1026" data-name="Path 1026" d="M3242.119,8305.26c0,.326-2.812.591-6.279.591h-15.072c-3.468,0-6.279-.265-6.279-.591v-3.816c0-.325,2.812-.59,6.279-.59h15.072c3.468,0,6.279.265,6.279.59Z" transform="translate(-2926.184 -8290.839)"/>
        <path id="Path_1027" data-name="Path 1027" d="M3160.82,8370.511l24.749,4.691,39.4.7-3.98-1.728Z" transform="translate(-2914.826 -8355.335)"/>
        <path id="Path_1028" data-name="Path 1028" d="M3216.925,8396.741l23.394,1.075,38.67-2.844Z" transform="translate(-2926.7 -8377.984)"/>
        <path id="Path_1029" data-name="Path 1029" d="M3294.235,8398.325l-4.044.985,2.51.219Z" transform="translate(-2942.206 -8381.089)"/>
        <path id="Path_1030" data-name="Path 1030" d="M3296.828,8396.02l.107,1.244,3.86.076Z" transform="translate(-2943.61 -8378.954)"/>
        <path id="Path_1031" data-name="Path 1031" d="M3298.231,8385.441l12.3-.2-3.75-.437Z" transform="translate(-2943.907 -8368.567)"/>
        <path id="Path_1423" data-name="Path 1423" d="M0,0,159.715,47.405,193.2,70.133,33.486,22.728Z" transform="matrix(0.949, -0.314, 0.314, 0.949, 353.547, 17.1)"/>
        <path id="Path_1032" data-name="Path 1032" d="M3405.082,8335.581l-107.842-3.8,166.451-5.178Z" transform="translate(-2943.698 -8314.678)"/>
        <path id="Path_1033" data-name="Path 1033" d="M3094.071,8522.952v-4.34s5.726-2.437,12.5-5.93l67.7,1.23a192.211,192.211,0,0,1-38.113,7.281s15.782.879,27.474,1.758Z" transform="translate(-2900.7 -8486.973)"/>
        <path id="Path_1034" data-name="Path 1034" d="M3178.027,8344.263s26.468,11.284,12.066,15.279l-51.921,1.087s24.849-9.421,33.922-15.856Z" transform="translate(-2910.033 -8331.031)"/>
        <path id="Path_1035" data-name="Path 1035" d="M3028.376,8385.159s-73.264-1.856-160.358-8.613c0,0,57.284,14.283,164.722,15.222l24.666-2.971Z" transform="translate(-2852.86 -8360.923)"/>
        <path id="Path_1036" data-name="Path 1036" d="M3017.841,8390.338s-83.74-1.178-149.823-13.792c0,0,57.284,14.283,164.722,15.222Z" transform="translate(-2852.86 -8360.923)"/>
        <path id="Path_1037" data-name="Path 1037" d="M2906.573,8387.878l28.058,1.63v-2.18Z" transform="translate(-2861.019 -8370.906)"/>
        <path id="Path_1038" data-name="Path 1038" d="M3049.277,8296v-4.34s38.579-16.421,33.9-25.1l71.627,6.189s-14.343,16.661-63.444,21.5c0,0,15.783.88,27.473,1.759Z" transform="translate(-2891.22 -8259.088)"/>
        <path id="Path_1039" data-name="Path 1039" d="M3289.41,8272.139l15.517.863-4.381-1.512Z" transform="translate(-2942.041 -8263.651)" stroke="#8d1f77" stroke-miterlimit="10" stroke-width="1.215"/>
        <path id="Path_1040" data-name="Path 1040" d="M3246.073,8288.111l17.236,1.032,1.308-1.856Z" transform="translate(-2932.869 -8278.277)" stroke="#8d1f77" stroke-miterlimit="10" stroke-width="1.215"/>
        <path id="Path_1041" data-name="Path 1041" d="M3271.653,8282.982l16.979,1.115-2.98-1.828Z" transform="translate(-2938.282 -8273.632)" stroke="#8d1f77" stroke-miterlimit="10" stroke-width="1.215"/>
        <path id="Path_1042" data-name="Path 1042" d="M3092.281,8176.77l158.537-7.185,22.313,7.413s-77.46,3.9-109.223,5.961l-46.306-1.754Z" transform="translate(-2900.321 -8169.296)"/>
        <path id="Path_1043" data-name="Path 1043" d="M3250.818,8165.978l-102.612-.289-55.925,7.474Z" transform="translate(-2900.321 -8165.689)"/>
        <path id="Path_1044" data-name="Path 1044" d="M3092.281,8176.771l158.537-7.185-67.156,7.55Z" transform="translate(-2900.321 -8169.297)"/>
        <path id="Path_1045" data-name="Path 1045" d="M3139.056,8371.6l-48.66,4.02,3.427,4.37,19.468-.938Z" transform="translate(-2899.922 -8356.343)"/>
        <path id="Path_1046" data-name="Path 1046" d="M3108.256,8451.153l-17.871,2.3,26.756,4.741Z" transform="translate(-2899.92 -8430.003)"/>
        <path id="Path_1047" data-name="Path 1047" d="M3148.5,8303.819a6.3,6.3,0,1,1-1.169-.109A3.2,3.2,0,0,1,3148.5,8303.819Z" transform="translate(-2911.723 -8293.483)"/>
        <path id="Path_1048" data-name="Path 1048" d="M3175.483,8303.819a6.3,6.3,0,1,1-1.169-.109A3.2,3.2,0,0,1,3175.483,8303.819Z" transform="translate(-2917.435 -8293.483)"/>
        <path id="Path_1049" data-name="Path 1049" d="M3192.891,8322.766a6.246,6.246,0,1,1-1.169-.11A3.217,3.217,0,0,1,3192.891,8322.766Z" transform="translate(-2921.119 -8311.025)"/>
        <path id="Path_1050" data-name="Path 1050" d="M3153.623,8325.731a6.249,6.249,0,1,1-1.169-.11A3.217,3.217,0,0,1,3153.623,8325.731Z" transform="translate(-2912.809 -8313.771)"/>
        <path id="Path_1051" data-name="Path 1051" d="M3138.794,8344.847a6.249,6.249,0,1,1-1.169-.11A3.216,3.216,0,0,1,3138.794,8344.847Z" transform="translate(-2909.67 -8331.471)"/>
        <path id="Path_1052" data-name="Path 1052" d="M3173.234,8239.752c0,.789-6.805,1.429-15.2,1.429s-15.2-.64-15.2-1.429,6.8-1.428,15.2-1.428S3173.234,8238.964,3173.234,8239.752Z" transform="translate(-2911.021 -8232.942)"/>
        <path id="Path_1053" data-name="Path 1053" d="M3220.12,8229.656c0,.66-5.692,1.194-12.715,1.194s-12.715-.534-12.715-1.194,5.693-1.2,12.715-1.2S3220.12,8229,3220.12,8229.656Z" transform="translate(-2921.995 -8223.81)"/>
        <path id="Path_1054" data-name="Path 1054" d="M3142.318,8271.49s5.7.655,16.478.774C3158.8,8272.265,3142.953,8272.5,3142.318,8271.49Z" transform="translate(-2910.911 -8263.651)"/>
        <path id="Path_1055" data-name="Path 1055" d="M3167.128,8249.556c0,.355-3.067.644-6.851.644s-6.851-.288-6.851-.644,3.067-.644,6.851-.644S3167.128,8249.2,3167.128,8249.556Z" transform="translate(-2913.262 -8242.746)"/>
        <path id="Path_1056" data-name="Path 1056" d="M3214.245,8239.09c0,.243-2.1.439-4.684.439s-4.683-.2-4.683-.439,2.1-.44,4.683-.44S3214.245,8238.847,3214.245,8239.09Z" transform="translate(-2924.151 -8233.243)"/>
        <path id="Path_1057" data-name="Path 1057" d="M3120.358,8545.089l-.727,1.226,3.607.158Z" transform="translate(-2906.109 -8516.979)"/>
        <path id="Path_1058" data-name="Path 1058" d="M3124.377,8550.48l2.955,1.42,4.585.009Z" transform="translate(-2907.114 -8521.97)"/>
        <path id="Path_1059" data-name="Path 1059" d="M3127.729,8548.4l8.113,1.132,3.159-.58Z" transform="translate(-2907.823 -8520.044)"/>
        <path id="Path_1060" data-name="Path 1060" d="M3140.132,8655.755l.676-.655s7.311.045,6.879.086S3140.132,8655.755,3140.132,8655.755Z" transform="translate(-2910.448 -8618.838)"/>
        <path id="Path_1061" data-name="Path 1061" d="M3194.108,8642.587l-5.571-.167-3.918.656Z" transform="translate(-2919.863 -8607.098)"/>
        <path id="Path_1062" data-name="Path 1062" d="M3307.327,8227.766l-9.338.788,9.338,2.788,9.338-.474Z" transform="translate(-2943.856 -8223.166)"/>
      </g>
      <g id="Group_139" data-name="Group 139" transform="translate(2928.651 8168.069)">
        <path id="Path_1063" data-name="Path 1063" d="M2975.9,8372l-2.41.027a28.771,28.771,0,0,1-6.811-.46l-.918-.409c-.5-.223-.238-.454.745-.662l1.343-.283,3.219-6.944,10.359-.753-1.6,9.075C2979.789,8371.8,2978.11,8371.978,2975.9,8372Z" transform="translate(-2953.352 -8350.314)"/>
        <path id="Path_1064" data-name="Path 1064" d="M2982.663,8316.347l2.482-.1-7.362,10.689-9.9-.18h0c-3.03-.338-4.387-.78-3.735-1.218l6.114-4.1.349-3.356C2970.693,8317.325,2975.4,8316.65,2982.663,8316.347Z" transform="translate(-2953.031 -8307.467)"/>
        <path id="Path_1065" data-name="Path 1065" d="M2965.509,8452.391l7.623.1,3.649.479-8.573-.156S2966.076,8452.547,2965.509,8452.391Z" transform="translate(-2953.353 -8433.527)"/>
        <g id="Group_130" data-name="Group 130" transform="translate(32.317 3.349)">
          <path id="Path_1066" data-name="Path 1066" d="M3028.6,8243.518c.232,0,.465-.006.68-.017,4.654-.248,9.033-.254,12.7-.228a4.84,4.84,0,0,0,1.486-.12c.058-.071-.511-.134-1.273-.14-3.85-.027-8.944-.022-14.276.261-.666.035-.9.114-.522.177A8.583,8.583,0,0,0,3028.6,8243.518Z" transform="translate(-2998.729 -8243.003)"/>
          <path id="Path_1067" data-name="Path 1067" d="M3005.955,8243.519a8.6,8.6,0,0,0,1.2-.066c.377-.062.144-.142-.522-.177-5.332-.283-10.432-.288-14.276-.261-.762.006-1.333.068-1.274.14a4.762,4.762,0,0,0,1.486.12c3.666-.026,8.046-.021,12.7.228C3005.487,8243.513,3005.723,8243.519,3005.955,8243.519Z" transform="translate(-2991.082 -8243.004)"/>
        </g>
        <path id="Path_1068" data-name="Path 1068" d="M3045.247,8461.795h-17.369l-20.16-10.212-3.154-.476-1.429,10.688h-19.27l-5.709-10.24v-3.265h59.952l1.19,6.351,3.57,2.1Z" transform="translate(-2956.029 -8429.73)"/>
        <path id="Path_1069" data-name="Path 1069" d="M3030.511,8320.542h-45.852c-5.434,0-9.76-.428-9.484-.938l3.88-7.168-2.169-.881c-2.195-.891,2.635-1.8,11.526-2.176l11.215-.471,22.5-.038,15.687.329c9.594.2,16.722.961,17.663,1.88l4.1,4.017-.937,4.8-11.65-.061h0c-3.113-.418-4.837-.913-4.957-1.424l-.68-2.92-3.888-3,2.528,7.127C3040.182,8320.124,3035.881,8320.542,3030.511,8320.542Z" transform="translate(-2955.396 -8300.641)"/>
        <path id="Path_1070" data-name="Path 1070" d="M3054.546,8313.313h0c9.594.2,16.722.96,17.663,1.88l4.1,4.017-.937,4.8-11.65-.061h0c-3.113-.418-4.837-.914-4.957-1.424l-.68-2.92-3.888-3Z" transform="translate(-2972.123 -8304.755)"/>
        <path id="Path_1071" data-name="Path 1071" d="M3029.262,8296.7c-12.62.85-21.8,1.222-23.112.5l.054-1.912h23.057Z" transform="translate(-2961.953 -8288.065)"/>
        <path id="Path_1072" data-name="Path 1072" d="M3006.171,8299.917l.021-1.006h23.057v.6C3023.7,8299.767,3016.215,8300.007,3006.171,8299.917Z" transform="translate(-2961.958 -8291.42)"/>
        <path id="Path_1073" data-name="Path 1073" d="M2978.075,8251.438c.9.479,4.429.82,7.876.764s5.511-.492,4.61-.971-4.429-.82-7.877-.764S2977.171,8250.96,2978.075,8251.438Z" transform="translate(-2955.967 -8246.56)"/>
        <path id="Path_1074" data-name="Path 1074" d="M3044.066,8251.231c.9-.479,4.427-.82,7.877-.764s5.511.492,4.608.971-4.427.82-7.875.764S3043.163,8251.71,3044.066,8251.231Z" transform="translate(-2969.933 -8246.56)"/>
        <path id="Rectangle_493" data-name="Rectangle 493" d="M5.612,0H46.49A5.612,5.612,0,0,1,52.1,5.612v0a0,0,0,0,1,0,0H0a0,0,0,0,1,0,0v0A5.612,5.612,0,0,1,5.612,0Z" transform="translate(80.414 7.57) rotate(180)"/>
        <path id="Path_1075" data-name="Path 1075" d="M3055.74,8631.446h-12.67l-1.844-.884h14.514Z" transform="translate(-2969.377 -8598.498)"/>
        <path id="Path_1076" data-name="Path 1076" d="M3003.7,8631.446l-1.842,1.174-18.5-.8,5.829-.705v-.548H3003.7Z" transform="translate(-2957.13 -8598.498)"/>
        <path id="Path_1077" data-name="Path 1077" d="M3039.614,8253.676c0,.26-1.547.47-3.458.47s-3.458-.21-3.458-.47,1.549-.469,3.458-.469S3039.614,8253.417,3039.614,8253.676Z" transform="translate(-2967.572 -8249.102)"/>
        <path id="Path_1078" data-name="Path 1078" d="M2997.445,8253.676c0,.26,1.548.47,3.458.47s3.459-.21,3.459-.47-1.549-.469-3.459-.469S2997.445,8253.417,2997.445,8253.676Z" transform="translate(-2960.111 -8249.102)"/>
        <path id="Path_1079" data-name="Path 1079" d="M3038.442,8202.832c-.008.171-.61.336-1.715.471h0l-5.067-3.378-6.764.184-36.464.621-3.808,2.573h0c-1.095-.171-1.69-.366-1.727-.565l-.183-1.036-1.836-.568c-2.01-.621-1.823-1.287.535-1.9h0c2.76-.715,7.345-.81,15.315-.944l8.157-.366a202.832,202.832,0,0,1,21.974.431l2.927.313h0c5.734.061,10.3.479,11.091,1.017h0c.558.38.4.766-.458,1.141l-1.919.837Z" transform="translate(-2956.313 -8197.799)"/>
        <path id="Rectangle_494" data-name="Rectangle 494" d="M.193,0H12.219a.193.193,0,0,1,.193.193v0a.193.193,0,0,1-.193.193H.193A.193.193,0,0,1,0,.193v0A.193.193,0,0,1,.193,0Z" transform="translate(74.305 3.802) rotate(180)"/>
        <path id="Path_1080" data-name="Path 1080" d="M3005.444,8244.233l-9.894-.008a3.927,3.927,0,0,1-1.458-.139l.01-.11a4.176,4.176,0,0,1,1.481-.137l9.9.008a3.906,3.906,0,0,1,1.457.14l-.009.109A4.169,4.169,0,0,1,3005.444,8244.233Z" transform="translate(-2959.402 -8240.429)"/>
        <path id="Path_1081" data-name="Path 1081" d="M3037.6,8640.773h25.932v-.2c0-.348-1.12-.687-3.217-.975l-2.863-.393a57.05,57.05,0,0,0-6.878-.341h-2.446a42.693,42.693,0,0,0-7.833.515l-.122.031c-1.7.438-2.574.9-2.574,1.366Z" transform="translate(-2968.61 -8606.182)"/>
        <path id="Path_1082" data-name="Path 1082" d="M2950.089,8642.45h46.571v-1.644h0a63.087,63.087,0,0,1-8.833.216l-8.475-.351-23.928.878c-3.217.118-5.335.409-5.335.733Z" transform="translate(-2950.089 -8607.858)"/>
        <path id="Path_1424" data-name="Path 1424" d="M0,0,48.466,35.256,73.372,61.865,24.906,26.609Z" transform="matrix(0.759, -0.651, 0.651, 0.759, 23.428, 23.88)"/>
        <path id="Path_1083" data-name="Path 1083" d="M3031.486,8459.745l-51.68.149,59.713-4.818Z" transform="translate(-2956.378 -8436.014)"/>
        <path id="Path_1084" data-name="Path 1084" d="M3070.377,8458.873h-3.637c-3.291,0-6.031-.236-6.315-.544l-.3-.323c-.143-.155.479-.309,1.686-.416l3.615-.321-.453-.446,11.65.061.627,1.314C3077.432,8458.565,3074.3,8458.873,3070.377,8458.873Z" transform="translate(-2973.373 -8437.631)"/>
        <path id="Path_1085" data-name="Path 1085" d="M2950.09,8660.8l46.571-.129v.3H2950.09Z" transform="translate(-2950.089 -8626.376)"/>
        <path id="Path_1086" data-name="Path 1086" d="M3037.6,8661.551l25.932.027v.2H3037.6Z" transform="translate(-2968.61 -8627.19)"/>
        <path id="Path_1087" data-name="Path 1087" d="M3041.24,8246.63c-1.1-.073-4.673-.094-11.017-.109s-13.725.269-15.5.308-3.51.038-3.51.038H3010.2s-1.69,0-3.467-.038-9.135-.329-15.479-.312-9.9.039-11,.112l-.422.35a15.885,15.885,0,0,1,1.86.09c.338.087.762.946,4.06,1.153s5.324.22,8.628.223a67.22,67.22,0,0,0,13.873-1.037,5.053,5.053,0,0,1,1.945-.171h1.016c1.775,0,1.987.171,1.987.171a67.594,67.594,0,0,0,13.915,1.035c3.3,0,5.329-.015,8.628-.222s3.723-1.065,4.061-1.152a15.838,15.838,0,0,1,1.86-.089Zm-35.78.916c-.819.454-4.669.779-10.672.779-6.923,0-10.223-.311-10.645-.756-.164-.172-.034-.54,1.437-.691,2.071-.213,5.828-.244,9.559-.207,4.561.046,8.021.14,9.981.358C3006.323,8247.163,3005.759,8247.379,3005.46,8247.546Zm32.062,0c-.422.444-3.722.755-10.645.755-6,0-9.854-.324-10.671-.779-.3-.167-.864-.382.338-.517,1.96-.219,5.421-.312,9.981-.357,3.732-.037,7.489-.006,9.559.206C3037.555,8247,3037.685,8247.373,3037.522,8247.546Z" transform="translate(-2956.383 -8242.905)"/>
        <g id="Group_131" data-name="Group 131" transform="translate(44.197 5.847)">
          <path id="Path_1088" data-name="Path 1088" d="M3016.654,8277.467c3.267,0,6.53-.346,9.77-.516.667-.035.905-.114.532-.177a11.079,11.079,0,0,0-1.882-.05,159.892,159.892,0,0,1-16.87,0,11.052,11.052,0,0,0-1.879.05c-.371.063-.131.143.537.178C3010.114,8277.121,3013.385,8277.467,3016.654,8277.467Z" transform="translate(-3006.151 -8276.708)"/>
        </g>
        <path id="Path_1089" data-name="Path 1089" d="M2965.509,8648.069l12.635-.538,10.694.538,11.085-.465" transform="translate(-2953.353 -8614.209)"/>
        <path id="Path_1090" data-name="Path 1090" d="M3005.618,8309.061v.866s.324.281,2.539.35,9.4-.087,20.573-.853v-.391l1.83.039s.642.362-.555.5-12.689.86-18.355.891-7.9-.15-7.981-.5a2.49,2.49,0,0,1,0-.812Z" transform="translate(-2961.421 -8300.792)"/>
        <path id="Path_1091" data-name="Path 1091" d="M3063.257,8451.572s12.13.111,14.1.111l-.065.338-11.65-.061S3063.726,8451.672,3063.257,8451.572Z" transform="translate(-2974.039 -8432.77)"/>
        <g id="Group_138" data-name="Group 138" transform="translate(29.103 10.598)">
          <path id="Path_1425" data-name="Path 1425" d="M0,0,.854.707,5.781,6.656l-.854-.707Z" transform="translate(37.156 1.248) rotate(-44.998)"/>
          <path id="Path_1426" data-name="Path 1426" d="M0,0,5.949,4.927l.707.854L.707.854Z" transform="translate(37.156 1.89) rotate(-45)"/>
          <path id="Path_1092" data-name="Path 1092" d="M3003.286,8346.277l9.54.9-1.1.1-9.54-.9Z" transform="translate(-2990.217 -8345.875)"/>
          <rect id="Rectangle_498" data-name="Rectangle 498" width="1.561" height="0.501" transform="translate(35.6 1.307)"/>
          <path id="Path_1093" data-name="Path 1093" d="M3032.008,8343.48c-.016-.2-1.785-.369-3.96-.369s-3.933.164-3.959.367h0v.363h1.561v-.358a12.877,12.877,0,0,1,4.8,0v.358h1.56v-.361Z" transform="translate(-2994.853 -8342.943)"/>
          <g id="Group_133" data-name="Group 133" transform="translate(29.235 0.168)">
            <g id="Group_132" data-name="Group 132" clip-path="url(#clip-path)">
              <g transform="matrix(1, 0, 0, 1, -138.2, -369.55)" filter="url(#Path_1094)">
                <path id="Path_1094-3" data-name="Path 1094" d="M3024.357,8346.28c-.167.04-.262.084-.269.13h0v.025c.238-.007.493-.012.758-.012.281,0,.552,0,.8.014v-.022c0-.045.138-.086.375-.121-.372-.011-.768-.017-1.178-.017Z" transform="translate(-2885.89 -7976.49)"/>
              </g>
            </g>
          </g>
          <path id="Path_1096" data-name="Path 1096" d="M3022.278,8345.086c-2.184,0-3.961.167-3.961.372a12.877,12.877,0,0,1-4.8,0v-.051h2.4v-.146h-2.4v-.27h-1.561v.476h0c.046.2,1.8.364,3.958.364a33.485,33.485,0,0,1,6.361,0c2.184,0,3.96-.167,3.96-.373S3024.462,8345.086,3022.278,8345.086Zm0,.6a1.21,1.21,0,1,1,2.4-.226A6.579,6.579,0,0,1,3022.278,8345.684Z" transform="translate(-2992.286 -8344.684)"/>
          <path id="Path_1427" data-name="Path 1427" d="M0,0,5.562,4.609l.707.854L.707.854Z" transform="matrix(0.707, -0.707, 0.707, 0.707, 12.513, 1.291)"/>
          <path id="Path_1428" data-name="Path 1428" d="M0,0,.854.707l.709.856L.709.856Z" transform="translate(35.271 1.071) rotate(-45)"/>
          <g id="Group_135" data-name="Group 135" transform="translate(11.966 0.403)">
            <g id="Group_134" data-name="Group 134" clip-path="url(#clip-path-2)">
              <g transform="matrix(1, 0, 0, 1, -120.93, -369.79)" filter="url(#Path_1097)">
                <path id="Path_1097-3" data-name="Path 1097" d="M3013.243,8357.657l.821.078,1.1-.1-.661-.062C3014.024,8357.591,3013.594,8357.621,3013.243,8357.657Z" transform="translate(-2883.59 -7986.95)"/>
              </g>
            </g>
          </g>
          <path id="Path_1099" data-name="Path 1099" d="M3022.278,8357.114a28.975,28.975,0,0,0-3.091.14,27.058,27.058,0,0,0-3.269-.162c-2.184,0-3.961.167-3.961.372h1.561a12.877,12.877,0,0,1,4.8,0v.231h1.561v-.209a12.873,12.873,0,0,1,4.8,0v.372h1.561v-.372C3026.238,8357.281,3024.462,8357.114,3022.278,8357.114Z" transform="translate(-2992.286 -8355.888)"/>
          <path id="Path_1100" data-name="Path 1100" d="M2999.034,8347.022c-2.184,0-3.961-.167-3.961-.372s1.777-.372,3.961-.372,3.96.167,3.96.372S3001.217,8347.022,2999.034,8347.022Zm0-.6a1.211,1.211,0,1,0,2.4.226A6.6,6.6,0,0,0,2999.034,8346.425Z" transform="translate(-2988.712 -8345.876)"/>
          <path id="Path_1101" data-name="Path 1101" d="M2996.634,8346.65h-1.561c0-.205,1.777-.372,3.961-.372v.146A6.6,6.6,0,0,0,2996.634,8346.65Z" transform="translate(-2988.712 -8345.876)" style="mix-blend-mode: multiply;isolation: isolate"/>
          <path id="Path_1102" data-name="Path 1102" d="M2990.966,8341.244c-.9,0-1.733.029-2.4.076v-.479H2987v1.147h1.561v-.372a12.877,12.877,0,0,1,4.8,0v.372h1.561v-.372C2994.926,8341.411,2993.149,8341.244,2990.966,8341.244Z" transform="translate(-2987.005 -8340.842)"/>
          <g id="Group_137" data-name="Group 137" transform="translate(11.604 1.505)">
            <g id="Group_136" data-name="Group 136">
              <path id="Path_1103" data-name="Path 1103" d="M3005.14,8361.529a4.482,4.482,0,0,1-1.44.138c-.194.007-.537.016-1.029.028a3.317,3.317,0,0,0-.36.025l-.2.038a1.247,1.247,0,0,1-.223.024c-.1,0-.161-.012-.161-.02a.523.523,0,0,1,.166-.03l.24-.028a.337.337,0,0,0,.1-.04.22.22,0,0,1,.093-.021.93.93,0,0,1,.146.009l.457-.061c.191-.028.286-.05.286-.065-.208.011-.437.019-.516.019s-.076-.01-.076-.01-.012-.009.047-.018.438-.023.847-.035.706-.017.921-.017.389,0,.515.017S3005.14,8361.509,3005.14,8361.529Zm-.265.008c0-.016-.056-.026-.166-.035s-.229-.011-.4-.011c-.138,0-.274,0-.405.008a2.783,2.783,0,0,0-.312.023,1.114,1.114,0,0,1-.145.032l-.4.052c-.146.021-.321.052-.333.056s.047,0,.047,0h.047c.312,0,.724-.014,1.232-.043A3.3,3.3,0,0,0,3004.875,8361.537Z" transform="translate(-3001.724 -8361.442)"/>
              <path id="Path_1104" data-name="Path 1104" d="M3006.771,8361.175a3.391,3.391,0,0,1-.341.062l-.676.117q-.421.073-.463.085s-.083.021-.1.031a1.354,1.354,0,0,1-.229.021,1.617,1.617,0,0,1-.177,0c-.064,0-.057-.009-.057-.009a2.556,2.556,0,0,1,.389-.076l.661-.1a3.843,3.843,0,0,0,.5-.1c.013-.006.056-.016.088-.029a1.031,1.031,0,0,1,.2-.022.93.93,0,0,1,.147.009C3006.76,8361.162,3006.779,8361.167,3006.771,8361.175Z" transform="translate(-3002.359 -8361.147)"/>
              <path id="Path_1105" data-name="Path 1105" d="M3009.57,8362.931a.789.789,0,0,1-.261.047l-.515.059c-.183.021-.275.041-.275.06a.529.529,0,0,0,.192.014h.13c.052,0,.123,0,.166,0a.531.531,0,0,1,.073.008l-.255.006c-.1,0-.189,0-.254,0-.142,0-.243,0-.3-.01s-.073-.016-.073-.029v-.012a.013.013,0,0,1,.005-.011l-.5.028c-.437.023-.813.034-1.128.034a2.12,2.12,0,0,1-.525-.024,2.616,2.616,0,0,1,.479-.072q.327-.038.644-.068c.278-.026.456-.039.536-.039.065,0,.1,0,.1.01a2.181,2.181,0,0,1-.38.054l-.5.052c-.225.024-.434.053-.437.059s.052,0,.052,0h.208c.107,0,.222,0,.344-.007l.327-.013q.551-.022.842-.043c.1-.008.237-.023.411-.046l.416-.054a2.729,2.729,0,0,1,.317-.026c.042,0,.108,0,.136,0S3009.57,8362.931,3009.57,8362.931Z" transform="translate(-3002.638 -8362.786)"/>
              <path id="Path_1106" data-name="Path 1106" d="M3011.744,8363.313c0,.007-.036.02-.109.037q-.052.013-.052.021c0,.049-.033.09-.1.123a5.039,5.039,0,0,1-1.675.158c-.162,0-.374,0-.635-.014a2.218,2.218,0,0,1-.468-.036s.017-.014.023-.015a.312.312,0,0,1,.083,0c.038,0,.236.019.451.027s.386.015.515.015a8.028,8.028,0,0,0,1.05-.057c.249-.034.375-.072.375-.113,0-.011-.016-.022-.063-.025s-.192,0-.251,0l-.138,0q-.505,0-.738-.006c-.313-.007-.469-.021-.469-.044s.191-.059.572-.083c.351-.022.7-.034,1.041-.034Q3011.744,8363.266,3011.744,8363.313Zm-.333-.006a1.2,1.2,0,0,0-.317-.016c-.222,0-.469.009-.743.026a1.306,1.306,0,0,0-.453.059,2.73,2.73,0,0,0,.681.032c.118,0,.234,0,.348,0a.9.9,0,0,0,.244-.02s-.008-.006-.024-.01-.023-.007-.023-.009a1.158,1.158,0,0,1,.193-.036C3011.38,8363.32,3011.411,8363.313,3011.411,8363.308Z" transform="translate(-3003.202 -8363.108)"/>
              <path id="Path_1107" data-name="Path 1107" d="M3014.522,8361.638a2.2,2.2,0,0,1-.292.078l-.11.025a.916.916,0,0,1-.161.017c-.038,0-.173,0-.2,0a.093.093,0,0,1-.046-.01c-.009,0-.013-.007-.013-.01s.03-.015.089-.023c.08-.012.125-.02.135-.022l.161-.043a1.919,1.919,0,0,1,.281-.036A.33.33,0,0,1,3014.522,8361.638Zm.488-.134c0,.012-.083.018-.249.018s-.229-.006-.229-.018.02-.015.059-.024a.408.408,0,0,1,.088-.019.786.786,0,0,1,.181.02.8.8,0,0,0,.087.012C3014.99,8361.5,3015.01,8361.5,3015.01,8361.5Z" transform="translate(-3004.259 -8361.437)"/>
            </g>
          </g>
          <path id="Path_1108" data-name="Path 1108" d="M3030.195,8363.646a1.905,1.905,0,0,0-.289,0l-.264.026-.177-.017-.162-.016.272-.027c.078-.008.075-.02-.007-.026a1.788,1.788,0,0,0-.289,0l-.264.026-.255-.024c-.363.033-.558.07-.089.122h0c-1.388.127-3.086.242-6.121.288a55.143,55.143,0,0,1-6.331-.118c-.948-.143.053-.365.649-.445h0c.054-.008.113-.017.172-.028.115-.021.172-.038.172-.049s-.039-.024-.119-.035a2.741,2.741,0,0,0-.318-.015c-.111,0-.284,0-.52.016l-.51.025.115-.026c.017,0,.025-.01.025-.016s-.048-.015-.145-.015c-.066,0-.114,0-.144,0s-.059.008-.091.014-.073.017-.1.025c-.055.01-.18.025-.374.048a1.963,1.963,0,0,0-.51.083s0,.01.08.009.426-.017.668-.04l.629-.061c.225-.021.457-.031.7-.031.18,0,.271.009.271.025a1.076,1.076,0,0,1-.266.047l-.094.013h0c-.753.1-1.561.318-.562.469a34.478,34.478,0,0,0,4.1.153q1.139,0,2.554-.021c2.525-.038,4.352-.118,6.3-.3h0a7.011,7.011,0,0,0,1.266-.01l-.24-.022.272-.027C3030.28,8363.665,3030.277,8363.653,3030.195,8363.646Z" transform="translate(-2992.828 -8361.63)"/>
        </g>
      </g>
    </g>
    <g id="Group_140" data-name="Group 140" transform="translate(-1850.791 -8106.689)">
      <g id="Group_129-2" data-name="Group 129" transform="translate(2848.791 8165.689)">
        <path id="Path_1024-2" data-name="Path 1024" d="M2848.791,8343.431l33.235-16.616,8.267,48.181Z" transform="translate(-2848.791 -8199.789)" fill="#223484"/>
        <path id="Path_1025-2" data-name="Path 1025" d="M3194.41,8338.153l72.677,2.923-2.24,6.712-70.436-6.128Z" transform="translate(-2921.935 -8202.188)" fill="#2c1a49"/>
        <path id="Path_1026-2" data-name="Path 1026" d="M3242.119,8347.741a6.28,6.28,0,0,1-6.279,6.279h-15.072a6.28,6.28,0,0,1-6.279-6.279v-40.608a6.28,6.28,0,0,1,6.279-6.279h15.072a6.28,6.28,0,0,1,6.279,6.279Z" transform="translate(-2926.184 -8194.295)" fill="url(#linear-gradient)"/>
        <path id="Path_1027-2" data-name="Path 1027" d="M3160.82,8370.511l24.749,49.917,39.4,7.463-3.98-18.391Z" transform="translate(-2914.826 -8209.036)" fill="#e3d400"/>
        <path id="Path_1028-2" data-name="Path 1028" d="M3216.925,8413.795l23.394,11.441,38.67-30.264Z" transform="translate(-2926.7 -8214.214)" fill="#223484"/>
        <path id="Path_1029-2" data-name="Path 1029" d="M3294.235,8398.325l-4.044,10.485,2.51,2.325Z" transform="translate(-2942.206 -8214.923)" fill="#2b2b2b"/>
        <path id="Path_1030-2" data-name="Path 1030" d="M3296.828,8396.02l.107,13.237,3.86.806Z" transform="translate(-2943.61 -8214.436)" fill="#2b2b2b"/>
        <path id="Path_1031-2" data-name="Path 1031" d="M3298.231,8391.609l12.3-2.166-3.75-4.642Z" transform="translate(-2943.907 -8212.061)" fill="#2b2b2b"/>
        <rect id="Rectangle_492" data-name="Rectangle 492" width="175.405" height="123.903" transform="matrix(0.949, -0.314, 0.314, 0.949, 353.547, 181.946)" fill="#fff"/>
        <path id="Path_1032-2" data-name="Path 1032" d="M3405.082,8422.17l-107.842-40.48,166.451-55.09Z" transform="translate(-2943.698 -8199.743)" fill="#ffc32e"/>
        <path id="Path_1033-2" data-name="Path 1033" d="M3094.071,8621.949v-46.179s5.726-25.928,12.5-63.088l67.7,13.093c-9.546,31.536-22.046,60.636-38.113,77.468,0,0,15.782,9.353,27.474,18.706Z" transform="translate(-2900.7 -8239.125)" fill="#8d1f77"/>
        <path id="Path_1034-2" data-name="Path 1034" d="M3178.027,8344.263s26.468,120.068,12.066,162.576l-51.921,11.565s24.849-100.247,33.922-168.72Z" transform="translate(-2910.033 -8203.481)" fill="#2c1a49"/>
        <path id="Path_1035-2" data-name="Path 1035" d="M3028.376,8468.192s-73.264-19.75-160.358-91.646c0,0,57.284,151.979,164.722,161.958l24.666-31.607Z" transform="translate(-2852.86 -8210.313)" fill="url(#linear-gradient-2)"/>
        <path id="Path_1036-2" data-name="Path 1036" d="M3017.841,8523.291s-83.74-12.526-149.823-146.745c0,0,57.284,151.979,164.722,161.958Z" transform="translate(-2852.86 -8210.313)" fill="#8d1f77"/>
        <path id="Path_1037-2" data-name="Path 1037" d="M2906.573,8393.174l28.058,17.34v-23.186Z" transform="translate(-2861.019 -8212.596)" fill="#e3d400"/>
        <path id="Path_1038-2" data-name="Path 1038" d="M3049.277,8579.845v-46.178s38.579-174.721,33.9-267.105l71.627,65.854s-14.343,177.284-63.444,228.723c0,0,15.783,9.354,27.473,18.706Z" transform="translate(-2891.22 -8187.038)" fill="url(#linear-gradient-3)"/>
        <path id="Path_1039-2" data-name="Path 1039" d="M3289.41,8278.391l15.517,9.185-4.381-16.085Z" transform="translate(-2942.041 -8188.081)" fill="#fff" stroke="#8d1f77" stroke-miterlimit="10" stroke-width="1.215"/>
        <path id="Path_1040-2" data-name="Path 1040" d="M3246.073,8296.056l17.236,10.99,1.308-19.759Z" transform="translate(-2932.869 -8191.424)" fill="#fff" stroke="#8d1f77" stroke-miterlimit="10" stroke-width="1.215"/>
        <path id="Path_1041-2" data-name="Path 1041" d="M3271.653,8289.856l16.979,11.865-2.98-19.452Z" transform="translate(-2938.282 -8190.362)" fill="#fff" stroke="#8d1f77" stroke-miterlimit="10" stroke-width="1.215"/>
        <path id="Path_1042-2" data-name="Path 1042" d="M3092.281,8246.038l158.537-76.453,22.313,78.877s-77.46,41.45-109.223,63.431l-46.306-18.665Z" transform="translate(-2900.321 -8166.514)" fill="url(#linear-gradient-2)"/>
        <path id="Path_1043-2" data-name="Path 1043" d="M3250.818,8168.761l-102.612-3.071-55.925,79.523Z" transform="translate(-2900.321 -8165.689)" fill="url(#linear-gradient-2)"/>
        <path id="Path_1044-2" data-name="Path 1044" d="M3092.281,8246.038l158.537-76.453-67.156,80.338Z" transform="translate(-2900.321 -8166.514)" fill="#8d1f77"/>
        <path id="Path_1045-2" data-name="Path 1045" d="M3139.056,8371.6l-48.66,42.771,3.427,46.5,19.468-9.985Z" transform="translate(-2899.922 -8209.267)" fill="#e3d400"/>
        <path id="Path_1046-2" data-name="Path 1046" d="M3108.256,8451.153l-17.871,24.447,26.756,50.444Z" transform="translate(-2899.92 -8226.104)" fill="#223484"/>
        <path id="Path_1047-2" data-name="Path 1047" d="M3148.5,8304.879a1.169,1.169,0,1,1-1.169-1.169A1.17,1.17,0,0,1,3148.5,8304.879Z" transform="translate(-2911.723 -8194.899)" fill="#2b2b2b"/>
        <path id="Path_1048-2" data-name="Path 1048" d="M3175.483,8304.879a1.169,1.169,0,1,1-1.169-1.169A1.17,1.17,0,0,1,3175.483,8304.879Z" transform="translate(-2917.435 -8194.899)" fill="#2b2b2b"/>
        <path id="Path_1049-2" data-name="Path 1049" d="M3192.891,8323.824a1.169,1.169,0,1,1-1.169-1.169A1.169,1.169,0,0,1,3192.891,8323.824Z" transform="translate(-2921.119 -8198.909)" fill="#2b2b2b"/>
        <path id="Path_1050-2" data-name="Path 1050" d="M3153.623,8326.791a1.169,1.169,0,1,1-1.169-1.17A1.168,1.168,0,0,1,3153.623,8326.791Z" transform="translate(-2912.809 -8199.536)" fill="#2b2b2b"/>
        <path id="Path_1051-2" data-name="Path 1051" d="M3138.794,8345.9a1.169,1.169,0,1,1-1.169-1.168A1.168,1.168,0,0,1,3138.794,8345.9Z" transform="translate(-2909.67 -8203.582)" fill="#2b2b2b"/>
        <path id="Path_1052-2" data-name="Path 1052" d="M3173.234,8253.522a15.2,15.2,0,1,1-15.2-15.2A15.2,15.2,0,0,1,3173.234,8253.522Z" transform="translate(-2911.021 -8181.062)" fill="#fff"/>
        <path id="Path_1053-2" data-name="Path 1053" d="M3220.12,8241.176a12.715,12.715,0,1,1-12.715-12.715A12.714,12.714,0,0,1,3220.12,8241.176Z" transform="translate(-2921.995 -8178.974)" fill="#fff"/>
        <path id="Path_1054-2" data-name="Path 1054" d="M3142.318,8271.49a26.374,26.374,0,0,0,16.478,8.24S3142.953,8282.261,3142.318,8271.49Z" transform="translate(-2910.911 -8188.081)" fill="#2b2b2b"/>
        <path id="Path_1055-2" data-name="Path 1055" d="M3167.128,8255.764a6.851,6.851,0,1,1-6.851-6.852A6.85,6.85,0,0,1,3167.128,8255.764Z" transform="translate(-2913.262 -8183.302)" fill="#2b2b2b"/>
        <path id="Path_1056-2" data-name="Path 1056" d="M3214.245,8243.332a4.683,4.683,0,1,1-4.684-4.683A4.683,4.683,0,0,1,3214.245,8243.332Z" transform="translate(-2924.151 -8181.13)" fill="#2b2b2b"/>
        <path id="Path_1057-2" data-name="Path 1057" d="M3120.358,8545.089l-.727,13.046,3.607,1.678Z" transform="translate(-2906.109 -8245.983)" fill="#2b2b2b"/>
        <path id="Path_1058-2" data-name="Path 1058" d="M3124.377,8550.48l2.955,15.107,4.585.095Z" transform="translate(-2907.114 -8247.124)" fill="#2b2b2b"/>
        <path id="Path_1059-2" data-name="Path 1059" d="M3127.729,8548.4l8.113,12.043,3.159-6.176Z" transform="translate(-2907.823 -8246.684)" fill="#2b2b2b"/>
        <path id="Path_1060-2" data-name="Path 1060" d="M3140.132,8662.073l.676-6.974s7.311.48,6.879.91S3140.132,8662.073,3140.132,8662.073Z" transform="translate(-2910.448 -8269.266)" fill="#2b2b2b"/>
        <path id="Path_1061-2" data-name="Path 1061" d="M3194.108,8644.2l-5.571-1.782-3.918,6.985Z" transform="translate(-2919.863 -8266.582)" fill="#2b2b2b"/>
        <path id="Path_1062-2" data-name="Path 1062" d="M3307.327,8227.766l-9.338,8.387,9.338,29.667,9.338-5.045Z" transform="translate(-2943.856 -8178.827)" fill="#2b2b2b"/>
      </g>
      <g id="Group_139-2" data-name="Group 139" transform="translate(2928.651 8191.004)">
        <path id="Path_1063-2" data-name="Path 1063" d="M2975.9,8463.433l-2.41.289a6.206,6.206,0,0,1-6.811-4.887l-.918-4.355a11.507,11.507,0,0,1,.745-7.046l1.343-3.019,3.219-73.887,10.359-8.01-1.6,96.559A4.464,4.464,0,0,1,2975.9,8463.433Z" transform="translate(-2953.352 -8232.66)" fill="#d79663"/>
        <path id="Path_1064-2" data-name="Path 1064" d="M2982.663,8317.35l2.482-1.107-7.362,113.739-9.9-1.918h0a16.521,16.521,0,0,1-3.735-12.951l6.114-43.673.349-35.716A20.335,20.335,0,0,1,2982.663,8317.35Z" transform="translate(-2953.031 -8222.866)" fill="#2c1a49"/>
        <path id="Path_1065-2" data-name="Path 1065" d="M2965.509,8452.391l7.623,1.063,3.649,5.086-8.573-1.662A23.373,23.373,0,0,1,2965.509,8452.391Z" transform="translate(-2953.353 -8251.68)" fill="#2b2b2b"/>
        <g id="Group_130-2" data-name="Group 130" transform="translate(32.317 35.637)">
          <path id="Path_1066-2" data-name="Path 1066" d="M3028.6,8248.479a1.376,1.376,0,0,0,.68-.182,21.148,21.148,0,0,1,12.7-2.418,1.384,1.384,0,0,0,.213-2.76,24.041,24.041,0,0,0-14.276,2.77,1.385,1.385,0,0,0,.682,2.59Z" transform="translate(-2998.729 -8243.003)" fill="#7b4043"/>
          <path id="Path_1067-2" data-name="Path 1067" d="M3005.955,8248.48a1.385,1.385,0,0,0,.682-2.59,24.064,24.064,0,0,0-14.276-2.771,1.385,1.385,0,0,0-1.274,1.485,1.371,1.371,0,0,0,1.486,1.274,21.129,21.129,0,0,1,12.7,2.419A1.389,1.389,0,0,0,3005.955,8248.48Z" transform="translate(-2991.082 -8243.003)" fill="#7b4043"/>
        </g>
        <path id="Path_1068-2" data-name="Path 1068" d="M3045.247,8591.987h-17.369l-20.16-108.656-3.154-5.064-1.429,113.721h-19.27l-5.709-108.963V8448.29h59.952l1.19,67.567,3.57,22.361Z" transform="translate(-2956.029 -8250.812)" fill="#16161d"/>
        <path id="Path_1069-2" data-name="Path 1069" d="M3030.511,8433.06h-45.852a9.5,9.5,0,0,1-9.484-9.98l3.88-76.275-2.169-9.365a20.335,20.335,0,0,1,11.526-23.158l11.215-5.006,22.5-.4,15.687,3.5a22.728,22.728,0,0,1,17.663,20l4.1,42.739-.937,51.034-11.65-.638h0a27.494,27.494,0,0,1-4.957-15.151l-.68-31.066-3.888-31.882,2.528,75.836A9.5,9.5,0,0,1,3030.511,8433.06Z" transform="translate(-2955.396 -8221.306)" fill="#fff"/>
        <path id="Path_1070-2" data-name="Path 1070" d="M3054.546,8313.313h0a22.728,22.728,0,0,1,17.663,20l4.1,42.74-.937,51.033-11.65-.637h0a27.5,27.5,0,0,1-4.957-15.152l-.68-31.065-3.888-31.882Z" transform="translate(-2972.123 -8222.246)" fill="#2c1a49"/>
        <path id="Path_1071-2" data-name="Path 1071" d="M3029.262,8310.277c-12.62,9.032-21.8,13-23.112,5.353l.054-20.341h23.057Z" transform="translate(-2961.953 -8218.432)" fill="#d79663"/>
        <path id="Path_1072-2" data-name="Path 1072" d="M3006.171,8309.617l.021-10.706h23.057v6.423A42.089,42.089,0,0,1,3006.171,8309.617Z" transform="translate(-2961.958 -8219.198)" fill="#b67c53"/>
        <path id="Path_1073-2" data-name="Path 1073" d="M2978.075,8260.857c.9,5.094,4.429,8.727,7.876,8.117s5.511-5.235,4.61-10.328-4.429-8.729-7.877-8.117S2977.171,8255.763,2978.075,8260.857Z" transform="translate(-2955.967 -8208.944)" fill="#d79663"/>
        <path id="Path_1074-2" data-name="Path 1074" d="M3044.066,8258.646c.9-5.094,4.427-8.729,7.877-8.117s5.511,5.233,4.608,10.328-4.427,8.727-7.875,8.117S3043.163,8263.739,3044.066,8258.646Z" transform="translate(-2969.933 -8208.944)" fill="#d79663"/>
        <path id="Rectangle_493-2" data-name="Rectangle 493" d="M25.727,0h.649A25.727,25.727,0,0,1,52.1,25.727v33.99a0,0,0,0,1,0,0H0a0,0,0,0,1,0,0V25.727A25.727,25.727,0,0,1,25.727,0Z" transform="translate(80.414 80.546) rotate(180)" fill="#d79663"/>
        <path id="Path_1075-2" data-name="Path 1075" d="M3055.74,8639.962h-12.67l-1.844-9.4h14.514Z" transform="translate(-2969.377 -8289.387)" fill="#d79663"/>
        <path id="Path_1076-2" data-name="Path 1076" d="M3003.7,8639.962l-1.842,12.489-18.5-8.563,5.829-7.494v-5.831H3003.7Z" transform="translate(-2957.13 -8289.387)" fill="#d79663"/>
        <path id="Path_1077-2" data-name="Path 1077" d="M3039.614,8258.2c0,2.758-1.547,4.991-3.458,4.991s-3.458-2.233-3.458-4.991,1.549-4.989,3.458-4.989S3039.614,8255.44,3039.614,8258.2Z" transform="translate(-2967.572 -8209.525)" fill="#3c2c22"/>
        <path id="Path_1078-2" data-name="Path 1078" d="M2997.445,8258.2c0,2.758,1.548,4.991,3.458,4.991s3.459-2.233,3.459-4.991-1.549-4.989-3.459-4.989S2997.445,8255.44,2997.445,8258.2Z" transform="translate(-2960.111 -8209.525)" fill="#3c2c22"/>
        <path id="Path_1079-2" data-name="Path 1079" d="M3038.442,8251.35a8.273,8.273,0,0,1-1.715,5.011h0l-5.067-35.946-6.764,1.961-36.464,6.6-3.808,27.383h0a12.053,12.053,0,0,1-1.727-6.015l-.183-11.028-1.836-6.042a31.951,31.951,0,0,1,.535-20.194h0c2.76-7.609,7.345-8.614,15.315-10.046l8.157-3.9c7.179-2.873,14.727-1.01,21.974,4.58l2.927,3.335h0a12.642,12.642,0,0,1,11.091,10.824h0a34.88,34.88,0,0,1-.458,12.136l-1.919,8.9Z" transform="translate(-2956.313 -8197.799)" fill="#977037"/>
        <path id="Rectangle_494-2" data-name="Rectangle 494" d="M1.864,0h8.681a1.867,1.867,0,0,1,1.867,1.867v.373A1.864,1.864,0,0,1,10.548,4.1H1.864A1.864,1.864,0,0,1,0,2.239V1.864A1.864,1.864,0,0,1,1.864,0Z" transform="translate(74.305 40.456) rotate(180)" fill="#977037"/>
        <path id="Path_1080-2" data-name="Path 1080" d="M3005.444,8248.029l-9.894-.085a1.468,1.468,0,0,1-1.458-1.48l.01-1.166a1.471,1.471,0,0,1,1.481-1.458l9.9.085a1.47,1.47,0,0,1,1.457,1.481l-.009,1.167A1.473,1.473,0,0,1,3005.444,8248.029Z" transform="translate(-2959.402 -8207.543)" fill="#977037"/>
        <path id="Path_1081-2" data-name="Path 1081" d="M3037.6,8659.205h25.932v-2.164a18.338,18.338,0,0,0-3.217-10.379l-2.863-4.176a8.337,8.337,0,0,0-6.878-3.625h-2.446a8.345,8.345,0,0,0-7.833,5.475l-.122.336a42.3,42.3,0,0,0-2.574,14.533Z" transform="translate(-2968.61 -8291.144)" fill="#e7510e"/>
        <path id="Path_1082-2" data-name="Path 1082" d="M2950.089,8659.588h46.571V8642.1h0a7.363,7.363,0,0,1-8.833,2.3l-8.475-3.726-23.928,9.34a8.378,8.378,0,0,0-5.335,7.806Z" transform="translate(-2950.089 -8291.526)" fill="#e7510e"/>
        <rect id="Rectangle_495" data-name="Rectangle 495" width="78.734" height="55.619" transform="matrix(0.759, -0.651, 0.651, 0.759, 23.428, 254.093)" fill="#fff"/>
        <path id="Path_1083-2" data-name="Path 1083" d="M3031.486,8504.757l-51.68,1.584,59.713-51.265Z" transform="translate(-2956.378 -8252.248)" fill="#ffc32e"/>
        <path id="Path_1084-2" data-name="Path 1084" d="M3070.377,8478.646h-3.637a6.338,6.338,0,0,1-6.315-5.793l-.3-3.438a5.45,5.45,0,0,1,1.686-4.429l3.615-3.413-.453-4.75,11.65.638.627,13.99A6.886,6.886,0,0,1,3070.377,8478.646Z" transform="translate(-2973.373 -8252.618)" fill="#d79663"/>
        <path id="Path_1085-2" data-name="Path 1085" d="M2950.09,8662.05l46.571-1.378v3.148H2950.09Z" transform="translate(-2950.089 -8295.759)" fill="#dfdede"/>
        <path id="Path_1086-2" data-name="Path 1086" d="M3037.6,8661.551l25.932.292v2.163H3037.6Z" transform="translate(-2968.61 -8295.945)" fill="#dfdede"/>
        <path id="Path_1087-2" data-name="Path 1087" d="M3041.24,8247.742c-1.1-.776-4.673-1-11.017-1.169s-13.725,2.857-15.5,3.28a16.436,16.436,0,0,1-3.51.405H3010.2a16.175,16.175,0,0,1-3.467-.405c-1.776-.423-9.135-3.5-15.479-3.332s-9.9.419-11,1.2l-.422,3.728s1.522.019,1.86.947.762,10.074,4.06,12.273,5.324,2.336,8.628,2.374,8.967.379,13.873-11.04c0,0,.253-1.818,1.945-1.818h1.016A2.034,2.034,0,0,1,3013.2,8256c4.906,11.42,10.617,11.056,13.915,11.018s5.329-.159,8.628-2.359,3.723-11.334,4.061-12.265,1.86-.938,1.86-.938Zm-35.78,9.742c-.819,4.837-4.669,8.29-10.672,8.29-6.923,0-10.223-3.3-10.645-8.036-.164-1.832-.034-5.752,1.437-7.359,2.071-2.262,5.828-2.593,9.559-2.2,4.561.481,8.021,1.478,9.981,3.807C3006.323,8253.415,3005.759,8255.708,3005.46,8257.484Zm32.062,0c-.422,4.735-3.722,8.036-10.645,8.036-6,0-9.854-3.453-10.671-8.289-.3-1.778-.864-4.07.338-5.5,1.96-2.329,5.421-3.325,9.981-3.807,3.732-.394,7.489-.062,9.559,2.2C3037.555,8251.732,3037.685,8255.65,3037.522,8257.484Z" transform="translate(-2956.383 -8208.109)" fill="#2b2b2b"/>
        <g id="Group_131-2" data-name="Group 131" transform="translate(44.197 62.209)">
          <path id="Path_1088-2" data-name="Path 1088" d="M3016.654,8284.788c3.267,0,6.53-3.681,9.77-5.489a1.384,1.384,0,0,0-1.35-2.417,16.183,16.183,0,0,1-16.87,0,1.385,1.385,0,0,0-1.343,2.422C3010.114,8281.109,3013.385,8284.788,3016.654,8284.788Z" transform="translate(-3006.151 -8276.708)" fill="#fff"/>
        </g>
        <path id="Path_1089-2" data-name="Path 1089" d="M2965.509,8653.259l12.635-5.728,10.694,5.728,11.085-4.948" transform="translate(-2953.353 -8292.979)" fill="#fff"/>
        <path id="Path_1090-2" data-name="Path 1090" d="M3005.618,8309.324v9.215s.324,2.988,2.539,3.721,9.4-.923,20.573-9.074v-4.152l1.83.408s.642,3.863-.555,5.275-12.689,9.152-18.355,9.472-7.9-1.595-7.981-5.347,0-8.646,0-8.646Z" transform="translate(-2961.421 -8221.341)" fill="#2b2b2b"/>
        <path id="Path_1091-2" data-name="Path 1091" d="M3063.257,8451.572s12.13,1.188,14.1,1.186l-.065,3.591-11.65-.638S3063.726,8452.635,3063.257,8451.572Z" transform="translate(-2974.039 -8251.507)" fill="#2b2b2b"/>
        <g id="Group_138-2" data-name="Group 138" transform="translate(29.103 112.769)">
          <rect id="Rectangle_496" data-name="Rectangle 496" width="1.561" height="10.876" transform="translate(37.156 13.281) rotate(-44.998)" fill="url(#linear-gradient-6)"/>
          <rect id="Rectangle_497" data-name="Rectangle 497" width="10.876" height="1.561" transform="translate(37.156 20.113) rotate(-45)" fill="url(#linear-gradient-7)"/>
          <path id="Path_1092-2" data-name="Path 1092" d="M3003.286,8346.277l9.54,9.563-1.1,1.1-9.54-9.563Z" transform="translate(-2990.217 -8341.992)" fill="url(#linear-gradient-8)"/>
          <rect id="Rectangle_498-2" data-name="Rectangle 498" width="1.561" height="5.334" transform="translate(35.6 13.905)" fill="url(#linear-gradient-9)"/>
          <path id="Path_1093-2" data-name="Path 1093" d="M3032.008,8347.042a3.96,3.96,0,0,0-7.919-.019h0v3.857h1.561v-3.81a2.4,2.4,0,0,1,4.8,0v3.81h1.56v-3.839Z" transform="translate(-2994.853 -8341.322)" fill="url(#linear-gradient-10)"/>
          <g id="Group_133-2" data-name="Group 133" transform="translate(29.235 1.789)">
            <g id="Group_132-2" data-name="Group 132" clip-path="url(#clip-path-3)">
              <g transform="matrix(1, 0, 0, 1, -138.2, -139.87)" filter="url(#Path_1094-2)">
                <path id="Path_1094-4" data-name="Path 1094" d="M3024.357,8346.309a3.962,3.962,0,0,0-.269,1.385h0v.269a2.387,2.387,0,0,1,1.561.015v-.235a2.381,2.381,0,0,1,.375-1.284,3.914,3.914,0,0,0-1.178-.18A4.036,4.036,0,0,0,3024.357,8346.309Z" transform="translate(-2885.89 -8203.91)" fill="#1b1919"/>
              </g>
            </g>
          </g>
          <path id="Path_1096-2" data-name="Path 1096" d="M3022.278,8346a3.966,3.966,0,0,0-3.961,3.96,2.4,2.4,0,1,1-4.8,0v-.545h2.4v-1.561h-2.4v-2.868h-1.561v5.06h0a34.906,34.906,0,0,1,10.319,3.875,3.96,3.96,0,0,0,0-7.921Zm0,6.36a2.4,2.4,0,1,1,2.4-2.4A2.4,2.4,0,0,1,3022.278,8352.365Z" transform="translate(-2992.286 -8341.72)" fill="url(#linear-gradient-11)"/>
          <rect id="Rectangle_499" data-name="Rectangle 499" width="10.174" height="1.561" transform="matrix(0.707, -0.707, 0.707, 0.707, 12.513, 13.734)" fill="url(#linear-gradient-12)"/>
          <rect id="Rectangle_500" data-name="Rectangle 500" width="1.56" height="1.566" transform="translate(35.271 11.394) rotate(-45)" fill="url(#linear-gradient-13)"/>
          <g id="Group_135-2" data-name="Group 135" transform="translate(11.966 4.285)">
            <g id="Group_134-2" data-name="Group 134" clip-path="url(#clip-path-4)">
              <g transform="matrix(1, 0, 0, 1, -120.93, -142.37)" filter="url(#Path_1097-2)">
                <path id="Path_1097-4" data-name="Path 1097" d="M3013.243,8358.512l.821.822,1.1-1.1-.661-.661A3.959,3.959,0,0,0,3013.243,8358.512Z" transform="translate(-2883.59 -8206.3)" fill="url(#linear-gradient-14)"/>
              </g>
            </g>
          </g>
          <path id="Path_1099-2" data-name="Path 1099" d="M3022.278,8357.33a3.954,3.954,0,0,1-6.361-.238,3.965,3.965,0,0,0-3.961,3.961h1.561a2.4,2.4,0,0,1,4.8,0v2.468h1.561v-2.229a2.4,2.4,0,1,1,4.8,0v3.961h1.561v-3.961A3.965,3.965,0,0,0,3022.278,8357.33Z" transform="translate(-2992.286 -8344.281)" fill="url(#linear-gradient-11)"/>
          <path id="Path_1100-2" data-name="Path 1100" d="M2999.034,8354.2a3.96,3.96,0,1,1,3.96-3.961A3.966,3.966,0,0,1,2999.034,8354.2Zm0-6.361a2.4,2.4,0,1,0,2.4,2.4A2.4,2.4,0,0,0,2999.034,8347.838Z" transform="translate(-2988.712 -8341.992)" fill="url(#linear-gradient-16)"/>
          <path id="Path_1101-2" data-name="Path 1101" d="M2996.634,8350.238h-1.561a3.965,3.965,0,0,1,3.961-3.96v1.56A2.4,2.4,0,0,0,2996.634,8350.238Z" transform="translate(-2988.712 -8341.992)" fill="url(#linear-gradient-17)" style="mix-blend-mode: multiply;isolation: isolate"/>
          <path id="Path_1102-2" data-name="Path 1102" d="M2990.966,8345.128a3.942,3.942,0,0,0-2.4.812v-5.1H2987v12.206h1.561v-3.96a2.4,2.4,0,0,1,4.8,0v3.96h1.561v-3.96A3.964,3.964,0,0,0,2990.966,8345.128Z" transform="translate(-2987.005 -8340.842)" fill="url(#linear-gradient-18)"/>
          <g id="Group_137-2" data-name="Group 137" transform="translate(11.604 16.008)">
            <g id="Group_136-2" data-name="Group 136">
              <path id="Path_1103-2" data-name="Path 1103" d="M3005.14,8362.147q0,.946-1.44,1.461-.291.1-1.029.3a.627.627,0,0,0-.36.274c-.02.032-.088.163-.2.4-.069.142-.12.236-.223.26s-.161-.117-.161-.2a.612.612,0,0,1,.166-.322c.045-.056.125-.158.24-.307a1.582,1.582,0,0,0,.1-.416.38.38,0,0,1,.093-.234c.053-.041.146.1.146.1q.426-.608.457-.649a1.488,1.488,0,0,0,.286-.7,1.436,1.436,0,0,1-.516.194.092.092,0,0,1-.076-.1.323.323,0,0,1,.047-.192,2.409,2.409,0,0,1,.847-.368,3.42,3.42,0,0,1,.921-.183.72.72,0,0,1,.515.178A.658.658,0,0,1,3005.14,8362.147Zm-.265.077a.441.441,0,0,0-.166-.368.619.619,0,0,0-.4-.114,1.1,1.1,0,0,0-.405.077.585.585,0,0,0-.312.25,1.678,1.678,0,0,1-.145.348l-.4.552a4.1,4.1,0,0,0-.333.593c-.012.045.047.052.047.052h.047a2.619,2.619,0,0,0,1.232-.457Q3004.875,8362.657,3004.875,8362.225Z" transform="translate(-3001.724 -8361.215)" fill="#2c1a49"/>
              <path id="Path_1104-2" data-name="Path 1104" d="M3006.771,8361.436a3.424,3.424,0,0,1-.341.659l-.676,1.243c-.281.521-.435.821-.463.905a3.223,3.223,0,0,0-.1.332.351.351,0,0,1-.229.219.206.206,0,0,1-.177-.048c-.064-.055-.057-.093-.057-.093a3.038,3.038,0,0,1,.389-.816l.661-1.087a4.432,4.432,0,0,0,.5-1.056c.013-.059.056-.159.088-.311a.35.35,0,0,1,.2-.234c.059-.012.1.031.147.091A.269.269,0,0,1,3006.771,8361.436Z" transform="translate(-3002.359 -8361.147)" fill="#2c1a49"/>
              <path id="Path_1105-2" data-name="Path 1105" d="M3009.57,8363.063a.9.9,0,0,1-.261.5c-.1.114-.268.322-.515.624a1.046,1.046,0,0,0-.275.629c0,.1.064.149.192.146a.5.5,0,0,0,.078,0h.052a.461.461,0,0,1,.166.025.2.2,0,0,1,.073.084l-.255.067a1.235,1.235,0,0,1-.254.037.376.376,0,0,1-.3-.1.516.516,0,0,1-.073-.312v-.12c0-.037,0-.077.005-.118-.239.151-.408.256-.5.311a2.44,2.44,0,0,1-1.128.36c-.35,0-.525-.086-.525-.256a1.908,1.908,0,0,1,.479-.773q.327-.4.644-.724c.278-.281.456-.421.536-.421.065,0,.1.034.1.1q0,.136-.38.571c-.111.122-.277.309-.5.557a2.6,2.6,0,0,0-.437.619c0,.064.052.053.052.053.024,0,.059,0,.1,0s.079,0,.1,0a.925.925,0,0,0,.344-.073l.327-.14a3.384,3.384,0,0,0,.842-.458,2.633,2.633,0,0,0,.411-.479q.114-.161.416-.576.208-.281.317-.281a.207.207,0,0,1,.136.052A.2.2,0,0,1,3009.57,8363.063Z" transform="translate(-3002.638 -8361.521)" fill="#2c1a49"/>
              <path id="Path_1106-2" data-name="Path 1106" d="M3011.744,8363.775a1.294,1.294,0,0,1-.109.4.644.644,0,0,0-.052.213,7.33,7.33,0,0,1-.1,1.315q-.312,1.686-1.675,1.686a1.891,1.891,0,0,1-.635-.151c-.312-.118-.468-.244-.468-.38a1.28,1.28,0,0,1,.023-.163c.008-.026.041-.043.083-.013a2.538,2.538,0,0,0,.451.29,1.31,1.31,0,0,0,.515.151,1.243,1.243,0,0,0,1.05-.6,2.073,2.073,0,0,0,.375-1.205.421.421,0,0,0-.063-.271c-.046-.038-.192-.023-.251-.015a1.035,1.035,0,0,1-.138.015,3.415,3.415,0,0,1-.738-.057c-.313-.076-.469-.231-.469-.468a1.092,1.092,0,0,1,.572-.89,1.84,1.84,0,0,1,1.041-.359C3011.549,8363.266,3011.744,8363.437,3011.744,8363.775Zm-.333-.062c0-.114-.1-.172-.317-.172a1.361,1.361,0,0,0-.743.28q-.453.308-.453.624,0,.347.681.348a1.208,1.208,0,0,0,.348-.051c.163-.049.244-.118.244-.208a.342.342,0,0,0-.024-.1.367.367,0,0,1-.023-.1,1.416,1.416,0,0,1,.193-.38A.5.5,0,0,0,3011.411,8363.714Z" transform="translate(-3003.202 -8361.596)" fill="#2c1a49"/>
              <path id="Path_1107-2" data-name="Path 1107" d="M3014.522,8363.352a5.822,5.822,0,0,1-.292.828c-.024.062-.061.154-.11.274a.3.3,0,0,1-.161.177c-.038.014-.173.045-.2.02a.164.164,0,0,1-.046-.1.583.583,0,0,1-.013-.1.494.494,0,0,1,.089-.254,2.275,2.275,0,0,0,.135-.234c.028-.087.081-.238.161-.457a.789.789,0,0,1,.281-.385C3014.458,8363.078,3014.522,8363.3,3014.522,8363.352Zm.488-1.43c0,.125-.083.188-.249.188s-.229-.062-.229-.187a.85.85,0,0,1,.059-.26c.04-.109.048-.154.088-.192s.083.032.181.21a.435.435,0,0,0,.087.123A.163.163,0,0,1,3015.01,8361.922Z" transform="translate(-3004.259 -8361.214)" fill="#2c1a49"/>
            </g>
          </g>
          <path id="Path_1108-2" data-name="Path 1108" d="M3030.195,8367.046a.205.205,0,0,0-.289.008l-.264.277-.177-.178-.162-.163.272-.286a.2.2,0,0,0-.3-.282l-.264.277-.255-.257a.819.819,0,0,0-.089,1.292h0a10.475,10.475,0,0,1-6.121,3.072c-3.292.528-5.481.093-6.331-1.262-.948-1.512.053-3.88.649-4.733h0a2.7,2.7,0,0,0,.172-.3,1.311,1.311,0,0,0,.172-.525.6.6,0,0,0-.119-.366.375.375,0,0,0-.318-.164,1.39,1.39,0,0,0-.52.172c-.042.018-.211.1-.51.265.073-.173.111-.267.115-.28a.443.443,0,0,0,.025-.167.131.131,0,0,0-.145-.15.208.208,0,0,0-.144.041.51.51,0,0,0-.091.146c-.038.091-.073.181-.1.271a3.666,3.666,0,0,1-.374.5,1.792,1.792,0,0,0-.51.884s0,.109.08.1a1.816,1.816,0,0,0,.668-.425c.3-.309.515-.524.629-.645a1,1,0,0,1,.7-.334.238.238,0,0,1,.271.266,1.172,1.172,0,0,1-.266.5c-.035.048-.065.092-.094.135h0c-.753,1.08-1.561,3.39-.562,4.981.684,1.09,2.06,1.638,4.1,1.638a16.392,16.392,0,0,0,2.554-.228,10.675,10.675,0,0,0,6.3-3.165h0a.815.815,0,0,0,1.266-.1l-.24-.242.272-.285A.205.205,0,0,0,3030.195,8367.046Z" transform="translate(-2992.828 -8345.593)" fill="#2c1a49"/>
        </g>
      </g>
    </g>
  </g>
</svg>
