<svg xmlns="http://www.w3.org/2000/svg" xmlns:xlink="http://www.w3.org/1999/xlink" width="143.007" height="125.935" viewBox="0 0 143.007 125.935"><defs><style>.a{fill:#41235a;}.b{fill:url(#a);}.c{fill:url(#b);}.d,.i{fill:#fff;}.d{stroke:#a53089;stroke-miterlimit:10;stroke-width:0.989px;}.e{fill:url(#c);}.f{fill:url(#d);}.g{fill:#a53089;}.h{fill:#393939;}</style><linearGradient id="a" x1="-87.47" y1="31.139" x2="-87.47" y2="30.759" gradientUnits="objectBoundingBox"><stop offset="0" stop-color="#b31e3c"/><stop offset="1" stop-color="#8a182c"/></linearGradient><linearGradient id="b" x1="0.404" y1="1.079" x2="0.45" y2="0.815" gradientUnits="objectBoundingBox"><stop offset="0" stop-color="#e32285"/><stop offset="1" stop-color="#e32285"/></linearGradient><linearGradient id="c" x1="0" y1="0.5" x2="1" y2="0.5" xlink:href="#b"/><linearGradient id="d" x1="0" y1="0.5" x2="1" y2="0.5" xlink:href="#b"/></defs><g transform="translate(-4.3 -18.35)"><path class="a" d="M89.77,158.83l56.775,2.283-1.747,5.247L89.77,161.575Z" transform="translate(-20.847 -34.264)"/><path class="b" d="M127.716,165.083a4.911,4.911,0,0,1-4.907,4.907H111.037a4.906,4.906,0,0,1-4.907-4.907V133.357a4.911,4.911,0,0,1,4.907-4.907h11.772a4.906,4.906,0,0,1,4.907,4.907Z" transform="translate(-24.837 -26.854)"/><path class="a" d="M83.585,163.81l3.274,15.954-7.81-1.157s-.56-7.138-.106-10.563Z" transform="translate(-18.163 -35.479)"/><path class="c" d="M4.3,154.293s2.51-38.183,1.724-53.773l55.958,51.445L60.894,163.17Z" transform="translate(0 -20.042)"/><path class="d" d="M167.16,109.921l12.12,7.175-3.425-12.566Z" transform="translate(-39.723 -21.02)"/><path class="d" d="M131.85,124.25l13.466,8.589,1.028-15.439Z" transform="translate(-31.11 -24.159)"/><path class="d" d="M152.69,119.238l13.269,9.27-2.329-15.2Z" transform="translate(-36.193 -23.161)"/><path class="e" d="M6.58,81.254,130.436,21.53l17.428,61.622s-60.518,32.383-85.325,49.554L26.359,118.121Z" transform="translate(-0.556 -0.776)"/><path class="f" d="M130.436,20.747l-80.169-2.4L6.58,80.478Z" transform="translate(-0.556)"/><path class="g" d="M6.58,81.251,130.436,21.52,77.97,84.283Z" transform="translate(-0.556 -0.773)"/><path class="h" d="M52.29,131.685a.915.915,0,1,1-.915-.915A.923.923,0,0,1,52.29,131.685Z" transform="translate(-11.259 -27.42)"/><path class="h" d="M74.28,131.685a.915.915,0,1,1-.915-.915A.928.928,0,0,1,74.28,131.685Z" transform="translate(-16.622 -27.42)"/><path class="h" d="M88.45,147.125a.915.915,0,1,1-.915-.915A.913.913,0,0,1,88.45,147.125Z" transform="translate(-20.078 -31.186)"/><path class="h" d="M56.47,149.535a.915.915,0,1,1-.915-.915A.923.923,0,0,1,56.47,149.535Z" transform="translate(-12.278 -31.774)"/><path class="h" d="M44.39,165.1a.915.915,0,1,1-.915-.915A.923.923,0,0,1,44.39,165.1Z" transform="translate(-9.332 -35.571)"/><path class="i" d="M71.511,89.391A11.871,11.871,0,1,1,59.641,77.52,11.871,11.871,0,0,1,71.511,89.391Z" transform="translate(-10.603 -14.432)"/><path class="i" d="M109.863,79.415a9.931,9.931,0,1,1-9.927-9.935A9.932,9.932,0,0,1,109.863,79.415Z" transform="translate(-20.903 -12.471)"/><path class="h" d="M47.34,104.53a20.6,20.6,0,0,0,12.876,6.434C60.209,110.964,47.831,112.945,47.34,104.53Z" transform="translate(-10.498 -21.02)"/><path class="h" d="M67.086,91.493a5.353,5.353,0,1,1-5.353-5.353A5.353,5.353,0,0,1,67.086,91.493Z" transform="translate(-12.703 -16.534)"/><path class="h" d="M105.619,81.439a3.659,3.659,0,1,1-3.659-3.659A3.662,3.662,0,0,1,105.619,81.439Z" transform="translate(-22.927 -14.495)"/><path class="h" d="M181.439,68.91l-7.289,6.555,7.289,23.174,7.3-3.939Z" transform="translate(-41.428 -12.332)"/></g></svg>