<svg xmlns="http://www.w3.org/2000/svg" xmlns:xlink="http://www.w3.org/1999/xlink" width="141.84" height="145.56" viewBox="0 0 141.84 145.56"><defs><style>.a{fill:url(#a);}.b,.d{fill:#fff;}.b{stroke:#a53089;stroke-miterlimit:10;stroke-width:1.12px;}.c{fill:url(#b);}.e{fill:#393939;}.f{fill:url(#d);}.g{fill:#41235a;}</style><linearGradient id="a" x1="15.269" y1="50.134" x2="15.269" y2="49.678" gradientUnits="objectBoundingBox"><stop offset="0" stop-color="#b31e3c"/><stop offset="1" stop-color="#8a182c"/></linearGradient><linearGradient id="b" y1="0.5" x2="1" y2="0.5" gradientUnits="objectBoundingBox"><stop offset="0" stop-color="#e32285"/><stop offset="1" stop-color="#e32285"/></linearGradient><linearGradient id="d" x1="0" y1="0.5" x2="1" y2="0.5" xlink:href="#b"/></defs><g transform="translate(-7.49 -3.55)"><path class="a" d="M57.877,183.168a3.539,3.539,0,0,1-3.539,3.539H45.849a3.539,3.539,0,0,1-3.539-3.539V160.289a3.539,3.539,0,0,1,3.539-3.539h8.489a3.539,3.539,0,0,1,3.539,3.539Z" transform="translate(-8.545 -37.597)"/><path class="b" d="M85.94,171.252l6.18,10.383,3.086-11.055Z" transform="translate(-19.253 -40.991)"/><path class="b" d="M98.55,167.932l6.18,10.383,3.086-11.055Z" transform="translate(-22.347 -40.176)"/><path class="c" d="M11.067,76.143,7.49,140.472s69.045,13.922,104.842,4.173v-68.5S53,64.2,11.067,76.143Z" transform="translate(0 -16.512)"/><circle class="d" cx="7.418" cy="7.418" r="7.418" transform="translate(76.518 102.814) rotate(-0.371)"/><path class="e" d="M110.7,143.972a2.732,2.732,0,1,1-2.732-2.732A2.731,2.731,0,0,1,110.7,143.972Z" transform="translate(-23.989 -33.791)"/><circle class="d" cx="7.418" cy="7.418" r="7.418" transform="translate(28.415 102.763)"/><path class="e" d="M46.893,143.972a2.732,2.732,0,1,1-2.732-2.732A2.731,2.731,0,0,1,46.893,143.972Z" transform="translate(-8.329 -33.791)"/><path class="c" d="M12.23,59.631,13.2,29.976,49.167,13.782V3.55L66.9,17.193,49,30.662V21.456L31.268,32.368,29.9,56.016Z" transform="translate(-1.163)"/><path class="f" d="M123.01,64.423l.966-29.648,35.971-16.2V8.35L177.68,21.985l-17.9,13.469V26.249L142.048,37.16l-1.366,23.649Z" transform="translate(-28.35 -1.178)"/><path class="g" d="M34.223,41.74,27.4,44.577,24.27,67.147l8.587-1.758Z" transform="translate(-4.118 -9.372)"/><path class="g" d="M146,46.53l-6.874,2.694V69.2l5.508.981Z" transform="translate(-32.306 -10.548)"/><path class="e" d="M29.753,148.54a15.377,15.377,0,0,0,8.285,6.844S28.7,154.75,29.753,148.54Z" transform="translate(-5.443 -35.582)"/></g></svg>