<svg xmlns="http://www.w3.org/2000/svg" xmlns:xlink="http://www.w3.org/1999/xlink" width="146.857" height="126.062" viewBox="0 0 146.857 126.062"><defs><style>.a,.d{fill:#fff;}.a{stroke:#a53089;stroke-miterlimit:10;stroke-width:1.854px;}.b{fill:url(#a);}.c{fill:url(#b);}.e{fill:#393939;}.f{fill:#41235a;}</style><linearGradient id="a" x1="0.5" y1="0.976" x2="0.5" y2="0.34" gradientUnits="objectBoundingBox"><stop offset="0" stop-color="#b31e3c"/><stop offset="1" stop-color="#8a182c"/></linearGradient><linearGradient id="b" x1="1.686" y1="0.615" x2="2.685" y2="0.615" gradientUnits="objectBoundingBox"><stop offset="0" stop-color="#e32285"/><stop offset="1" stop-color="#e32285"/></linearGradient></defs><g transform="translate(-9.44 -30.06)"><path class="a" d="M81.442,164.506l-7.277,12.223L70.53,163.71Z" transform="translate(-11.966 -26.179)"/><path class="a" d="M67.5,160.838l-7.277,12.231L56.59,160.05Z" transform="translate(-9.236 -25.462)"/><path class="b" d="M120.3,172.078a4.815,4.815,0,0,1-4.817,4.817H103.917a4.815,4.815,0,0,1-4.817-4.817V140.927a4.815,4.815,0,0,1,4.817-4.817H115.48a4.815,4.815,0,0,1,4.817,4.817Z" transform="translate(-17.562 -20.773)"/><path class="c" d="M14.09,56.573,12.61,136.7s86.467,14.12,130.517.338l-3.168-85.149C72.517,39.131,14.09,56.573,14.09,56.573Z" transform="translate(-0.621 -3.362)"/><path class="d" d="M140.287,130.1a9.226,9.226,0,1,1-9.561-8.878A9.228,9.228,0,0,1,140.287,130.1Z" transform="translate(-22.017 -17.855)"/><path class="e" d="M135.884,131.722a3.4,3.4,0,1,1-3.522-3.273A3.4,3.4,0,0,1,135.884,131.722Z" transform="translate(-23.436 -19.272)"/><path class="d" d="M65.847,132.856a9.226,9.226,0,1,1-9.561-8.878A9.222,9.222,0,0,1,65.847,132.856Z" transform="translate(-7.436 -18.395)"/><path class="e" d="M61.434,134.492a3.4,3.4,0,1,1-3.522-3.273A3.4,3.4,0,0,1,61.434,134.492Z" transform="translate(-8.853 -19.814)"/><path class="e" d="M41.215,140.41a19.124,19.124,0,0,0,10.614,8.122S40.193,148.17,41.215,140.41Z" transform="translate(-6.211 -21.615)"/><path class="f" d="M12.656,97.357l1.351-53.5,14.965-8.089,113.542,2.34,2.6,26.978h-5.146l1.15,31.063L156.3,89.758l-8.049-51.649L145.3,33.719,29.149,30.06,9.44,40.988v50.8Z" transform="translate(0 0)"/><path class="f" d="M171.5,106.536l2.026,24.6-32.655,13.517-2.364,4.68h10.236l4.326-4.68,24.421-11.113-2.638-28.209Z" transform="translate(-25.282 -14.744)"/></g></svg>