<svg xmlns="http://www.w3.org/2000/svg" xmlns:xlink="http://www.w3.org/1999/xlink" width="138.504" height="152.729" viewBox="0 0 138.504 152.729"><defs><style>.a{fill:#41235a;}.b,.d{fill:#fff;}.b{stroke:#a53089;stroke-miterlimit:10;stroke-width:1.912px;}.c{fill:url(#a);}.e{fill:#393939;}</style><linearGradient id="a" x1="1.63" y1="0.613" x2="2.629" y2="0.613" gradientUnits="objectBoundingBox"><stop offset="0" stop-color="#e32285"/><stop offset="1" stop-color="#e32285"/></linearGradient></defs><g transform="translate(-11.611 -5.99)"><path class="a" d="M141.388,18.321,123.172,5.99l-5.78,9.257-8.96-5.58-5.122,9.088-9.289-5.491L88.61,22.271,77.555,15.632l-12.6,3.147a31.066,31.066,0,1,0,7.49,30.5L132.332,34.33ZM36.442,41.981a7.522,7.522,0,1,1-9.12-5.475A7.523,7.523,0,0,1,36.442,41.981Z" transform="translate(0)"/><path class="b" d="M87.03,185.224l.923,6.543,12.018,1.212-.056-7.86Z" transform="translate(-14.87 -35.319)"/><path class="b" d="M106.34,185.074l.064,7.868,12.227-.1-3.123-7.836Z" transform="translate(-18.678 -35.297)"/><path class="c" d="M18.255,74.285,16.73,156.792s89.034,14.539,134.394.345L147.865,69.46C78.412,56.326,18.255,74.285,18.255,74.285Z" transform="translate(-1.009 -11.567)"/><path class="d" d="M148.377,150.1a9.5,9.5,0,1,1-9.843-9.136A9.506,9.506,0,0,1,148.377,150.1Z" transform="translate(-23.223 -26.612)"/><path class="e" d="M143.852,151.8a3.5,3.5,0,1,1-3.629-3.364A3.5,3.5,0,0,1,143.852,151.8Z" transform="translate(-24.694 -28.086)"/><path class="d" d="M71.607,152.963a9.5,9.5,0,1,1-9.843-9.144A9.494,9.494,0,0,1,71.607,152.963Z" transform="translate(-8.086 -27.174)"/><path class="e" d="M67.082,154.663a3.5,3.5,0,1,1-3.629-3.364A3.5,3.5,0,0,1,67.082,154.663Z" transform="translate(-9.558 -28.65)"/><path class="e" d="M46.224,160.76a19.713,19.713,0,0,0,10.927,8.366C57.159,169.126,45.172,168.748,46.224,160.76Z" transform="translate(-6.812 -30.516)"/></g></svg>