<svg xmlns="http://www.w3.org/2000/svg" xmlns:xlink="http://www.w3.org/1999/xlink" width="472.888" height="614.6" viewBox="0 0 472.888 614.6">
  <defs>
    <linearGradient id="linear-gradient" x1="-35.508" y1="39.965" x2="-35.508" y2="39.585" gradientUnits="objectBoundingBox">
      <stop offset="0" stop-color="#a10a2d"/>
      <stop offset="1" stop-color="#750b21"/>
    </linearGradient>
    <linearGradient id="linear-gradient-2" y1="0.5" x2="1" y2="0.5" gradientUnits="objectBoundingBox">
      <stop offset="0" stop-color="#d50073"/>
      <stop offset="1" stop-color="#d50073"/>
    </linearGradient>
    <linearGradient id="linear-gradient-3" x1="0.155" y1="1.198" x2="0.305" y2="0.886" xlink:href="#linear-gradient-2"/>
  </defs>
  <g id="Group_204" data-name="Group 204" transform="translate(-398 -7311)">
    <text id="_" data-name="?" transform="translate(483 7533)" fill="#d50073" font-size="208" font-family="OpenSans-Bold, Open Sans" font-weight="700" letter-spacing="-0.025em"><tspan x="-49.613" y="0">?</tspan></text>
    <g id="Group_198" data-name="Group 198">
      <g id="Group_184" data-name="Group 184" transform="translate(581 502.129)" opacity="0.1">
        <g id="Group_176" data-name="Group 176" transform="translate(-183 7327)">
          <g id="Group_102" data-name="Group 102" transform="translate(0 0)">
            <path id="Path_897" data-name="Path 897" d="M5367.234,6428.72l42.157-2.188,10.486,6.347Z" transform="translate(-5367.234 -6409.799)"/>
            <path id="Path_898" data-name="Path 898" d="M5712.854,6437.87l92.187.385-2.842.884-89.344-.807Z" transform="translate(-5367.234 -6419.96)"/>
            <path id="Path_899" data-name="Path 899" d="M5767.98,6406.747c0,.457-3.567.827-7.965.827H5740.9c-4.4,0-7.966-.371-7.966-.827V6401.4c0-.457,3.567-.827,7.966-.827h19.118c4.4,0,7.965.37,7.965.827Z" transform="translate(-5367.234 -6386.535)"/>
            <path id="Path_900" data-name="Path 900" d="M5679.263,6470.228l31.393,6.575,49.976.983-5.048-2.423Z" transform="translate(-5367.234 -6448.958)"/>
            <path id="Path_901" data-name="Path 901" d="M5735.368,6497.169l29.674,1.507,49.051-3.986Z" transform="translate(-5367.234 -6470.88)"/>
            <path id="Path_902" data-name="Path 902" d="M5813.764,6498.042l-5.13,1.381,3.184.306Z" transform="translate(-5367.234 -6473.884)"/>
            <path id="Path_903" data-name="Path 903" d="M5815.271,6495.737l.136,1.743,4.9.106Z" transform="translate(-5367.234 -6471.818)"/>
            <path id="Path_904" data-name="Path 904" d="M5816.674,6485.416l15.6-.285-4.756-.611Z" transform="translate(-5367.234 -6461.766)"/>
            <path id="Path_905" data-name="Path 905" d="M5612.514,6626.793v-6.083s7.263-3.415,15.852-8.31l85.876,1.725c-12.108,4.154-27.963,7.987-48.344,10.2,0,0,20.02,1.232,34.849,2.464Z" transform="translate(-5367.234 -6576.366)"/>
            <path id="Path_906" data-name="Path 906" d="M5707.17,6443.98s33.572,15.816,15.3,21.415l-65.858,1.523s31.519-13.205,43.027-22.225Z" transform="translate(-5367.234 -6425.436)"/>
            <path id="Path_907" data-name="Path 907" d="M5589.867,6488.335s-92.93-2.6-203.406-12.072c0,0,72.662,20.019,208.941,21.333l31.289-4.163Z" transform="translate(-5367.234 -6454.367)"/>
            <path id="Path_908" data-name="Path 908" d="M5576.5,6495.593s-106.218-1.65-190.042-19.33c0,0,72.662,20.019,208.941,21.333Z" transform="translate(-5367.234 -6454.367)"/>
            <path id="Path_909" data-name="Path 909" d="M5425.017,6487.815l35.59,2.284v-3.054Z" transform="translate(-5367.234 -6464.029)"/>
            <path id="Path_910" data-name="Path 910" d="M5567.721,6407.545v-6.083s48.935-23.015,43-35.185l90.855,8.675s-18.194,23.353-80.475,30.128c0,0,20.019,1.232,34.848,2.464Z" transform="translate(-5367.234 -6355.803)"/>
            <path id="Path_911" data-name="Path 911" d="M5807.853,6372.116l19.683,1.21-5.557-2.119Z" transform="translate(-5367.234 -6360.22)" stroke="#8d1f77" stroke-miterlimit="10" stroke-width="1.215"/>
            <path id="Path_912" data-name="Path 912" d="M5764.517,6388.16l21.863,1.448,1.66-2.6Z" transform="translate(-5367.234 -6374.377)" stroke="#8d1f77" stroke-miterlimit="10" stroke-width="1.215"/>
            <path id="Path_913" data-name="Path 913" d="M5790.1,6382.986l21.537,1.563-3.781-2.562Z" transform="translate(-5367.234 -6369.88)" stroke="#8d1f77" stroke-miterlimit="10" stroke-width="1.215"/>
            <path id="Path_914" data-name="Path 914" d="M5610.725,6279.372l201.095-10.07,28.3,10.39s-98.253,5.46-138.542,8.355l-58.738-2.458Z" transform="translate(-5367.234 -6268.897)"/>
            <path id="Path_915" data-name="Path 915" d="M5811.82,6265.812l-130.158-.4-70.937,10.475Z" transform="translate(-5367.234 -6265.407)"/>
            <path id="Path_916" data-name="Path 916" d="M5610.725,6279.373l201.1-10.071-85.184,10.583Z" transform="translate(-5367.234 -6268.898)"/>
            <path id="Path_917" data-name="Path 917" d="M5670.562,6471.317l-61.723,5.634,4.348,6.125,24.694-1.315Z" transform="translate(-5367.234 -6449.934)"/>
            <path id="Path_918" data-name="Path 918" d="M5631.5,6550.871l-22.668,3.22,33.938,6.645Z" transform="translate(-5367.234 -6521.227)"/>
            <path id="Path_919" data-name="Path 919" d="M5667.567,6403.581a7.2,7.2,0,1,1-1.483-.154A3.712,3.712,0,0,1,5667.567,6403.581Z" transform="translate(-5367.234 -6389.094)"/>
            <path id="Path_920" data-name="Path 920" d="M5694.555,6403.581a7.205,7.205,0,1,1-1.483-.154A3.713,3.713,0,0,1,5694.555,6403.581Z" transform="translate(-5367.234 -6389.094)"/>
            <path id="Path_921" data-name="Path 921" d="M5711.961,6422.527a7.221,7.221,0,1,1-1.483-.154A3.7,3.7,0,0,1,5711.961,6422.527Z" transform="translate(-5367.234 -6406.073)"/>
            <path id="Path_922" data-name="Path 922" d="M5672.694,6425.493a7.2,7.2,0,1,1-1.482-.154A3.7,3.7,0,0,1,5672.694,6425.493Z" transform="translate(-5367.234 -6408.73)"/>
            <path id="Path_923" data-name="Path 923" d="M5657.866,6444.607a7.233,7.233,0,1,1-1.483-.154A3.713,3.713,0,0,1,5657.866,6444.607Z" transform="translate(-5367.234 -6425.86)"/>
            <path id="Path_924" data-name="Path 924" d="M5699.837,6340.043c0,1.105-8.631,2-19.278,2s-19.277-.9-19.277-2,8.63-2,19.277-2S5699.837,6338.938,5699.837,6340.043Z" transform="translate(-5367.234 -6330.498)"/>
            <path id="Path_925" data-name="Path 925" d="M5745.39,6329.853c0,.925-7.221,1.675-16.128,1.675s-16.129-.75-16.129-1.675,7.221-1.675,16.129-1.675S5745.39,6328.928,5745.39,6329.853Z" transform="translate(-5367.234 -6321.66)"/>
            <path id="Path_926" data-name="Path 926" d="M5660.761,6371.207a205.039,205.039,0,0,0,20.9,1.085S5661.566,6372.625,5660.761,6371.207Z" transform="translate(-5367.234 -6360.22)"/>
            <path id="Path_927" data-name="Path 927" d="M5689.249,6349.531c0,.5-3.89.9-8.69.9s-8.689-.4-8.689-.9,3.89-.9,8.689-.9S5689.249,6349.033,5689.249,6349.531Z" transform="translate(-5367.234 -6339.986)"/>
            <path id="Path_928" data-name="Path 928" d="M5735.2,6338.983c0,.341-2.66.617-5.94.617s-5.94-.276-5.94-.617,2.659-.617,5.94-.617S5735.2,6338.643,5735.2,6338.983Z" transform="translate(-5367.234 -6330.79)"/>
            <path id="Path_929" data-name="Path 929" d="M5639,6644.806l-.922,1.718,4.575.221Z" transform="translate(-5367.234 -6605.407)"/>
            <path id="Path_930" data-name="Path 930" d="M5642.82,6650.2l3.748,1.99,5.815.013Z" transform="translate(-5367.234 -6610.238)"/>
            <path id="Path_931" data-name="Path 931" d="M5646.173,6648.118l10.291,1.586,4.008-.813Z" transform="translate(-5367.234 -6608.375)"/>
            <path id="Path_932" data-name="Path 932" d="M5658.575,6755.735l.857-.918s9.273.063,8.727.12S5658.575,6755.735,5658.575,6755.735Z" transform="translate(-5367.234 -6703.993)"/>
            <path id="Path_933" data-name="Path 933" d="M5715.1,6742.372l-7.066-.235-4.97.92Z" transform="translate(-5367.234 -6692.63)"/>
            <path id="Path_934" data-name="Path 934" d="M5828.277,6327.482l-11.845,1.1,11.845,3.908,11.845-.665Z" transform="translate(-5367.234 -6321.036)"/>
          </g>
          <path id="Path_1429" data-name="Path 1429" d="M0,0,65.144,43.612,95.952,75.47,30.809,31.858Z" transform="matrix(0.782, -0.623, 0.623, 0.782, 83.559, 37.431)"/>
          <path id="Path_935" data-name="Path 935" d="M5514.636,6570.285l14.286-6.647-78.1,6.458Z" transform="translate(-5367.234 -6532.667)"/>
          <path id="Path_936" data-name="Path 936" d="M5520.52,6479.759l-8.393.1c-3.463.043-6.671-.2-7.388-.55l-.6-.295c-1.046-.516-.5-1.053,1.564-1.535l.3-.071,2.463-10.99,17.548.633Z" transform="translate(-5367.234 -6445.547)"/>
          <path id="Path_937" data-name="Path 937" d="M5509.483,6438.787l13.053.747-4.015,12.76-13.141.2-1.282-3.306,2.854-4.542Z" transform="translate(-5367.234 -6420.782)"/>
          <path id="Path_938" data-name="Path 938" d="M5575.91,6441.516h0c-2.21-1.772-7.545-3.487-15.741-5.059l-1.454-.279.422-1.444,16.125-2.648,1.78,1.143,16.12-.288-1.153-2.2c-.589-1.125-8.253-2.074-18.814-2.331l-17.65-.429-18.167.05-19.783.844c-4.527.193-7.547.644-7.724,1.152l-.156.457-3.723,1.16c-1.11.346-.694.726,1.136,1.036l8.652,1.471-1.6,3.573-.582,3.8Z" transform="translate(-5367.234 -6411.095)"/>
          <path id="Path_939" data-name="Path 939" d="M5581.365,6736.274h-13.689l-.508-1.189h14.2Z" transform="translate(-5367.234 -6686.311)"/>
          <path id="Path_940" data-name="Path 940" d="M5550.291,6736.274l-2.246,1.58-22.526-1.083,7.1-.948,3.477-.738h14.2Z" transform="translate(-5367.234 -6686.311)"/>
          <path id="Path_941" data-name="Path 941" d="M5563.691,6745.265h28.1v-.043c0-.383-1.118-.758-3.209-1.075l-4.6-.7a54.515,54.515,0,0,0-7.246-.4H5574.5c-4.017,0-7.522.283-8.515.688l-1.885.77c-.274.111-.413.226-.413.341Z" transform="translate(-5367.234 -6693.451)"/>
          <path id="Path_942" data-name="Path 942" d="M5502.268,6746.822h48.023v-1.85l-2.354.123c-3.423.18-7.431.193-10.961.038l-7.763-.342-22.931,1.229c-2.463.132-4.014.4-4.014.685Z" transform="translate(-5367.234 -6695.009)"/>
          <path id="Path_943" data-name="Path 943" d="M5591.029,6758.757c.5.174.766.354.766.538v.043h-28.1v-.413a.237.237,0,0,1,.1-.167Z" transform="translate(-5367.234 -6707.524)"/>
          <path id="Path_944" data-name="Path 944" d="M5550.291,6758.757v.581h-48.023v-.117c0-.172.6-.332,1.573-.463Z" transform="translate(-5367.234 -6707.524)"/>
          <path id="Path_945" data-name="Path 945" d="M5586.562,6483.589l-.216-.232-9.323-10,15.927-.248,2.328,5.3,1.813,5.114Z" transform="translate(-5367.234 -6451.536)"/>
          <g id="Group_103" data-name="Group 103" transform="translate(150.054 10.134)">
            <path id="Path_946" data-name="Path 946" d="M5553.663,6363.688c.281,0,.566-.007.827-.022,5.667-.333,11-.342,15.468-.306a5.418,5.418,0,0,0,1.81-.161c.07-.1-.625-.181-1.551-.188-4.688-.037-10.894-.032-17.387.35-.81.047-1.094.154-.637.239A9.718,9.718,0,0,0,5553.663,6363.688Z" transform="translate(-5517.288 -6362.997)"/>
            <path id="Path_947" data-name="Path 947" d="M5535.4,6363.688a9.7,9.7,0,0,0,1.469-.088c.456-.084.172-.191-.639-.239-6.491-.382-12.7-.387-17.384-.35-.927.007-1.622.091-1.55.188a5.289,5.289,0,0,0,1.807.161c4.466-.036,9.8-.027,15.469.306C5534.83,6363.682,5535.115,6363.688,5535.4,6363.688Z" transform="translate(-5517.288 -6362.997)"/>
          </g>
          <path id="Path_948" data-name="Path 948" d="M5588.745,6352.792s-58.406,2.568-94.142,1.7c14.982-1.475,15-7.079,15-7.079l1.139-4.3,68.667-.962,9.34,4.859Z" transform="translate(-5367.234 -6334.186)"/>
          <path id="Path_949" data-name="Path 949" d="M5555.808,6415.09c-10.9,1.142-18.832,1.644-19.963.677l.049-2.573h19.914Z" transform="translate(-5367.234 -6397.847)"/>
          <path id="Path_950" data-name="Path 950" d="M5535.861,6413.354l.018-1.9h19.914v1.354C5551,6413.151,5541.067,6413.652,5535.861,6413.354Z" transform="translate(-5367.234 -6396.291)"/>
          <path id="Path_951" data-name="Path 951" d="M5568.208,6371.19c1.1-.644,5.394-1.1,9.593-1.027s6.713.662,5.614,1.307-5.394,1.1-9.592,1.026S5567.11,6371.834,5568.208,6371.19Z" transform="translate(-5367.234 -6359.277)"/>
          <path id="Path_952" data-name="Path 952" d="M5544.135,6352.514h0c-17.519,0-31.724-1.475-31.724-3.295v-4.257h63.45v4.257C5575.859,6351.039,5561.656,6352.514,5544.135,6352.514Z" transform="translate(-5367.234 -6336.7)"/>
          <path id="Path_953" data-name="Path 953" d="M5565.665,6373.424c0,.349-1.886.631-4.212.631s-4.212-.282-4.212-.631,1.886-.631,4.212-.631S5565.665,6373.075,5565.665,6373.424Z" transform="translate(-5367.234 -6361.641)"/>
          <path id="Path_954" data-name="Path 954" d="M5523.394,6373.424c0,.349,1.887.631,4.212.631s4.212-.282,4.212-.631-1.884-.631-4.212-.631S5523.394,6373.075,5523.394,6373.424Z" transform="translate(-5367.234 -6361.641)"/>
          <path id="Path_955" data-name="Path 955" d="M5519.9,6364.31a32.985,32.985,0,0,1,5.045-.405c2.267-.061,5.878.029,7.334.185,1.331.142-.94.345-2.419.2-1.031-.1-3.287-.161-4.831-.139-1.648.023-2.788.149-4.137.22C5520.431,6364.4,5519.687,6364.356,5519.9,6364.31Z" transform="translate(-5367.234 -6353.659)"/>
          <path id="Path_956" data-name="Path 956" d="M5567.942,6364.31a32.989,32.989,0,0,0-5.045-.405c-2.267-.061-5.879.029-7.335.185-1.331.142.941.345,2.42.2,1.031-.1,3.287-.161,4.83-.139,1.649.023,2.789.149,4.137.22C5567.416,6364.4,5568.159,6364.356,5567.942,6364.31Z" transform="translate(-5367.234 -6353.659)"/>
          <g id="Group_104" data-name="Group 104" transform="translate(164.557 13.624)">
            <path id="Path_957" data-name="Path 957" d="M5543.077,6397.192c3.511,0,7.017-.1,10.5-.3.718-.041.973-.135.573-.21a10.851,10.851,0,0,0-2.023-.06,155.491,155.491,0,0,1-18.128,0,10.718,10.718,0,0,0-2.019.06c-.4.075-.14.168.576.21C5536.05,6397.091,5539.564,6397.192,5543.077,6397.192Z" transform="translate(-5531.791 -6396.6)"/>
          </g>
          <path id="Path_958" data-name="Path 958" d="M5589.166,6574.217l-3.695-.037c-3.342-.034-5.88-.327-5.848-.675l.037-.366c.016-.176.807-.342,2.146-.45l4.477-.4.063-.46,10.745.165-.236,1.534C5596.651,6573.943,5593.152,6574.257,5589.166,6574.217Z" transform="translate(-5367.234 -6540.008)"/>
          <path id="Path_959" data-name="Path 959" d="M5535.861,6425.038l-.016-.257s.177.758,5.252,1.042c0,0,13.334-.947,14.7-1.327l1.448.369,4.212,1.542-25.592,6.424-8.676-1.2v-5.22S5529.136,6425.546,5535.861,6425.038Z" transform="translate(-5367.234 -6407.975)"/>
          <path id="Path_960" data-name="Path 960" d="M5540.33,6438.259l-3.023.22-3.023-.512,3.023.691Z" transform="translate(-5367.234 -6420.047)"/>
          <path id="Path_961" data-name="Path 961" d="M5542.055,6437.546l1.309.4,9.749-.774-9.008.631Z" transform="translate(-5367.234 -6419.331)"/>
          <path id="Path_962" data-name="Path 962" d="M5535.973,6428.1l-26.489,1.061v1.23s-4.847,1.206-4.657,1.587,5.467,1.65,7.582,2.015c1.546.267-4,6.422-.58,7.765h64.32s-2.486-3-14.7-5.785c-3.675-.837,6.837-2.783,12.813-3.662,0,0,6,4.807,7.1,5.656a42.73,42.73,0,0,1,4.949,5.242l12.149.238s-1.227-5.525-1.372-6.011-3.46-7.96-3.929-8.181c0,0-13.479-.975-35.921-1.21,0,0-16.932,5.406-24.554,6.762C5532.687,6434.809,5524.085,6431.826,5535.973,6428.1Z" transform="translate(-5367.234 -6411.157)"/>
          <path id="Path_963" data-name="Path 963" d="M5563.084,6334.647c20.589-4.131,4.867-12.072,4.867-12.072s-34.262,1.872-53.881,1.919l-1.661,1.724-2.038-.351-2.025-.9-.562-.122c-5.6-1.211-4.621-2.5,1.606-3.678h0c7.841-1.555,35.591-1.433,35.591-1.433,10.886-.049,20.634.359,26.791,1.292h0c5.452,0,10.364.342,12.433.866h0c7.87,1.994,9.533,8.143,8.957,10.3l-6.391-.369Z" transform="translate(-5367.234 -6314.087)"/>
          <path id="Path_964" data-name="Path 964" d="M5583.233,6573.245h-17.614l-12.147-8.221-8.664-7h0l6.834,15.218-9.306.042-7.9-.042-20.874-15.043-1.738-3.129,30.226-.582,34.094.582-.29,8.544,4.347,2.829Z" transform="translate(-5367.234 -6524.471)"/>
        </g>
      </g>
      <g id="Group_185" data-name="Group 185" transform="translate(-4969.234 1116.593)">
        <g id="Group_102-2" data-name="Group 102">
          <path id="Path_897-2" data-name="Path 897" d="M5367.234,6447.608l42.157-21.077,10.486,61.115Z" fill="#223484"/>
          <path id="Path_898-2" data-name="Path 898" d="M5712.854,6437.87l92.187,3.708-2.842,8.513-89.344-7.772Z" fill="#2c1a49"/>
          <path id="Path_899-2" data-name="Path 899" d="M5767.98,6460.045a7.965,7.965,0,0,1-7.965,7.965H5740.9a7.966,7.966,0,0,1-7.966-7.965v-51.509a7.966,7.966,0,0,1,7.966-7.965h19.118a7.966,7.966,0,0,1,7.965,7.965Z" fill="url(#linear-gradient)"/>
          <path id="Path_900-2" data-name="Path 900" d="M5679.263,6470.228l31.393,63.317,49.976,9.467-5.048-23.328Z" fill="#e3d400"/>
          <path id="Path_901-2" data-name="Path 901" d="M5735.368,6518.565l29.674,14.512,49.051-38.387Z" fill="#223484"/>
          <path id="Path_902-2" data-name="Path 902" d="M5813.764,6498.042l-5.13,13.3,3.184,2.949Z" fill="#2b2b2b"/>
          <path id="Path_903-2" data-name="Path 903" d="M5815.271,6495.737l.136,16.791,4.9,1.022Z" fill="#2b2b2b"/>
          <path id="Path_904-2" data-name="Path 904" d="M5816.674,6493.154l15.6-2.748-4.756-5.887Z" fill="#2b2b2b"/>
          <path id="Path_905-2" data-name="Path 905" d="M5612.514,6751v-58.575s7.263-32.888,15.852-80.023l85.876,16.609c-12.108,40-27.963,76.912-48.344,98.263,0,0,20.02,11.863,34.849,23.726Z" fill="#8d1f77"/>
          <path id="Path_906-2" data-name="Path 906" d="M5707.17,6443.98s33.572,152.3,15.3,206.218l-65.858,14.671s31.519-127.158,43.027-214.012Z" fill="#2c1a49"/>
          <path id="Path_907-2" data-name="Path 907" d="M5589.867,6592.512s-92.93-25.052-203.406-116.249c0,0,72.662,192.776,208.941,205.435l31.289-40.092Z" fill="url(#linear-gradient-2)"/>
          <path id="Path_908-2" data-name="Path 908" d="M5576.5,6662.4s-106.218-15.889-190.042-186.139c0,0,72.662,192.776,208.941,205.435Z" fill="#8d1f77"/>
          <path id="Path_909-2" data-name="Path 909" d="M5425.017,6494.46l35.59,21.995v-29.409Z" fill="#e3d400"/>
          <path id="Path_910-2" data-name="Path 910" d="M5567.721,6763.661v-58.574s48.935-221.623,43-338.808l90.855,83.533s-18.194,224.875-80.475,290.122c0,0,20.019,11.864,34.848,23.727Z" fill="url(#linear-gradient-3)"/>
          <path id="Path_911-2" data-name="Path 911" d="M5807.853,6379.961l19.683,11.649-5.557-20.4Z" fill="#fff" stroke="#8d1f77" stroke-miterlimit="10" stroke-width="1.215"/>
          <path id="Path_912-2" data-name="Path 912" d="M5764.517,6398.127l21.863,13.941,1.66-25.063Z" fill="#fff" stroke="#8d1f77" stroke-miterlimit="10" stroke-width="1.215"/>
          <path id="Path_913-2" data-name="Path 913" d="M5790.1,6391.61l21.537,15.05-3.781-24.673Z" fill="#fff" stroke="#8d1f77" stroke-miterlimit="10" stroke-width="1.215"/>
          <path id="Path_914-2" data-name="Path 914" d="M5610.725,6366.279,5811.82,6269.3l28.3,100.051s-98.253,52.578-138.542,80.459l-58.738-23.676Z" fill="url(#linear-gradient-2)"/>
          <path id="Path_915-2" data-name="Path 915" d="M5811.82,6269.3l-130.158-3.9-70.937,100.872Z" fill="url(#linear-gradient-2)"/>
          <path id="Path_916-2" data-name="Path 916" d="M5610.725,6366.279l201.1-96.977-85.184,101.9Z" fill="#8d1f77"/>
          <path id="Path_917-2" data-name="Path 917" d="M5670.562,6471.317l-61.723,54.252,4.348,58.985,24.694-12.665Z" fill="#e3d400"/>
          <path id="Path_918-2" data-name="Path 918" d="M5631.5,6550.871l-22.668,31.01,33.938,63.985Z" fill="#223484"/>
          <path id="Path_919-2" data-name="Path 919" d="M5667.567,6404.91a1.483,1.483,0,1,1-1.483-1.483A1.484,1.484,0,0,1,5667.567,6404.91Z" fill="#2b2b2b"/>
          <path id="Path_920-2" data-name="Path 920" d="M5694.555,6404.91a1.483,1.483,0,1,1-1.483-1.483A1.484,1.484,0,0,1,5694.555,6404.91Z" fill="#2b2b2b"/>
          <path id="Path_921-2" data-name="Path 921" d="M5711.961,6423.856a1.482,1.482,0,1,1-1.483-1.483A1.482,1.482,0,0,1,5711.961,6423.856Z" fill="#2b2b2b"/>
          <path id="Path_922-2" data-name="Path 922" d="M5672.694,6426.822a1.482,1.482,0,1,1-1.482-1.483A1.482,1.482,0,0,1,5672.694,6426.822Z" fill="#2b2b2b"/>
          <path id="Path_923-2" data-name="Path 923" d="M5657.866,6445.935a1.484,1.484,0,1,1-1.483-1.482A1.483,1.483,0,0,1,5657.866,6445.935Z" fill="#2b2b2b"/>
          <path id="Path_924-2" data-name="Path 924" d="M5699.837,6357.32a19.277,19.277,0,1,1-19.278-19.279A19.278,19.278,0,0,1,5699.837,6357.32Z" fill="#fff"/>
          <path id="Path_925-2" data-name="Path 925" d="M5745.39,6344.306a16.129,16.129,0,1,1-16.128-16.128A16.129,16.129,0,0,1,5745.39,6344.306Z" fill="#fff"/>
          <path id="Path_926-2" data-name="Path 926" d="M5660.761,6371.207a33.452,33.452,0,0,0,20.9,10.452S5661.566,6384.869,5660.761,6371.207Z" fill="#2b2b2b"/>
          <path id="Path_927-2" data-name="Path 927" d="M5689.249,6357.32a8.689,8.689,0,1,1-8.69-8.691A8.688,8.688,0,0,1,5689.249,6357.32Z" fill="#2b2b2b"/>
          <path id="Path_928-2" data-name="Path 928" d="M5735.2,6344.306a5.94,5.94,0,1,1-5.94-5.94A5.94,5.94,0,0,1,5735.2,6344.306Z" fill="#2b2b2b"/>
          <path id="Path_929-2" data-name="Path 929" d="M5639,6644.806l-.922,16.547,4.575,2.129Z" fill="#2b2b2b"/>
          <path id="Path_930-2" data-name="Path 930" d="M5642.82,6650.2l3.748,19.163,5.815.121Z" fill="#2b2b2b"/>
          <path id="Path_931-2" data-name="Path 931" d="M5646.173,6648.118l10.291,15.276,4.008-7.833Z" fill="#2b2b2b"/>
          <path id="Path_932-2" data-name="Path 932" d="M5658.575,6763.662l.857-8.845s9.273.61,8.727,1.154S5658.575,6763.662,5658.575,6763.662Z" fill="#2b2b2b"/>
          <path id="Path_933-2" data-name="Path 933" d="M5715.1,6744.4l-7.066-2.26-4.97,8.861Z" fill="#2b2b2b"/>
          <path id="Path_934-2" data-name="Path 934" d="M5828.277,6327.483l-11.845,10.639,11.845,37.631,11.845-6.4Z" fill="#2b2b2b"/>
        </g>
        <rect id="Rectangle_490" data-name="Rectangle 490" width="99.87" height="70.55" transform="matrix(0.782, -0.623, 0.623, 0.782, 5450.792, 6625.847)" fill="#dff1f6"/>
        <path id="Path_935-2" data-name="Path 935" d="M5514.636,6627.647l14.286-64.009-78.1,62.183Z" fill="#ffc32e"/>
        <path id="Path_936-2" data-name="Path 936" d="M5520.52,6594.858l-8.393,1a6.728,6.728,0,0,1-7.388-5.3l-.6-2.84a24.154,24.154,0,0,1,1.564-14.784l.3-.685,2.463-105.834,17.548,6.1Z" fill="#59311a"/>
        <path id="Path_937-2" data-name="Path 937" d="M5509.483,6438.787l13.053,7.193-4.015,122.873-13.141,1.888L5504.1,6538.9l2.854-43.73Z" fill="#0d0c0c"/>
        <path id="Path_938-2" data-name="Path 938" d="M5575.91,6558.352h0a140.077,140.077,0,0,0-15.741-48.719l-1.454-2.682.422-13.905,16.125-25.5,1.78,11,16.12-2.771-1.153-21.229a24.412,24.412,0,0,0-18.814-22.442l-17.65-4.127-18.167.476-19.783,8.128a12.475,12.475,0,0,0-7.724,11.089l-.156,4.4-3.723,11.166a11.915,11.915,0,0,0,1.136,9.979l8.652,14.163-1.6,34.409-.582,36.565Z" fill="#fec28a"/>
        <path id="Path_939-2" data-name="Path 939" d="M5581.365,6746.531h-13.689l-.508-11.445h14.2Z" fill="#8a4d2b"/>
        <path id="Path_940-2" data-name="Path 940" d="M5550.291,6746.531l-2.246,15.211-22.526-10.431,7.1-9.125,3.477-7.1h14.2Z" fill="#8a4d2b"/>
        <path id="Path_941-2" data-name="Path 941" d="M5563.691,6764.349h28.1v-.413a18.307,18.307,0,0,0-3.209-10.352l-4.6-6.711a8.788,8.788,0,0,0-7.246-3.82H5574.5a8.792,8.792,0,0,0-8.515,6.619l-1.885,7.41a13.307,13.307,0,0,0-.413,3.288Z" fill="#050606"/>
        <path id="Path_942-2" data-name="Path 942" d="M5502.268,6764.349h48.023v-17.818l-2.354,1.188a13.035,13.035,0,0,1-10.961.364l-7.763-3.292-22.931,11.837a7.42,7.42,0,0,0-4.014,6.591Z" fill="#050606"/>
        <path id="Path_943-2" data-name="Path 943" d="M5591.029,6758.757a18.256,18.256,0,0,1,.766,5.179v.413h-28.1v-3.979a13.589,13.589,0,0,1,.1-1.613Z" fill="#352e26"/>
        <path id="Path_944-2" data-name="Path 944" d="M5550.291,6758.757v5.592h-48.023v-1.13a7.354,7.354,0,0,1,1.573-4.462Z" fill="#352e26"/>
        <path id="Path_945-2" data-name="Path 945" d="M5586.562,6574.063l-.216-2.235-9.323-96.338,15.927-2.385,2.328,51.069,1.813,49.245Z" fill="#fec28a"/>
        <g id="Group_103-2" data-name="Group 103">
          <path id="Path_946-2" data-name="Path 946" d="M5553.663,6369.664a1.661,1.661,0,0,0,.827-.219c5.667-3.209,11-3.291,15.468-2.947a1.684,1.684,0,1,0,.259-3.359c-4.688-.358-10.894-.3-17.387,3.374a1.684,1.684,0,0,0,.833,3.151Z" fill="#7a4043"/>
          <path id="Path_947-2" data-name="Path 947" d="M5535.4,6369.664a1.684,1.684,0,0,0,.83-3.151c-6.491-3.677-12.7-3.732-17.384-3.374a1.685,1.685,0,0,0-1.55,1.809,1.663,1.663,0,0,0,1.807,1.55c4.466-.344,9.8-.262,15.469,2.947A1.662,1.662,0,0,0,5535.4,6369.664Z" fill="#7a4043"/>
        </g>
        <path id="Path_948-2" data-name="Path 948" d="M5588.745,6444.58s-58.406,24.73-94.142,16.376c14.982-14.206,15-68.166,15-68.166l1.139-41.367,68.667-9.267,9.34,46.791Z" fill="#372013"/>
        <path id="Path_949-2" data-name="Path 949" d="M5555.808,6431.449c-10.9,11-18.832,15.827-19.963,6.518l.049-24.772h19.914Z" fill="#8a4d2b"/>
        <path id="Path_950-2" data-name="Path 950" d="M5535.861,6429.71l.018-18.252h19.914V6424.5C5551,6427.762,5541.067,6432.585,5535.861,6429.71Z" fill="#59311a"/>
        <path id="Path_951-2" data-name="Path 951" d="M5568.208,6380.123c1.1-6.2,5.394-10.629,9.593-9.886s6.713,6.376,5.614,12.58-5.394,10.628-9.592,9.886S5567.11,6386.327,5568.208,6380.123Z" fill="#fec28a"/>
        <path id="Path_952-2" data-name="Path 952" d="M5544.135,6417.687h0a31.726,31.726,0,0,1-31.724-31.727v-41h63.45v41A31.725,31.725,0,0,1,5544.135,6417.687Z" fill="#8a4d2b"/>
        <path id="Path_953-2" data-name="Path 953" d="M5565.665,6378.869c0,3.356-1.886,6.076-4.212,6.076s-4.212-2.72-4.212-6.076,1.886-6.076,4.212-6.076S5565.665,6375.51,5565.665,6378.869Z" fill="#372013"/>
        <path id="Path_954-2" data-name="Path 954" d="M5523.394,6378.869c0,3.356,1.887,6.076,4.212,6.076s4.212-2.72,4.212-6.076-1.884-6.076-4.212-6.076S5523.394,6375.51,5523.394,6378.869Z" fill="#372013"/>
        <path id="Path_955-2" data-name="Path 955" d="M5519.9,6367.973a7.526,7.526,0,0,1,5.045-3.9c2.267-.585,5.878.284,7.334,1.78,1.331,1.369-.94,3.325-2.419,1.957a6.9,6.9,0,0,0-4.831-1.335c-1.648.224-2.788,1.431-4.137,2.117C5520.431,6368.827,5519.687,6368.421,5519.9,6367.973Z" fill="#1a1410"/>
        <path id="Path_956-2" data-name="Path 956" d="M5567.942,6367.973a7.527,7.527,0,0,0-5.045-3.9c-2.267-.585-5.879.284-7.335,1.78-1.331,1.369.941,3.325,2.42,1.957a6.9,6.9,0,0,1,4.83-1.335c1.649.224,2.789,1.431,4.137,2.117C5567.416,6368.827,5568.159,6368.421,5567.942,6367.973Z" fill="#1a1410"/>
        <g id="Group_104-2" data-name="Group 104">
          <path id="Path_957-2" data-name="Path 957" d="M5543.077,6402.3a21.368,21.368,0,0,0,10.5-2.913,1.487,1.487,0,0,0-1.45-2.6c-6.08,3.4-12.011,3.4-18.128,0a1.487,1.487,0,0,0-1.443,2.6A21.512,21.512,0,0,0,5543.077,6402.3Z" fill="#ba683c"/>
        </g>
        <path id="Path_958-2" data-name="Path 958" d="M5589.166,6594.825l-3.695-.356a6.468,6.468,0,0,1-5.848-6.5l.037-3.521a5.554,5.554,0,0,1,2.146-4.334l4.477-3.846.063-4.438,10.745,1.588-.236,14.773A7.026,7.026,0,0,1,5589.166,6594.825Z" fill="#8a4d2b"/>
        <path id="Path_959-2" data-name="Path 959" d="M5535.861,6429.71l-.016-2.472s.177,7.3,5.252,10.031c0,0,13.334-9.117,14.7-12.773l1.448,3.551,4.212,14.851-25.592,61.866-8.676-11.6V6442.9S5529.136,6434.6,5535.861,6429.71Z" fill="#fff"/>
        <path id="Path_960-2" data-name="Path 960" d="M5540.33,6440.777l-3.023,2.121-3.023-4.931,3.023,6.651Z" fill="#72737c"/>
        <path id="Path_961-2" data-name="Path 961" d="M5542.055,6440.812l1.309,3.807,9.749-7.451-9.008,6.08Z" fill="#72737c"/>
        <path id="Path_962-2" data-name="Path 962" d="M5535.973,6428.568l-26.489,10.219v11.844s-4.847,11.609-4.657,15.285,5.467,15.893,7.582,19.4c1.546,2.566-4,61.842-.58,74.769h64.32s-2.486-28.924-14.7-55.707c-3.675-8.062,6.837-26.8,12.813-35.267,0,0,6,46.288,7.1,54.468s4.98,48.276,4.949,50.479l12.149,2.293s-1.227-53.206-1.372-57.882-3.46-76.65-3.929-78.776c0,0-13.479-9.387-35.921-11.651,0,0-16.932,52.059-24.554,65.117C5532.687,6493.164,5524.085,6464.437,5535.973,6428.568Z" fill="#1e1a18"/>
        <path id="Path_963-2" data-name="Path 963" d="M5563.084,6463.386c20.589-39.783,4.867-116.249,4.867-116.249s-34.262,18.024-53.881,18.483l-1.661,16.6-2.038-3.382-2.025-8.685-.562-1.171c-5.6-11.664-4.621-24.068,1.606-35.417h0c7.841-14.979,35.591-13.8,35.591-13.8,10.886-.471,20.634,3.455,26.791,12.446h0a13.438,13.438,0,0,1,12.433,8.338h0c7.87,19.2,9.533,78.409,8.957,99.148l-6.391-3.55Z" fill="#4a2d13"/>
        <path id="Path_964-2" data-name="Path 964" d="M5583.233,6735.085h-17.614l-12.147-79.163-8.664-67.385h0l6.834,146.548-9.306.4-7.9-.4-20.874-144.865-1.738-30.131,30.226-5.6,34.094,5.6-.29,82.282,4.347,27.236Z" fill="#1e1a18"/>
      </g>
    </g>
  </g>
</svg>
